<?xml version="1.0" encoding="utf-8"?>
<!-- Generator: Adobe Illustrator 22.1.0, SVG Export Plug-In . SVG Version: 6.00 Build 0)  -->
<svg version="1.1" id="Layer_1" xmlns="http://www.w3.org/2000/svg" xmlns:xlink="http://www.w3.org/1999/xlink" x="0px" y="0px"
	 viewBox="0 0 210 210" style="enable-background:new 0 0 210 210;" xml:space="preserve">
<style type="text/css">
	.st0{fill:#FFFFFF;}
	.st1{fill:#F5E8D0;}
	.st2{fill:#E8E8E8;}
	.st3{fill:#F5D69A;}
	.st4{fill:#A56941;}
	.st5{fill:#965028;}
	.st6{fill:#DCBE82;}
</style>
<g id="Layer_2">
</g>
<g>
	<g id="XMLID_10_">
		<g>
			<path class="st0" d="M47.7,99.3c0,1.8,0,3.7,0,5.7c-0.8,0-1.2,0-1.2,0v-5.7C46.5,99.3,47,99.3,47.7,99.3z"/>
			<path class="st1" d="M203.4,86.3c-2.7,0-6.4,0-10.8,0c-3.1,0-6.6,0-10.4,0c-3.4,0-7,0-10.8,0c-1,0-2.1,0-3.2,0
				c0-4.6-0.1-9-0.1-13c23.7,0,40.8,0,40.8,0v13C208.7,86.3,206.8,86.3,203.4,86.3z"/>
			<path class="st0" d="M192.5,104.9c0-2,0-3.9,0-5.7c0-5.5,0-9.9,0-12.8v-0.2c4.4,0,8.1,0,10.8,0c0,17.3,0,101.4,0,101.4
				c0,3.5-2.4,6.3-5.4,6.3c-3,0-5.4-2.8-5.4-6.3C192.5,187.7,192.5,135.6,192.5,104.9z"/>
			<path class="st0" d="M182.1,99.3c4,0,7.6,0,10.4,0c0,1.8,0,3.7,0,5.7c-2.9,0-6.4,0-10.4,0c-3.3,0-6.9,0-10.8,0c-1,0-2.1,0-3.1,0
				c0-1.9,0-3.8,0-5.7c1.1,0,2.1,0,3.1,0C175.1,99.3,178.8,99.3,182.1,99.3z"/>
			<path class="st2" d="M182.1,104.9c0,29.4,0,81.5,0,81.5c0,3.4-2.4,6.1-5.4,6.1c-3,0-5.4-2.7-5.4-6.1c0,0,0-24.2,0-49.1
				c0-11.4,0-22.9,0-32.4C175.1,104.9,178.8,104.9,182.1,104.9z"/>
			<path class="st2" d="M182.1,87.3c0,2.3,0,6.5,0,12c-3.3,0-6.9,0-10.8,0c0-5.6,0-10.1,0-13c3.8,0,7.5,0,10.8,0V87.3z"/>
			<path class="st0" d="M162.5,99.3v5.7c-22.1,0-49.9,0-72.8,0v-5.7C112.6,99.3,140.5,99.3,162.5,99.3z"/>
			<path class="st0" d="M83.7,104.9h-0.3c-17.8,0-31.6,0-35.6,0c0-2,0-3.9,0-5.7c4,0,17.9,0,35.6,0h0.3
				C83.7,101.2,83.7,103.1,83.7,104.9z"/>
			<path class="st1" d="M36.9,86.3c-0.6,0-1.2,0-1.8,0c-1.8,0-4,0-6.2,0v-13c2.5,0,4.8,0,6.8,0c9.2,0,26.9,0,47.7,0
				c0,4,0.1,8.4,0.1,13h-0.4c-13.6,0-26,0-35.4,0C43.5,86.3,39.8,86.3,36.9,86.3z"/>
			<path class="st0" d="M47.7,104.9c0,30.4,0,84.1,0,84.1c0,3.5-2.4,6.3-5.4,6.3c-3,0-5.4-2.8-5.4-6.3c0,0,0-52.6,0-84.1v-5.7
				c0-5.4,0-9.9,0-13c2.9,0,6.6,0,10.8,0v0.1c0,2.4,0,7,0,12.9c-0.8,0-1.2,0-1.2,0v5.7C46.5,104.9,47,104.9,47.7,104.9z"/>
			<path class="st0" d="M36.9,99.3v5.7c0,0-12.4,0-19.8,0c0-2,0-3.9,0-5.7C24.5,99.3,36.9,99.3,36.9,99.3z"/>
			<path class="st3" d="M17.1,86.3c-4,0-7.9,0-10.8,0c-3.5,0-5.7,0-5.7,0v-13c0,0,16.2,0,28.4,0v13C25.2,86.3,21,86.3,17.1,86.3z"/>
			<path class="st2" d="M17.1,104.9c0,30.6,0,83.2,0,83.2c0,3.5-2.4,6.3-5.4,6.3c-3,0-5.4-2.8-5.4-6.3c0,0,0-80.2,0-101.8
				c3,0,6.8,0,10.8,0c0,2.7,0,7.2,0,13C17.1,101.1,17.1,103,17.1,104.9z"/>
		</g>
	</g>
</g>
<g>
	<rect x="78.8" y="162.2" class="st4" width="80.3" height="5.2"/>
	<polygon class="st4" points="95.8,121.9 73.6,196 79.4,196 108.5,121.9 	"/>
	<polygon class="st4" points="129.6,121.9 158.7,196 164.5,196 142.3,121.9 	"/>
	<polygon class="st5" points="95.8,121.9 91.3,136.9 102.6,136.9 108.5,121.9 	"/>
	<polygon class="st6" points="77.3,183.7 73.6,196 79.4,196 84.2,183.7 	"/>
	<polygon class="st6" points="153.9,183.7 158.7,196 164.5,196 160.9,183.7 	"/>
	<polygon class="st5" points="129.6,121.9 135.5,136.9 146.8,136.9 142.3,121.9 	"/>
	<path class="st0" d="M171.9,101.1c1.4,10.7-8.8,20.1-22,20.1H87.5c-6.3,0-12.3-2.2-16.5-6c-4.2-3.8-6.2-9-5.5-14.1L74.9,31
		c1.2-9.2,10.7-16.2,22-16.2h43.4c11.3,0,20.8,7,22,16.2L171.9,101.1z"/>
	<rect x="85.8" y="121.2" class="st4" width="65.7" height="10.6"/>
	<rect x="85.8" y="121.2" class="st5" width="65.7" height="2.3"/>
</g>
</svg>
