<?xml version="1.0" encoding="utf-8"?>
<!-- Generator: Adobe Illustrator 22.1.0, SVG Export Plug-In . SVG Version: 6.00 Build 0)  -->
<svg version="1.1" id="Layer_1" xmlns="http://www.w3.org/2000/svg" xmlns:xlink="http://www.w3.org/1999/xlink" x="0px" y="0px"
	 viewBox="0 0 180 180" style="enable-background:new 0 0 180 180;" xml:space="preserve">
<style type="text/css">
	.st0{display:none;}
	.st1{display:inline;}
	.st2{fill:#FE560F;}
	.st3{fill:#FEAA0F;}
	.st4{fill:#FED893;}
	.st5{fill:#0089A4;}
	.st6{fill:#005078;}
	.st7{display:inline;fill:#FE560F;}
	.st8{display:inline;fill:#BF004C;}
	.st9{display:inline;fill:#660546;}
	.st10{display:inline;fill:#FEAA0F;}
	.st11{display:inline;fill:#8C1C53;}
	.st12{display:inline;fill:#EB3B49;}
	.st13{display:inline;fill:#FED893;}
	.st14{display:inline;fill:#EA87B4;}
	.st15{fill:#15C7B6;}
	.st16{fill:url(#SVGID_1_);}
	.st17{opacity:0.7;fill:#33FF77;}
	.st18{opacity:0.25;fill:#0898A6;}
	.st19{fill:#53C500;}
	.st20{fill:#4CB300;}
	.st21{fill:#2BAB00;}
	.st22{fill:#47A600;}
	.st23{fill:#AC5F00;}
	.st24{fill:#994500;}
	.st25{fill:#D99800;}
	.st26{fill:#A6DD0D;}
	.st27{opacity:0.25;fill:#2BAB00;}
	.st28{fill:#A1EADF;}
	.st29{fill:#FFF8ED;}
	.st30{fill:#F2DEC2;}
</style>
<g class="st0">
	<g class="st1">
		<path class="st2" d="M151,164.6c-3.7-5.6-8.7-10.4-14.6-13.6c0.4-2.5,2-4.6,4-6.2c2-1.5,4.2-2.5,6.5-3.3
			c1.7,6.2,5.1,11.9,9.7,16.4C154.8,160.1,152.8,162.4,151,164.6z"/>
		<path class="st3" d="M155.4,161.1c-4.6-5.6-8.6-11.8-11.7-18.4c-2.2,0.8-4.1,2.5-5.4,4.5c5.5,5,10.7,10.5,15.5,16.3
			C154.2,162.9,154.9,161.7,155.4,161.1z"/>
		<path class="st4" d="M155.7,162.7c-5.3-5.8-9.9-12.3-13.6-19.2c-1.2,0.4-2.2,1.3-2.9,2.5c5.8,5.4,11.1,11.5,15.8,17.9
			C155.3,163.5,155.5,163,155.7,162.7z"/>
		<g>
			<path class="st5" d="M162.7,161.7c1.7,1.5,2.2,4.2,1.1,6.3c-1.1,2-3.6,3.2-5.8,2.7c-0.9,1.3-2.6,2.4-4.2,2.6
				c-1.6,0.2-3.3-0.2-4.6-1.3c-0.1,1.3-1,2.5-2.1,3s-2.6,0.1-3.5-0.8s-1.1-2.4-0.6-3.5c0.5-1.2,1.7-1.9,2.8-2.6
				c-1.2-1.3-1.2-3.2-0.6-4.8c0.6-1.6,2-2.8,3.5-3.6c1.5-0.7,3.3-1,5-1.1c0.4-1.8,1.7-3.3,3.2-4.4c0.6-0.4,1.4-0.8,2.1-0.8
				c0.8,0,1.6,0.5,1.7,1.3c0.6-0.4,1.6-0.7,2.3-1c0.7-0.3,1.5-0.4,2.2-0.2c1.1,0.4,1.8,1.6,1.8,2.7c0,1.2-0.6,2.2-1.3,3.1
				C164.9,160.2,163.7,161,162.7,161.7z"/>
			<path class="st6" d="M166.7,155c-0.3-0.7-0.8-1.3-1.5-1.5c-0.7-0.2-1.5-0.1-2.2,0.2c-0.7,0.3-1.7,0.6-2.3,1
				c-0.2-0.8-1-1.3-1.7-1.3c-0.8,0-1.5,0.3-2.1,0.8c-1.5,1.1-2.8,2.6-3.2,4.4c-1.7,0.1-3.4,0.3-5,1.1c-1.5,0.7-2.9,2-3.5,3.6
				c-0.6,1.6-0.5,3.5,0.6,4.8c-1.1,0.7-2.2,1.4-2.8,2.6c-0.5,1.1-0.3,2.6,0.6,3.5c0,0,0.1,0.1,0.1,0.1c0.2,0.1,0.4,0.3,0.6,0.4
				c0.6-1,1.2-2.1,1.8-3.1c0.7-1.1,1.3-2.3,2.3-3.2c1.4-1.3,3.3-2.1,5.3-2c-0.1-3.3,2.9-6.2,6.2-6.5c0-0.9,0.7-1.8,1.6-2.1
				c0.9-0.3,1.9,0.1,2.4,0.9C165.2,158.3,166.4,156.6,166.7,155z"/>
			<path class="st4" d="M160.7,154.7c0.5-0.4,1.1-0.6,1.7-0.9c0.6-0.2,1.2-0.5,1.9-0.6c0.7,0,1.4,0.2,1.9,0.7c0.5,0.5,0.9,1.1,1,1.8
				c0.2,1.4-0.4,2.8-1.2,3.8c-0.9,1-1.9,1.8-3,2.5l0-0.6c1.9,1.7,2.4,4.5,1.3,6.8c-1.2,2.2-3.8,3.5-6.3,2.9l0.5-0.2
				c-1.1,1.4-2.7,2.5-4.4,2.8c-1.8,0.3-3.6-0.2-5-1.4l0.7-0.3c-0.1,1.4-1,2.7-2.4,3.2c-1.3,0.5-2.9,0.1-3.8-0.9
				c-0.9-1-1.1-2.6-0.5-3.8c0.6-1.2,1.8-1.9,2.9-2.5c-1,0.7-2.1,1.5-2.6,2.6c-0.5,1.1-0.2,2.5,0.6,3.3c0.8,0.8,2.2,1.1,3.2,0.7
				c1-0.4,1.8-1.6,1.8-2.7l0-0.8l0.6,0.5c1.2,1,2.9,1.4,4.4,1.1c1.5-0.3,2.9-1.2,3.8-2.4l0.2-0.3l0.3,0.1c2,0.4,4.3-0.6,5.3-2.4
				c1-1.8,0.5-4.3-1-5.7l-0.4-0.4l0.4-0.3c1.1-0.7,2.1-1.4,3-2.3c0.8-0.9,1.4-2.1,1.2-3.3c-0.1-0.6-0.3-1.2-0.8-1.6
				c-0.4-0.4-1-0.7-1.6-0.7c-0.6,0-1.2,0.2-1.8,0.4C161.9,154.2,161.3,154.3,160.7,154.7z"/>
			<path class="st2" d="M145.8,168c-1-0.9-1.4-2.3-1.2-3.6c0.1-1.3,0.8-2.6,1.7-3.6c0.9-1,2.2-1.7,3.4-2.1c1.3-0.4,2.6-0.6,3.9-0.6
				l-0.4,0.4c0.4-1.8,1.7-3.3,3.1-4.3c0.7-0.5,1.5-1,2.5-1c0.9,0,1.9,0.6,2,1.5c-0.3-0.8-1.2-1.2-2-1.1c-0.8,0.1-1.5,0.6-2.1,1.1
				c-1.2,1.1-2.3,2.4-2.6,4l-0.1,0.4l-0.4,0c-1.2,0-2.5,0.2-3.6,0.6c-1.2,0.4-2.2,0.9-3.1,1.8c-0.9,0.8-1.5,1.9-1.8,3.1
				C144.9,165.7,145,167,145.8,168z"/>
		</g>
	</g>
	<g class="st1">
		<path class="st2" d="M36,138.6c3.9-2.2,7.4-5.4,9.8-9.3c1.6,0.4,3,1.5,4,2.9c0.9,1.4,1.5,2.9,1.9,4.5c-4.3,0.9-8.3,2.9-11.5,5.9
			C38.8,141.3,37.3,139.9,36,138.6z"/>
		<path class="st3" d="M38.1,141.7c4-2.9,8.3-5.3,12.9-7.1c-0.5-1.5-1.5-2.9-2.8-3.9c-3.6,3.5-7.5,6.8-11.6,9.7
			C37,140.8,37.7,141.3,38.1,141.7z"/>
		<path class="st4" d="M37,141.8c4.1-3.3,8.7-6.1,13.5-8.3c-0.2-0.9-0.8-1.6-1.6-2c-3.9,3.7-8.2,7-12.7,9.9
			C36.5,141.5,36.8,141.6,37,141.8z"/>
		<g>
			<path class="st5" d="M37.4,146.6c-1.1,1.1-2.9,1.3-4.3,0.5c-1.3-0.8-2-2.5-1.5-4c-0.9-0.7-1.5-1.9-1.6-3c-0.1-1.1,0.3-2.2,1-3.1
				c-0.8-0.1-1.7-0.8-1.9-1.6c-0.2-0.8,0.1-1.8,0.7-2.3c0.7-0.5,1.6-0.6,2.4-0.2c0.8,0.4,1.2,1.2,1.6,2c0.9-0.7,2.2-0.7,3.2-0.2
				c1.1,0.5,1.8,1.4,2.3,2.5c0.4,1.1,0.5,2.2,0.5,3.4c1.2,0.3,2.2,1.3,2.8,2.4c0.3,0.4,0.5,0.9,0.4,1.5c0,0.5-0.4,1-0.9,1.1
				c0.3,0.4,0.4,1.1,0.6,1.6s0.2,1,0,1.5c-0.3,0.7-1.1,1.1-1.9,1.1c-0.8,0-1.5-0.5-2-1C38.3,148.1,37.8,147.3,37.4,146.6z"/>
			<path class="st6" d="M41.7,149.6c0.5-0.2,0.9-0.5,1.1-1c0.2-0.5,0.2-1,0-1.5s-0.3-1.2-0.6-1.6c0.5-0.1,0.9-0.6,0.9-1.1
				c0-0.5-0.2-1-0.4-1.5c-0.7-1.1-1.6-2-2.8-2.4c0-1.2-0.1-2.3-0.5-3.4c-0.4-1.1-1.2-2-2.3-2.5s-2.3-0.5-3.2,0.2
				c-0.4-0.8-0.9-1.6-1.6-2c-0.8-0.4-1.7-0.3-2.4,0.2c0,0-0.1,0.1-0.1,0.1c-0.1,0.1-0.2,0.2-0.3,0.4c0.7,0.5,1.3,0.9,2,1.4
				c0.7,0.5,1.5,1,2,1.7c0.8,1,1.3,2.3,1.1,3.6c2.2,0.1,4.1,2.2,4.1,4.4c0.6,0,1.2,0.5,1.3,1.1c0.1,0.6-0.2,1.3-0.7,1.6
				C39.6,148.4,40.7,149.3,41.7,149.6z"/>
			<path class="st4" d="M42.2,145.5c0.2,0.4,0.4,0.8,0.5,1.2c0.1,0.4,0.3,0.8,0.3,1.3c0,0.5-0.2,0.9-0.5,1.3
				c-0.3,0.3-0.8,0.5-1.2,0.6c-1,0.1-1.9-0.4-2.5-1c-0.6-0.6-1.1-1.4-1.6-2.1l0.4,0.1c-1.2,1.2-3.2,1.4-4.6,0.6
				c-1.4-0.9-2.2-2.7-1.7-4.4l0.1,0.3c-0.9-0.8-1.5-1.9-1.7-3.1c-0.1-1.2,0.3-2.4,1.1-3.3l0.2,0.5c-1-0.1-1.8-0.8-2.1-1.7
				c-0.3-0.9,0.1-1.9,0.8-2.5c0.7-0.6,1.8-0.6,2.6-0.2c0.8,0.5,1.2,1.3,1.6,2c-0.4-0.7-0.9-1.5-1.7-1.9c-0.7-0.4-1.7-0.2-2.3,0.3
				c-0.6,0.5-0.8,1.4-0.6,2.1c0.2,0.7,1,1.3,1.7,1.3l0.5,0.1l-0.4,0.4c-0.7,0.8-1,1.9-0.9,2.9c0.1,1,0.7,2,1.5,2.7L32,143l-0.1,0.2
				c-0.4,1.3,0.2,2.9,1.4,3.7c1.2,0.7,2.9,0.5,3.9-0.4l0.3-0.3l0.2,0.3c0.4,0.7,0.9,1.5,1.4,2.1c0.6,0.6,1.3,1,2.1,1
				c0.4,0,0.8-0.2,1.1-0.4c0.3-0.3,0.5-0.6,0.5-1.1c0-0.4-0.1-0.8-0.2-1.2C42.5,146.3,42.4,145.9,42.2,145.5z"/>
			<path class="st2" d="M33.9,134.9c0.6-0.6,1.6-0.8,2.5-0.7c0.9,0.1,1.7,0.6,2.3,1.3c0.6,0.7,1,1.5,1.3,2.4
				c0.2,0.9,0.3,1.8,0.2,2.7l-0.2-0.3c1.2,0.4,2.1,1.3,2.7,2.3c0.3,0.5,0.6,1.1,0.6,1.7c0,0.6-0.5,1.2-1.1,1.3
				c0.6-0.2,0.9-0.8,0.8-1.3c-0.1-0.5-0.3-1-0.7-1.5c-0.7-0.9-1.5-1.6-2.6-1.9l-0.2-0.1l0-0.3c0-0.8,0-1.7-0.2-2.5
				c-0.2-0.8-0.5-1.6-1.1-2.2c-0.5-0.6-1.2-1.1-2-1.3C35.5,134.4,34.6,134.4,33.9,134.9z"/>
		</g>
	</g>
	<path class="st7" d="M44.7,107.4l0.2-3.1L52,94.1l21.9,9.3l10.4-24.4l24-0.9l6.4-19.8l20.5,6.3l1.4,22.1l-5.5,20.7
		c0,0-12.6,20.1-13,20.1s-27.4-3.9-27.4-3.9l-11.5,15.1l-16.9-6.6l-14.8-14.5l-4.9-4.4L44.7,107.4z"/>
	<path class="st8" d="M44,59c-0.5-3.3,0.5-6.6,2.4-9.3c1.9-2.7,4.5-4.8,7.3-6.5c2.3-1.4,4.9-2.6,7.5-3c1.2-0.2,2.5-0.1,3.7-0.3
		c1.5-0.2,3.1-0.4,4.6-0.6c1.2-1.8,2.6-3.7,4.1-5.1c1.8-0.4,3.7-0.8,5.5-0.7c0.6-1.1,1.2-2,2.2-2.8c3.2,0.7,9.6,2,9.6,2l3.9,0.1
		c0,0,5.4,3.5,7.6,5.8c-1.3,2.2-2.9,4.3-4.6,6.3c0.5,1.4,1.1,2.9,1.8,4.2c1.4,0.4,2.8,0.7,4.2,1.1c-0.1,2.6-0.2,5.3-0.3,7.9
		c0.3-0.6,0.7-1.1,1-1.7c4.7,3.6,9.5,7,14.3,10.6c0.3,3.1,0.5,6.2,0.8,9.3c1.6,0,3.2,0.2,4.7,0.3c0.5,1.1,0.7,2.1,0.8,3.2
		c-1.7,2.6-3.7,5.2-5.4,7.8c0.2,0.2,0.3,0.5,0.5,0.7c-0.8,3.2-1.8,6.7-2.5,9.9c-1.4,1.3-2.7,2.6-3.9,4.1c-5.7-1.5-11.7-2.9-17.4-4.3
		c-1-2.1-2-4.4-3-6.5c0.4-0.8,0.8-1.7,1.2-2.5c-0.1-1.3-0.2-2.8-0.3-4.1c0.4-0.6,0.7-1.3,1.1-1.9c-3.4,1.9-6.5,4.1-9.4,6.8
		c-0.8,3.4-1.6,6.9-1.9,10.4c-3.2,4.4-6.2,8.9-8.8,13.7c-7.2-1.7-14-5-19.7-9.7c-1.6,0.8-3.4,1.4-5,2.2c-2.8-1.1-5.8-2.6-8.2-4.5
		c-2.7-2.2-5.2-9-5.2-9l1.5-6.9l-0.6-9.2c0,0,3.6-6.8,5.8-9.9C44.2,64.2,44.4,61.3,44,59z M44.1,113.3c-0.4-1.3-0.7-2.5-1.1-3.9
		c-0.8,2.1-1.4,4.3-1.7,6.5c1.4,3.3,3.2,6.5,5.5,9.3c-0.4,1.4-1,2.6-1.4,3.9c1.2,3,2.7,5.6,4.9,8.1c2.1,0.6,4.3,1,6.4,1.6
		c0.7,1.8,2.6,5.2,2.6,5.2l8,4.8c0,0,5.7,6.9,9.3,9.8c5.4,0.7,11.2,1,16.6,1.1c3.3-2.2,6.8-4.6,10-6.8c3.3,1.3,10,2.6,10,2.6
		s6.8-3.1,9.8-5.3c-1.1-0.7-2.4-1.4-3.6-2.1c4.4-5.8,8.1-12.4,10.7-19.1c-0.8-1.5-1.5-3.3-2.3-4.9c-4.8-2.2-10.1-4.9-14.9-7.1
		c0-0.3-0.3-0.8-0.3-1.1c-6.5-2.2-13.6-3.7-21.4-3c-4.8,4.6-7.8,9.7-9.2,14.9c-1.8-0.1-3.8-0.5-5.4-1.3c-0.3,2.3-0.7,4.3-0.4,6.6
		c-0.4,0.3-1,0.5-1.4,0.8c-2.6-2.1-5.2-4.9-6.7-7.9c-4.9-1.1-10.1-2.9-14.7-4.8c-0.1-1.3-0.4-2.6-0.5-4C50,116,47,114.5,44.1,113.3z
		 M161.4,86.7c-0.5-2.8-1.5-8.3-1.5-8.3s0.5-3.5,0.5-5.3c-1.8-1.6-3.5-3.3-5-5.2c0.1-1.7-0.5-5.1-0.5-5.1s-1.3-2.4-2-3.6
		c-2.5-4.4-5.1-8.7-7-13.4c-1.8-4.4-9.8-8.5-12.3-8.4c0,0-4.2-0.1-6.3,0.1c-1.5-0.7-4.6-1.3-4.6-1.3s-3,0.4-4.6,0.6
		c-1.5-0.9-4.6-2.4-4.6-2.4s-3.3-0.7-5-0.7c-2.6-1.9-5.6-3.2-8.7-4.1c-1.8,0.6-3.5,1.5-5,2.7c3.3,1.8,6.4,3.9,9.3,6.1
		c-1.3,2.2-2.7,4.3-4.4,6.2c0.1,0.7,0.3,1.3,0.6,1.8c1.9,0.7,3.8,1.4,5.7,2.1c-0.1,1.7-0.2,3.4-0.6,5.1c5.4,4,11.1,7.8,16.6,11.6
		c0.1,1.2,0.1,2.6,0.1,3.8c3.2,1.7,6.4,3.6,9.4,5.7c0.2,5.8-0.1,11.6-1.1,17.3c1.9,0.6,3.8,1.2,5.7,1.5c3.5-3.3,6.5-6.9,9.1-10.9
		c-0.4,1-0.9,2.1-1.2,3.1c3.6-2.1,7-4,10.6-6.1c-0.1,1.3-0.2,2.5-0.4,3.8c1.6,1.7,3.5,3.2,5.6,4.4C160.4,87.7,160.9,87.1,161.4,86.7
		z M131.8,122c1.1,3.5,1.7,7.5,1.6,11.3c-0.3-0.6-0.7-0.9-1.2-1.3c-3.5,5.1-6.6,10.6-9.8,15.9c0.4,0.4,1,1,1.4,1.5
		c3.8,0.5,7.8,1.5,11.5,2.8c5.8-1.1,11.3-4.4,14.9-9.1c-0.2-4.6,1.6-9,3.6-13.1c2-4.1,4.5-8.1,5.5-12.6c2.3-2.4,7.9-6.1,7.9-6.1
		s4-13.3,0.8-19.2c-2.1-1.2-4-2.6-5.9-4.1c-0.6,0.4-1.2,1-1.8,1.4c-3-0.7-5.7-1.8-8.3-3.4c-2.8,2-8.9,5.1-8.9,5.1s-3.4,4.3-4.4,6.8
		c0.2,0.9,0.3,1.8,0.5,2.7c-3.8-0.9-7.4-1.5-11.3-2c-3.7,4.9-6.6,10.6-8.3,16.5C123.1,117.3,128.1,119.7,131.8,122z"/>
	<path class="st9" d="M118,98.1c0.8-3.2,1.8-6.7,2.5-9.9c-0.2-0.2-0.3-0.5-0.5-0.7c1.7-2.6,3.7-5.2,5.4-7.8
		c-0.1-0.6-0.2-1.2-0.3-1.7c1,1.5,2.7,4.7,2.7,4.7l-4.7,7.9l-3.3,10.9c0,0-3.1,3.5-4.7,5.2c-7.4-1-14.7-2.7-21.7-5.1
		c-1.2-3.1-1.9-6.3-2.1-9.6c0.7-1.4,1.4-2.8,2.2-4.1c-1.9,1.3-3.7,3-5.4,4.7c0.1,3.6,0.3,7.3,0.4,10.9c-2.9,4.4-5.8,8.8-8.7,13.3
		c-8.4-1.2-16.5-4.9-23-10.3c-1.6,0.9-3.2,1.7-4.9,2.7c-2.7-0.9-5.4-1.9-7.1-4.1c-0.8-1.1-1.6-2.2-2.3-3.4c0.1,0.1,0.1,0.1,0.2,0.2
		c2.4,1.9,5.3,3.4,8.2,4.5c1.6-0.8,3.4-1.4,5-2.2c5.8,4.7,12.5,7.9,19.7,9.7c2.5-4.8,5.6-9.3,8.8-13.7c0.3-3.4,1.1-7,1.9-10.4
		c2.8-2.7,6-4.9,9.4-6.8c-0.4,0.6-0.7,1.3-1.1,1.9c0.1,1.3,0.2,2.8,0.3,4.1c-0.4,0.8-0.8,1.7-1.2,2.5c1,2.1,2,4.4,3,6.5
		c5.7,1.5,11.7,2.9,17.4,4.3C115.3,100.8,116.6,99.4,118,98.1z M123.8,149.3c-0.4-0.4-1-1-1.4-1.5c3.2-5.3,6.3-10.8,9.8-15.9
		c0.5,0.4,0.9,0.7,1.2,1.3c0.1-3.7-0.4-7.7-1.6-11.3c-3.6-2.3-8.7-4.7-12.4-6.9c1.7-5.9,4.6-11.6,8.3-16.5c3.9,0.4,7.5,1.1,11.3,2
		c-0.2-0.9-0.3-1.8-0.5-2.7c0.9-2.5,4.4-6.8,4.4-6.8s6.2-3.1,8.9-5.1c2.6,1.6,5.3,2.7,8.3,3.4c0.6-0.4,1.1-0.9,1.7-1.3
		c-0.2-0.4-0.4-0.8-0.6-1.1c-0.5,0.4-0.9,0.9-1.5,1.2c-2.1-1.1-4-2.6-5.6-4.4c0.1-1.3,0.2-2.5,0.4-3.8c-3.6,2.1-7,4-10.6,6.1
		c0.4-1,0.9-2.1,1.2-3.1c-2.5,4-5.6,7.7-9.1,10.9c-2-0.3-3.8-0.9-5.7-1.5c1-5.7,1.3-11.5,1.1-17.3c-3-2.1-6.1-4-9.4-5.7
		c0-1.2,0-2.6-0.1-3.8c-5.5-3.8-11.2-7.7-16.6-11.6c0.4-1.7,0.5-3.4,0.6-5.1c-1.9-0.7-3.8-1.4-5.7-2.1c-0.3-0.6-0.5-1.2-0.6-1.8
		c1.7-1.9,3.1-4.1,4.4-6.2c-2.9-2.2-6-4.3-9.2-6.1c0,0-0.1,0-0.1,0.1l0.1,0c0,0,5.4,3.5,7.6,5.8c-1.3,2.2-2.9,4.3-4.6,6.3
		c0.5,1.4,1.1,2.9,1.8,4.2c1.4,0.4,2.8,0.7,4.2,1.1c-0.1,2.6-0.2,5.3-0.3,7.9c0.3-0.6,0.7-1.1,1-1.7c4.7,3.6,9.5,7,14.3,10.6
		c0,0,0,0.1,0,0.1c0.5,0.1,0.9,0.1,1.4,0.2c0.2,1,0.4,2,0.8,2.9c2.7,2,5.3,4.3,7.6,6.7c-0.4,5.7-0.8,11.5-1.2,17.2
		c1.7,0.2,3.4,0.7,5.1,1.2c-2.2,0.1-4.5,0.5-6.7,0.5c-4.2,5.8-8,12-11,18.5c-0.2-0.6-0.6-1.1-0.8-1.7c-7.2-2.3-14.9-3.6-22.5-3.7
		c-3.9,3.6-7.1,8-9.2,12.8c-2.9-0.9-6-1.8-9-2.3c-0.2,2.6-0.3,5.1,0,7.7c-1.2-2.3-2.4-4.6-3.5-6.9c-4.8-1-9.7-2.2-14.6-3.2
		c-0.1-1.1-0.2-2.3-0.3-3.4c-3.1-1.1-6.4-2.4-9.6-3.5c-0.2-1-0.5-1.9-1-2.8c-0.6,0.7-1.1,1.5-1.6,2.3c0.4,1.2,0.6,2.3,1,3.5
		c2.8,1.2,5.9,2.6,8.8,3.9c0.1,1.3,0.4,2.6,0.5,4c4.7,1.9,9.8,3.7,14.7,4.8c1.5,3,4.2,5.7,6.7,7.9c0.4-0.3,1-0.5,1.4-0.8
		c-0.3-2.3,0.1-4.3,0.4-6.6c1.6,0.8,3.6,1.2,5.4,1.3c1.4-5.2,4.4-10.3,9.2-14.9c7.8-0.7,14.9,0.8,21.4,3c0,0.3,0.3,0.8,0.3,1.1
		c4.8,2.2,10.1,4.9,14.9,7.1c0.8,1.5,1.5,3.3,2.3,4.9c-2.7,6.7-6.4,13.3-10.7,19.1c1,0.6,2.1,1.3,3.2,1.9c0.5-0.2,0.9-0.3,1.4-0.6
		C124,149.3,123.9,149.3,123.8,149.3z M121.9,71.7c0,0-1.7-2.7-2.8-4.4c0.2,2.9,0.5,5.8,0.7,8.8c0.8,0,1.6,0.1,2.4,0.1
		C122.2,74.4,121.9,71.7,121.9,71.7z"/>
	<path class="st9" d="M57.3,42.2c2.7-0.8,5.5-0.8,8.2-0.2c0.9,2.4,0.5,5-0.4,7.4c-1.3,3.7-9.1,12.5-17.4,11
		c-0.8-0.2-1.6-0.3-2.2-0.7c-1-2.3-0.9-5.1,0.1-7.4c-0.4,2.1-0.2,4.6,0.5,6.6c3,0.6,6.1,0,8.9-1.4c1-0.5,2.2-1.4,3.4-2.5
		c3-2.6,5-6.2,5.4-10.1c0.1-0.7,0.1-1.3,0-1.9C61.8,42.4,59.6,42.1,57.3,42.2z M47.4,62.8c3.6,8,6.2,16.5,7.6,25.1
		c-0.6-7.7-0.9-15.8-1.5-23.5C51.4,64.2,49.3,63.9,47.4,62.8z M60.4,65.2c0.6,2.6,0.9,5.3,0.8,8c3.6,2.4,7,4.6,10.6,7
		C69.1,75.5,65.4,70.1,60.4,65.2z M66.3,59.2c0-2.3,0-4.5-0.4-6.8c-1.3,3.2-3.4,6-6.2,8.1c1.5-0.7,2.9-1.5,4.3-2.3
		c0,0.9,0,1.7,0,2.6c3.6,3.6,7.8,6.8,12.1,9.5C72.7,67.2,68.7,63.1,66.3,59.2z M67.4,46.6c0.1,1.4-0.1,2.9-0.6,4.3
		c3.9,1.8,7.9,3.3,12.1,4.2c-2.4-0.6-4.9-1.7-7-3.1c0.4-0.6,0.6-1.4,1.2-1.7c3.9-2,8.2-2.8,12.6-2.3C80.7,46.7,74.2,46.1,67.4,46.6z
		 M67.7,40.9c0.2,0.4,0.6,0.5,0.3,0.9c3.2,0,9.6,0,9.6,0s5.4-2.5,8.2-3.7C80.6,39.8,73.5,41,67.7,40.9z M135,39.2
		c-1.8-0.4-3.7-0.6-5.5-0.4c1.5,3.2,3.8,5.9,6.7,7.9s6.8,2.6,10.3,2.8c-0.4-1.2-1.1-2.2-1.7-3.4c-2.5,0.5-5.1,0-7.3-1.2
		c-2.2-1.2-4.1-2.9-5.9-4.6C132.2,39.5,133.6,39.2,135,39.2z M136.6,48.8c-0.4,2.1-0.9,5-1.5,7c0.8-1.6,1.9-3.2,3-4.7
		c0.8,0,1.5,0.5,1.9,1.2c0.4,0.6,0.7,1.4,0.9,2.1c0.8,3.1,1.4,6.2,1.2,9.4c0.2-4.1,0.5-8.4,0.7-12.5c0.8,0,1.8,0.1,2.6,0.1
		c1.8,3.6,3.6,7,5,10.7c-1.3-3.8-2.5-7.6-3.8-11.4C143.3,50.7,139.8,49.8,136.6,48.8z"/>
	<path class="st10" d="M50.1,110.3l6.4,2.4v3.1l13.8,2.9l1.4,2.1l0.6-2.4l9.3,2c2.5-5.1,5.5-9.5,9.3-12.6c7.3-1,14.9,0.4,22.8,3.1
		l2.4-1.8c-8.9-1.6-17.1-3.5-23.1-6.1c-1.4-2.3-2.4-5.2-3.3-8.3l0.2,9.5c-3.4,4.1-6.5,8.7-9.3,13.6c-10-1.3-18-4.5-23.5-10.1
		C55.3,109.1,52.8,109.8,50.1,110.3z"/>
	<polygon class="st10" points="126.5,87.3 123.9,90.9 122.2,98.6 125.5,95.1 127.1,95.1 126.3,93.8 	"/>
	<path class="st10" d="M123.5,73.6l0.4,1.6h1.3l1.9,4.6v-3.5C126.1,74.7,124.8,74,123.5,73.6z"/>
	<path class="st11" d="M45.1,116.6c0.9,2.5,2.9,4.7,5.4,5.8c-0.1,0.9-0.3,1.7-0.4,2.7c2,2.9,4.8,5.3,8.1,6.6c0.4-0.5,0.6-1.2,1-1.6
		c2.4,2,5,3.3,8,4.2c0.1,2.2,0,4.5-0.2,6.7c3.4,3.3,7.5,5.6,12.3,6c0.2-0.8,0-1.5,0.2-2.2c5.8-0.2,11.6-0.9,17.4-1.5
		c0.2,0.7,0.6,1.5,0.8,2.3c6.8-0.3,13.6-1.3,20.2-3c2.6-0.7,4.3-2.9,6.3-4.7c-1.5,3.7-3.6,6.9-6.3,9.9c0.7,0.7,1.3,1.7,2,2.4
		c-2.1,1.5-4.5,3-6.7,4.2c-3.1-1.1-6.4-2-9.5-3c-3.7,2.9-7.9,5.3-11.9,7.8c-2.4-0.1-5.2-0.3-7.6-0.4c0-2.1-0.4-4.3-0.9-6.3
		c-4-1-8.4-2.6-12.3-4.1c-0.2,0.2-0.6,0.3-0.9,0.5c-2-1.3-4.3-2.4-6.5-3.2c-0.8-1.7-1.8-3.9-2.6-5.7c0.7,0.1,1.2,0.1,1.9,0.2
		c-1.6-0.7-5.2-2.4-5.2-2.4s-4.7-0.8-7-1.1c-0.7-1.2-1.6-2.6-2.3-3.8c1-0.5,1.7-1.1,2.5-2c-1-1.1-1.9-2.8-2.9-3.9
		c0.1-0.6,0.2-1.3,0.3-1.9c-2.9-2.8-5-7-5.5-11C43.3,114.5,44.8,115.8,45.1,116.6z"/>
	<path class="st11" d="M89,83.9c-2.3,2.2-4.4,5.3-5.2,8.4c-0.8,2.8-1.9,5.4-2.7,8.3c-1.4,0.9-3.4,1.7-4.1,3.1
		c-1.2,2.4-3.2,4.4-5.5,5.7c-6.3-2-12.3-4.5-17.7-8.3c-1.3,1-2.3,2.1-3.7,2.8c-1.9-0.6-3.6-1.7-5-3.2c0.3-2.1,0.8-4.1,1.1-6.3
		c-0.6,1.7-1.4,3.6-2.4,5.1c-2-2-4.5-4.1-4.4-6.9c0.1-2.2,1.3-4.1,1-6.2c-0.4-3.4-1.4-9.8-1.4-9.8s3-6.3,5.3-8.9
		c-0.1,5-0.2,10.6,0.2,15.5c0.7-2.1,1.7-4.9,2.2-7.1c1.2,3.8,3.2,7.3,5.5,10.5c-0.1,2.4-0.1,4.9-0.2,7.3c1.3-2,2.4-3.6,3.6-5.6
		c1.4,1.1,2.9,1.8,4.3,2.9c0.6-1.8,1.4-4,1.9-5.8c3.7,2.5,8.3,3.6,12.8,3.4C79.4,88.8,85.5,86.8,89,83.9z"/>
	<path class="st11" d="M97,84.2c-0.3,1.4-0.4,2.8-0.4,4.2c-0.5,0.8-1.1,1.5-1.6,2.2c0.9,1.8,1.8,3.7,2.7,5.5
		c5.3,1.2,10.4,2.4,15.8,3.6c0.9-0.8,1.8-1.8,2.7-2.6c0.6-2.6,1.4-5.6,2-8.2c-0.6-0.1-1.3-0.6-1.6-1.1c2.4-2.5,4.7-5.1,7.1-7.6
		c0-0.8-0.3-1.6-0.6-2.4c-0.9-0.1-2.1-0.3-3-0.4c-1.5,4.1-5.2,7.3-9.4,8.5S100.4,86.8,97,84.2z"/>
	<path class="st11" d="M139.3,71.9c1.1,0.7,2.6,0.5,3.7-0.3c1.1-0.8,1.8-2,2.2-3.2c1-2.4,1.7-5,1.3-7.6c1.3,2.7,3.1,5.6,4.4,8.3
		c0.9-2.7,1.2-5.7,0.7-8.5c0.7,1,1.7,2.4,2.3,3.4c0,1.7,0.2,3.5,0.2,5.2c1.7,1.4,3.6,3.4,5.2,4.8c-0.2,1.6-0.4,3.4-1.1,4.9
		c0.4,2.1,0.8,4.3,1.6,6.3c-0.3,0.2-0.5,0.7-0.8,0.9c-1.2-1.1-2.4-2.2-3.6-3.3c-0.3-1.4-0.6-2.9-0.5-4.4c-0.5,0-0.7-0.3-1.2-0.1
		c-2.4,1.1-4.5,2.2-6.9,3.3c-0.7-0.5-1.1-0.9-1.8-1.3c-2.9,4.3-6.2,8.3-9.7,12.1c-1-0.4-2.1-1.2-3.1-1.6c0.5-5.8,0.8-11.6,0.6-17.5
		c-3.3-1.9-6.3-3.4-9.7-4.9c0.2-0.9,0.3-1.8,0.5-2.6c3.7,0.2,7.4-1.4,10.1-3.9C136.3,64.6,137.9,68.6,139.3,71.9z"/>
	<path class="st11" d="M161.6,90.9c-0.5,3.6-0.7,7.2-0.5,10.8c2,0.5,4.1,0.3,6.2,0.1c0,2.7-0.4,5.3-1.1,7.9
		c-2.5,1.2-5.1,2.4-7.6,3.7c-0.7,3.6-2,6.5-3.1,10c-0.4,0-0.9-0.2-1.3-0.1c-1.1,4.3-3.2,8.1-5.5,11.8c0.4,2.4,0.3,4.8,0.2,7.1
		c-3.8,3.6-8.7,6.5-13.5,8.4c-2.7-1.6-6.3-2.7-9.4-2.9c0-0.7-0.3-1.6-0.4-2.3c-0.1-1.9,1.6-3.4,2.8-5c1.4-1.9,2.8-4,3.8-6.1
		c3.4,1.4,7.2,2,10.9,1.6c0.5-0.8,1-1.7,1.1-2.6c-1.8-0.5-3.6-1.6-5.4-2.1c4.2-4.4,7.5-9.9,9.6-15.6c0.9,0.4,1.8,0.5,2.8,0.5
		c2.9-5.5,4.9-11.6,6-17.7c0.7,0.2,1.3-0.2,2-0.4c0.2-2.2-0.4-4.7-1.4-6.7c0.1-0.3-0.1-0.9,0-1.2C159,90.5,160.2,90.9,161.6,90.9z"
		/>
	<path class="st12" d="M71.7,38.6l3-3.6l5.2-0.5c0,0,1.3-1.8,2.1-2.5c2.8,0.3,8.3,1.4,8.3,1.4l4.7,0.3c0,0,3.7,3,5.3,4.7
		c-0.7,2-1.8,3.8-3.2,5.4c0.3,1.7,0.7,3.7,1.4,5.3c1.4,0.4,2.7,0.9,4.1,1.3c0.1,2.9,0.2,5.8,0.3,8.8c0.6-0.4,1.3-0.9,1.9-1.3
		c4.2,2.9,8.3,6.1,12.2,9.4c-3.9-2.4-7.9-4.8-11.7-7.2c-1.3,0.5-2.7,0.8-4,1.3c-0.2-3.1-0.9-5.9-1.5-8.9c-2.1-0.7-4.2-1.2-6.2-1.9
		c0.9-0.8,2.1-2.6,2.1-2.6s-0.1-1.7-0.3-2.5c-2.3-0.2-4.7-0.2-7,0c2.4-0.9,4.2-2.6,5.7-4.5c-0.8-1.2-1.8-2.3-2.8-3.4
		c-1.7,0.6-3.3,1.3-4.9,2.2c0.6-1,0.9-2.3,1.1-3.4c-2.7,0.2-8.3,1-8.3,1s-6.3,2.2-9.7,2.7C70.2,39.6,71.7,38.6,71.7,38.6z"/>
	<path class="st12" d="M97,32.6c1.1-0.5,2.2-1,3.2-1.5c2.5,0.5,6.9,3.2,6.9,3.2s4,0.8,6.1,0.9c1.8,0.1,3.2,1.6,4.6,2.7
		c1.7-0.4,3.5-0.7,5.2-0.8c1.1,0.5,2.2,1,3.3,1.6c0.5-0.1,0.9-0.2,1.4-0.2c-0.9,0.6-1.7,1.3-2.6,1.9c-1.8,0-3.7-0.3-5.5-0.7
		c-0.5,0.6-0.7,1.5-0.5,2.3c1.2,0.2,2.3,0.3,3.5,0.5c-1.3,0.4-2.9,0.8-4.3,1.2c0,0.5-0.1,1-0.1,1.5c-3.6-1.5-7.3-3.2-10.9-4.6
		c-0.8,0.9-1.8,1.9-2.4,3c1.4,1.3,3,2.1,4.7,3c-0.7,0.6-1.2,1-1.9,1.5c0.6,0.9,1.5,1.6,2.5,1.9c-0.7,0.6-0.8,1.5-0.4,2.3
		c0.4,0.8,1.2,1.3,1.9,1.9c2.7,2,5.5,4,8.2,5.9c1.2,0.9,1.8,2.3,2.8,3.5c-5.3-3.4-10.8-6.7-16-10c0.2-1.8,0.2-3.8-0.1-5.6
		c-1.8-0.7-3.7-1.4-5.6-1.7c-0.1-0.4-0.1-0.9-0.2-1.3c1.4-2.1,2.8-4.3,4.2-6.4C102.7,36.4,99.8,34,97,32.6z"/>
	<path class="st12" d="M48.9,129.7c-0.4,0.4-0.9,0.9-1.2,1.3c-0.6-0.7-1-1.6-1.2-2.4c0.2-0.6,0.5-1.3,0.8-1.8
		C47.7,127.8,48.2,129,48.9,129.7z"/>
	<path class="st12" d="M59.5,140.3c0.2,1.1,0.6,2.2,1.1,3.2c-0.3-0.1-0.6-0.2-1-0.3c-0.6-1.3-1.1-2.7-1.6-4.1
		C58.6,139.4,58.9,139.9,59.5,140.3z"/>
	<path class="st12" d="M70.1,150.1c2.2,2.8,4.8,5.3,7.6,7.6c-0.4-0.9-0.8-1.9-1.2-2.9c0.4,0,0.7,0,1.1,0.1c0.5,1,0.8,1.9,1.3,2.9
		c0-1.7,0-3.5,0-5.2C76.1,151.8,72.9,151.1,70.1,150.1z"/>
	<path class="st12" d="M162.8,90.3c-0.5,2.1-0.7,4.4-0.6,6.6c1.7,0.1,3.3,0.1,5-0.1c-0.5-0.2-1.1-0.5-1.6-0.6c0.1-0.4,0-0.9,0.1-1.3
		c0.5,0,1.1-0.1,1.5-0.1c0.2-0.8,0.2-1.6,0.1-2.3C165.8,91.9,164.1,91.1,162.8,90.3z"/>
	<path class="st12" d="M77.4,127.6c1.7,0.4,3.3,0.8,5,1.2c1.7-5.6,5.1-10.9,9.3-14.9c6.6,0.2,12.8,0.8,19.1,2.4
		c0.2,0.4,0.3,0.9,0.5,1.2c5.5,1.7,10.5,4.2,15.4,7.2c-5-1.8-10.1-3.4-15.2-4.9c-0.7,1-1.4,2.3-1.8,3.4c0.1-1.6-0.4-3.2-1.2-4.7
		c-4.2-0.4-8.5-0.5-12.7-0.5c0,1.6-0.2,3.4-0.2,5.1c-0.9-1.3-2-2.7-3.2-3.7c-2.2,1.7-4.4,3.3-6.3,5.4c0.1,0.6,0.1,1.3,0.3,1.9
		c-0.5-0.2-1-0.5-1.6-0.7c-0.7,1.7-1.4,3.3-2.1,5c-1.5-0.3-3.2-0.8-4.7-1c-0.3,1.6-0.6,3.3-0.9,4.8C77.3,132.6,77.3,130,77.4,127.6z
		"/>
	<path class="st12" d="M130.8,120.3c-3.1-2.3-6.4-4.3-9.8-6.2c1.9-5,4.3-9.8,7.5-14.1c3.7-0.1,7.3,0.5,10.7,1.8
		c0.3-0.3,0.5-0.4,0.8-0.7c-0.1-1.1-0.2-2.3-0.3-3.4c1.1-2,2.4-3.8,3.8-5.5c2.1-2.5,5.6-3.5,8.4-5.2c1.4,0.6,2.6,1.2,4,1.9
		c-1.6-0.1-3.6-0.1-5.2-0.1c0.1,0.5-0.1,1.1,0,1.5c-0.4-0.2-1.1-0.4-1.5-0.6c-1.6,0.7-3.1,1.7-4.3,3c0.2,1.7,0.5,3.6,1,5.3
		c-0.6-0.1-1.4-0.1-2-0.2c-0.6,1.1-1.1,2.1-1.7,3.2c0.3,0.9,0.5,1.9,1,2.7c-0.9-0.1-2.2-0.1-3.1-0.2c-0.2,0.6-0.4,1.3-0.6,1.8
		c-0.3-0.6-0.6-1.3-0.8-1.8c-2.4-0.1-4.8-0.1-7.2,0c-0.5,0.7-1.2,1.3-1.7,2c0.8,1.7,1.8,3.5,2.9,5.1c-1.6-1-3.5-1.9-5.1-2.9
		c-0.2,0.4-0.6,0.6-0.8,1c1.2,1.7,2.6,3.3,4.2,4.6c-1.4,0.1-3.1,0.2-4.5,0.2c0.5,1.3,1,2.6,1.7,3.7c0.7-0.3,1.3-0.5,2-0.7
		c-0.1,0.4-0.4,0.8-0.6,1.2C130.3,118.2,130.4,119.7,130.8,120.3z"/>
	<path class="st12" d="M52.8,121.2c-0.2-1.1-0.4-2.1-0.6-3.3c-2.1-1-4.2-1.9-6.3-2.9c1.5,1.4,3,2.7,4.8,3.6
		C51.5,119.1,52.1,120.4,52.8,121.2z"/>
	<path class="st12" d="M53.9,122.1c4.4,2,9,3.5,13.8,4.6c2.1,3.1,4.6,5.8,7.4,8.4c-1.3-0.7-2.5-1.5-3.5-2.5c-0.3,0.2-0.8,0.3-1,0.6
		c0-0.5-0.1-1-0.1-1.4c-0.7-0.8-1.6-1.9-2.3-2.8c-1.1,0.1-2.4,0-3.5,0.1c0.1-0.3-0.1-0.5,0-0.8C60.9,126.8,57.4,124.2,53.9,122.1z"
		/>
	<path class="st9" d="M110.9,128.9c0.4-0.5,0.9-0.8,1.5-1.1c0.6-0.3,1.3-0.4,1.7-0.8c-1.6,0.2-3.2,0.3-4.8,0.3
		c0.5,1.1,1,2.3,1.4,3.4C110.4,130.3,110.5,129.4,110.9,128.9z M102.5,138c-0.1,1.2,0.2,2.5,0.7,3.6c0.2-1.4,0.4-2.7,0.6-4.1
		c1.5-0.7,4-1.7,5.4-2.7c1.6,0.4,2.2,0.8,3.8,1.3c-1-0.7-1.9-1.5-2.9-2.3c0.1-0.6,0.5-1.2,0.6-1.8c-2.2,1.8-4.8,3.3-7.4,4.5
		c-2.1-0.6-4-1.7-5.6-3.2C98.7,135.2,100.6,137.1,102.5,138z M103.2,135.4c2.5-0.6,4.9-2.1,6.3-4.3c-0.3-1.7-1-3.1-1.9-4.5
		c-1.1-0.4-2.4-0.7-3.6-0.8c-0.1-1.1-0.2-2.2-0.2-3.3c-0.3,1.1-0.5,2.3-0.8,3.4c-0.7,0.1-1.4,0.3-2,0.6c-0.5-1.4-0.9-2.8-1-4.3
		c-0.1,1.6-0.2,3.3,0,4.9c-1.1,0.6-2.2,1.4-3,2.4c-1.1,0.1-2.2,0.1-3.3,0.2c1,0.4,3,1.2,3,1.2S99.5,134.2,103.2,135.4z M103.4,134.9
		c-1.8-0.8-3.6-1.8-5.2-3c0-0.6,0.2-1.1,0.4-1.7c1.3-0.8,3.1-1.2,4.7-0.8c1.5,0.4,2.9,1.4,3.6,2.8c-0.2,0.7-0.8,1.4-1.4,1.8
		C105,134.5,104.1,134.7,103.4,134.9z"/>
	<path class="st11" d="M78.8,74.8c3.6-0.3,7.2-1.6,10.2-3.6c0.6,0.5,1.1,0.9,1.7,1.4c1.1-1.4,2.1-2.6,3.1-3.9
		c4.8,0.4,9.4,0.3,14.2-0.5c-2.2,1.8-4.7,3.3-7.4,4.3c0,0.7-0.1,1.3-0.1,2c1.1,0.3,2.1,0.5,3.2,0.4c-4.7,1.9-9.9,3.3-14.9,2.7
		c-0.2,0.5-0.9,0.6-1.2,1.1c-2.1-0.1-4.4-0.4-6.3-1c0-0.5,0-1.1,0-1.6C80.4,75.6,79.8,75.2,78.8,74.8z"/>
	<path class="st13" d="M160,78.4c0.2-1.7,0.5-3.5,0.6-5.3l0-0.1l-0.1-0.1c-1.7-1.6-3.3-3.3-4.7-5.1c0-0.8,0-1.6-0.1-2.4
		c-0.1-0.9-0.2-1.7-0.3-2.6l0-0.1l0-0.1c-1.6-3-3.4-5.9-5-8.9c-0.8-1.5-1.6-3-2.4-4.5c-0.4-0.8-0.7-1.5-1.1-2.3l-0.5-1.2
		c-0.2-0.4-0.4-0.8-0.6-1.2c-1-1.5-2.3-2.7-3.7-3.7c-1.4-1-2.9-1.9-4.5-2.6c-0.8-0.4-1.6-0.7-2.5-0.9c-0.4-0.1-0.9-0.2-1.4-0.2
		c-0.4,0-0.9,0-1.3,0c-1.7,0-3.3,0-5,0.1c-0.7-0.3-1.5-0.5-2.2-0.7c-0.8-0.2-1.5-0.4-2.3-0.6l-0.1,0l-0.1,0l-4.4,0.6l-4.4-2.3
		l-0.1,0l-0.1,0c-0.8-0.2-1.7-0.3-2.5-0.4c-0.8-0.1-1.6-0.2-2.4-0.3c-2.6-1.9-5.6-3.2-8.7-4.1l-0.1,0l-0.1,0c-1.8,0.6-3.5,1.5-5,2.7
		l-0.1,0l-0.2,0l-0.5,0l-0.9,0l-1.8,0l-9.6-2l-0.2,0l-0.2,0.1c-1,0.7-1.7,1.7-2.2,2.7c-1.8,0-3.6,0.4-5.3,0.7l-0.1,0l-0.1,0.1
		c-1.6,1.5-2.9,3.2-4.1,5l-5.2,0.6c-0.9,0.1-1.8,0-2.8,0.2c-0.9,0.1-1.9,0.3-2.8,0.6c-1.8,0.6-3.5,1.4-5.1,2.4c-1.6,1-3.1,2-4.5,3.3
		c-2.8,2.5-5,5.8-5.5,9.6c-0.1,0.9-0.2,1.9-0.1,2.9l0.2,1.4c0,0.4,0.1,0.9,0.1,1.3c0.1,1.7,0,3.5,0,5.3c-1.1,1.6-2,3.2-3,4.8
		c-1,1.7-1.9,3.4-2.8,5l-0.1,0.1l0,0.1c0.2,3.1,0.5,6.1,0.7,9.2l-1.4,6.9l0,0.1l0,0.1c0.6,1.6,1.4,3.2,2.2,4.7
		c0.4,0.8,0.9,1.5,1.3,2.2c0.5,0.7,1,1.4,1.7,2c0.7,1.2,1.5,2.4,2.4,3.4c-0.9-1.1-1.6-2.3-2.3-3.5l0,0l0,0c-0.6-0.6-1.1-1.3-1.6-2
		c-0.5-0.7-0.9-1.5-1.2-2.2c-0.8-1.5-1.4-3-2-4.6l1.6-6.8l0,0l0-0.1c-0.2-3-0.3-6.1-0.5-9.1c0.9-1.6,1.8-3.3,2.7-4.9
		c1-1.6,1.9-3.3,3-4.8l0.1-0.1l0-0.2c0-1.8,0.1-3.6,0-5.5c0-0.5-0.1-0.9-0.1-1.4l-0.2-1.4c-0.1-0.9-0.1-1.7,0.1-2.6
		c0.5-3.5,2.6-6.6,5.2-9c1.3-1.2,2.8-2.2,4.3-3.2c1.5-0.9,3.2-1.7,4.8-2.3c0.8-0.3,1.7-0.5,2.6-0.6c0.9-0.1,1.8-0.1,2.7-0.1l5.5-0.7
		l0.2,0l0.1-0.2c1.2-1.8,2.4-3.5,4-5c1.8-0.4,3.5-0.7,5.3-0.7l0.3,0l0.1-0.3c0.5-1,1.1-1.8,1.9-2.5l9.4,2l0.1,0l0.1,0l1.9,0l0.9,0
		l0.5,0l0.2,0l0.1,0l0.1,0l0,0l0,0l0,0c0,0,0.1,0,0.1,0c0,0,0.1,0,0.1-0.1l0,0c1.4-1.1,3-2,4.6-2.5c3,0.9,5.9,2.1,8.4,3.9l0.1,0.1
		l0.2,0c1.6,0.1,3.3,0.4,4.9,0.7l4.5,2.3l0.2,0.1l0.2,0l4.5-0.6c0.7,0.2,1.5,0.3,2.2,0.5c0.7,0.2,1.5,0.4,2.2,0.7l0.1,0.1l0.1,0
		c1.6-0.2,3.3-0.2,5-0.1c0.4,0,0.8,0,1.3,0c0.4,0,0.8,0.1,1.1,0.2c0.8,0.2,1.6,0.5,2.3,0.9c1.5,0.7,3,1.5,4.3,2.5
		c1.3,1,2.6,2.1,3.4,3.5c0.2,0.3,0.4,0.7,0.6,1l0.5,1.2c0.3,0.8,0.7,1.6,1.1,2.3c0.8,1.5,1.6,3,2.4,4.5l2.5,4.4l2.5,4.4
		c0.1,0.8,0.3,1.6,0.4,2.4c0.1,0.8,0.2,1.7,0.2,2.5l0,0.2l0.1,0.1c1.5,1.9,3.2,3.5,5,5c0,1.7-0.2,3.4-0.4,5.1l0,0l0,0l1.7,8.2
		L160,78.4z"/>
	<path class="st14" d="M169.3,96.7c-0.2-1.6-0.5-3.3-1.3-4.8l0,0l0,0c-2.1-1.1-4.1-2.5-6-4c1.8,1.5,3.7,3,5.8,4.2
		c0.7,1.4,1,3.1,1,4.6c0.1,1.6,0,3.2-0.2,4.8c-0.4,3.2-1.1,6.3-2,9.3c-1.4,0.9-2.7,1.8-4,2.8c-1.3,1-2.7,2-3.9,3.3l-0.1,0.1l0,0.1
		c-0.5,2.2-1.3,4.3-2.3,6.3c-1,2-2.1,4-3.1,6.1c-1,2.1-2,4.2-2.6,6.4c-0.7,2.2-1.1,4.4-1,6.7c-3.6,4.5-8.8,7.6-14.4,8.7
		c-3.1-1-6.2-1.9-9.4-2.4l0,0l-1.8-0.3l-0.3,0c0,0,0,0,0,0l0,0h0l0,0.1l-1.3,0.5l-1,0.4l0.6,0.3c-1.3,0.9-2.7,1.6-4.1,2.4
		c-1.6,0.8-3.2,1.6-4.8,2.4c-1.6-0.3-3.2-0.7-4.8-1.1c-1.7-0.4-3.3-0.8-4.9-1.4l-0.2-0.1l-0.2,0.1l-9.9,6.7
		c-5.4-0.1-10.9-0.4-16.3-1.1c-1.6-1.4-3.2-3-4.7-4.6c-1.5-1.6-3-3.3-4.4-5.1l-0.1-0.1l-0.1,0l-7.9-4.7c-0.9-1.6-1.8-3.3-2.5-5
		l-0.1-0.2l-0.2-0.1l-6.3-1.5c-2-2.2-3.5-4.9-4.7-7.7c0.3-1.2,0.9-2.5,1.3-3.8l0.1-0.2l-0.1-0.1c-2.3-2.7-4.1-5.8-5.6-9.1
		c0.1-1,0.4-2,0.7-3.1c0.1-0.5,0.3-1,0.5-1.5l0.5-1.6l0,0c0.4-0.8,0.9-1.6,1.5-2.4c-0.6,0.7-1.2,1.5-1.6,2.3l0,0
		c-0.2,0.4-0.4,1-0.6,1.5c-0.2,0.5-0.4,1-0.5,1.5c-0.3,1-0.6,2-0.8,3.1l0,0l0,0c1.4,3.3,3.1,6.4,5.2,9.3c-0.4,1.2-1,2.4-1.4,3.8
		l0,0.1l0.1,0.2c0.6,1.5,1.2,3,2.1,4.3c0.8,1.4,1.8,2.7,2.9,3.9l0.1,0.1l0.1,0l6.2,1.5c0.7,1.7,1.6,3.3,2.5,5l0.1,0.1l0.1,0.1
		l7.9,4.8c1.4,1.7,2.9,3.4,4.4,5c1.5,1.7,3.1,3.3,4.9,4.8l0.1,0.1l0.1,0c5.5,0.7,11.1,1,16.7,1.1l0.2,0l0.1-0.1l9.8-6.6
		c1.6,0.6,3.1,1,4.7,1.4c1.7,0.4,3.4,0.8,5.1,1.1l0.2,0l0.1-0.1c1.7-0.8,3.4-1.6,5-2.5c1.7-0.9,3.3-1.8,4.9-2.9l0.6-0.4l-0.2-0.1
		l0.3-0.1c3.7,0.6,7.4,1.5,11,2.7l0.1,0l0.1,0c6-1.1,11.4-4.5,15.2-9.2l0.1-0.1l0-0.2c-0.1-2.2,0.3-4.5,0.9-6.6
		c0.7-2.2,1.6-4.2,2.6-6.3c1-2,2.1-4,3.1-6.1c1-2,1.8-4.2,2.3-6.4c1.1-1.1,2.4-2.1,3.7-3.1c1.3-1,2.7-1.9,4.1-2.9l0.2-0.1l0-0.2
		c0.4-1.6,0.8-3.2,1.1-4.8c0.3-1.6,0.5-3.2,0.6-4.9C169.5,100,169.5,98.3,169.3,96.7z"/>
	<path class="st7" d="M130.2,128.9c-0.8-1.6-1.5-3.3-2.3-4.8l0,0c-5-2.3-10-4.6-15-7l-0.1-0.1l0-0.1c0-0.1-0.1-0.3-0.2-0.5
		c-0.1-0.2-0.2-0.4-0.2-0.6l0.2,0.2c-6.8-2.3-14.1-3.6-21.3-2.9l0.2-0.1c-2.1,2-4,4.3-5.6,6.8c-1.5,2.5-2.7,5.2-3.5,8l-0.1,0.3
		l-0.3,0c-1.9-0.1-3.8-0.5-5.6-1.3l0.5-0.3c-0.3,2.2-0.7,4.4-0.4,6.5l0,0.2l-0.2,0.1c-0.5,0.4-1.1,0.5-1.4,0.7l-0.2,0.2l-0.2-0.2
		c-1.3-1.1-2.6-2.3-3.8-3.7c-1.2-1.3-2.2-2.8-3-4.3l0.2,0.2c-5.1-1.1-10-3-14.7-4.9l-0.1,0l0-0.1c-0.1-1.3-0.4-2.6-0.5-4l0.1,0.1
		l-8.7-4l0,0l0,0l-1-3.9l1.1,3.9l0,0L53,117l0.1,0l0,0.1c0.1,1.3,0.4,2.6,0.6,3.9l-0.1-0.2c4.8,1.9,9.7,3.6,14.7,4.7l0.1,0l0.1,0.1
		c1.6,3,4,5.6,6.7,7.8l-0.4,0c0.5-0.4,1.1-0.5,1.4-0.8l-0.1,0.3c-0.3-2.3,0.1-4.5,0.3-6.7l0.1-0.5l0.5,0.2c1.6,0.8,3.5,1.1,5.3,1.2
		l-0.4,0.3c1.6-5.8,5-11,9.3-15l0.1-0.1l0.1,0c3.6-0.3,7.3-0.2,10.9,0.4c3.6,0.6,7.1,1.5,10.6,2.7l0.1,0.1l0,0.2
		c0,0.3,0.3,0.7,0.3,1.1l-0.1-0.2c5,2.4,9.9,4.8,14.8,7.3l0,0l0,0C128.8,125.6,129.4,127.3,130.2,128.9z"/>
	<g class="st1">
		<path class="st2" d="M104.9,56.3l14.3,10.5c0,0,0.1,0.1,0.1,0.1l0.8,9.2l-0.2-0.2c1.6,0,3.2,0.2,4.7,0.3c0.1,0,0.2,0.1,0.2,0.1
			c0.5,1,0.7,2.2,0.9,3.3c0,0.1,0,0.1,0,0.2l-5.4,7.9l0-0.3c0.3,0.3,0.3,0.6,0.5,0.7c0.1,0.1,0.1,0.1,0.1,0.2l0,0l-2.5,9.9
			c0,0.1,0,0.1-0.1,0.1c-1.4,1.3-2.7,2.6-3.9,4.1c-0.1,0.1-0.2,0.1-0.3,0.1l-17.4-4.3c-0.1,0-0.2-0.1-0.2-0.2l0,0l-3-6.5
			c-0.1-0.1,0-0.2,0-0.3c0.4-0.8,0.8-1.7,1.2-2.5l0,0.2l-0.3-4.1c0-0.1,0-0.2,0.1-0.2c0.4-0.6,0.7-1.3,1.1-1.9l0.5,0.5
			c-3.4,1.9-6.5,4.1-9.3,6.7l0.1-0.2c-0.8,3.4-1.6,6.8-2,10.3c0,0.1,0,0.1-0.1,0.1c-3.2,4.4-6.3,8.8-8.8,13.6
			c-0.1,0.1-0.2,0.1-0.3,0.1c-3.6-0.9-7.1-2.1-10.4-3.8c-3.3-1.6-6.5-3.7-9.3-6l0.1,0c-1.7,0.8-3.4,1.4-5,2.2c0,0,0,0-0.1,0
			c-2.9-1.2-5.7-2.7-8.1-4.6c2.5,1.9,5.3,3.3,8.2,4.5l-0.1,0c1.6-0.8,3.4-1.4,5-2.2c0,0,0.1,0,0.1,0c5.8,4.6,12.5,7.9,19.7,9.6
			l-0.3,0.1c2.5-4.8,5.5-9.3,8.7-13.7l-0.1,0.1c0.3-3.5,1.1-7,1.9-10.4c0-0.1,0-0.1,0.1-0.2c2.8-2.7,6-4.9,9.4-6.9
			c0.2-0.1,0.4,0,0.5,0.1c0.1,0.1,0.1,0.3,0,0.4c-0.4,0.6-0.7,1.3-1.1,1.9l0.1-0.2l0.3,4.1c0,0.1,0,0.1,0,0.2
			c-0.4,0.8-0.8,1.7-1.2,2.5l0-0.3l3,6.5l-0.2-0.2l17.4,4.4l-0.3,0.1c1.2-1.5,2.5-2.8,3.9-4.1l-0.1,0.1l2.6-9.9l0.1,0.2
			c-0.3-0.3-0.3-0.6-0.5-0.7c-0.1-0.1-0.1-0.2,0-0.3l0,0l5.4-7.8l0,0.2c-0.2-1.1-0.3-2.2-0.8-3.2l0.2,0.1c-1.6,0-3.2-0.3-4.7-0.3
			c-0.1,0-0.2-0.1-0.2-0.2l-0.7-9.3L119,67L104.9,56.3z"/>
		<path class="st2" d="M106.2,48.9c-0.1,1.7-0.2,3.4-0.5,5.1l0-0.1c2.8,1.9,5.6,3.8,8.4,5.7l8.3,5.8l0,0c0.1,0.1,0.1,0.1,0.1,0.2
			l0.1,3.8l-0.2-0.3c3.2,1.7,6.4,3.6,9.4,5.7c0.1,0.1,0.2,0.2,0.2,0.3c0.2,5.8-0.1,11.7-1.2,17.4l-0.2-0.3c1.9,0.6,3.7,1.2,5.7,1.5
			l-0.2,0.1c3.5-3.2,6.6-6.8,9.2-10.8c-2.5,4.1-5.5,7.8-8.9,11.1c-0.1,0.1-0.1,0.1-0.2,0.1c-2-0.3-3.9-0.8-5.8-1.4
			c-0.1,0-0.2-0.2-0.2-0.3l0,0c0.5-2.8,0.8-5.7,1-8.6c0.2-2.9,0.2-5.8,0-8.7l0.2,0.3c-3-2.1-6.1-4-9.3-5.7c-0.1-0.1-0.2-0.2-0.2-0.3
			l0,0l-0.1-3.7l0.1,0.2l-8.2-5.9c-2.7-2-5.5-3.9-8.2-5.9c0,0,0-0.1,0-0.1C105.8,52.3,106,50.6,106.2,48.9z"/>
		<path class="st2" d="M139,100.5c-3.8-0.7-7.6-1.3-11.4-1.7l0.3-0.1c-0.9,1.2-1.8,2.5-2.6,3.8c-0.8,1.3-1.5,2.7-2.2,4
			c-1.4,2.7-2.5,5.6-3.4,8.5l-0.1-0.4c2,1.2,4.1,2.4,6.1,3.5c2.1,1.2,4.1,2.3,6.1,3.7c-2-1.2-4.2-2.2-6.3-3.3
			c-2.1-1.1-4.2-2.1-6.3-3.3c-0.1-0.1-0.2-0.2-0.1-0.4c0.9-3,2-5.9,3.4-8.7c0.7-1.4,1.5-2.7,2.3-4.1c0.8-1.3,1.7-2.6,2.7-3.8l0,0
			c0.1-0.1,0.2-0.1,0.3-0.1C131.5,98.8,135.3,99.5,139,100.5z"/>
		<path class="st2" d="M151.9,85.9c-1.3,1.1-2.8,2-4.2,2.9c-1.5,0.9-3,1.7-4.5,2.5l0.1-0.1c-0.8,1.1-1.6,2.1-2.4,3.2
			c-0.8,1.1-1.6,2.2-2.1,3.4l0-0.1c0.1,0.9,0.2,1.8,0.3,2.8c-0.2-0.9-0.4-1.8-0.6-2.7c0,0,0-0.1,0-0.1l0,0c0.2-0.7,0.5-1.3,0.8-1.9
			c0.3-0.6,0.7-1.2,1-1.8c0.7-1.2,1.5-2.3,2.4-3.3c0,0,0.1-0.1,0.1-0.1l0,0l4.6-2.3C148.9,87.6,150.4,86.8,151.9,85.9z"/>
	</g>
	<g class="st1">
		<path class="st2" d="M56,29.5c1,5.6,3.9,10.9,8,14.9c-0.3,3.7-1.9,7.4-4.5,10.1c-2.6,2.7-6.4,4.1-10,4.6
			c-4.6-4.2-9.9-7.7-15.5-10.1c0.8-5.1,3.6-9.8,7.6-12.8C45.6,33.1,51.3,31.3,56,29.5z"/>
		<path class="st3" d="M53.5,58.1c-4.7-4.9-10.4-8.7-16.6-11.2c3.6-6.8,9.8-12.1,17.2-14.4c1.8,5.4,5.1,10.4,9.6,13.9
			C62.5,51.5,58.3,56,53.5,58.1z"/>
		<path class="st4" d="M47.7,33.9c3.3,6.5,8.3,12.1,14.4,15.9c-1.6,2.6-3.9,5.2-6.2,7.2c-4.2-6.5-10-11.9-16.9-15.5
			C41.2,38.1,43.8,35.4,47.7,33.9z"/>
		<g>
			<path class="st5" d="M12.3,62.5c1,1.2,2.8,1.7,4.4,1.5c1.6-0.2,3.1-0.8,4.5-1.6c3.9-2,7.8-4.6,9.3-8.7c3.1,0.1,6.3-0.2,9-1.7
				s4.8-4.5,4.7-7.6c3.3-0.2,6.4-1.9,8.3-4.5c1.9-2.6,3-5.9,2.2-9.1c4.2-0.6,8.1-3.4,9.9-7.3c0.7-1.4,1-3,0.8-4.6
				c-0.2-1.6-1-3.6-2.4-4.3c2.4-0.9,3.6-3.9,2.7-6.2c-0.9-2.3-3.8-3.7-6.2-3c-2.4,0.7-4.3,3.5-4.2,6c-1.7-2.2-4.9-3.3-7.6-2.5
				c-2.7,0.8-4.6,2.9-4.9,5.7c-2.9-1.8-6.6-2.5-10-1.7c-3.4,0.9-6.3,3.3-7.6,6.5c-1.3,3.2-0.4,6.5,1.8,9.3c-3.2-0.5-6.7,1.2-8.2,4.1
				c-1.6,2.9-1.2,6.2,1,8.7c-3.5-0.2-6.9,1.9-8.4,5.1s-0.9,7.2,1.5,9.7C11.7,57.5,11.2,61.3,12.3,62.5z"/>
			<path class="st6" d="M39.5,52c2.7-1.4,4.8-4.5,4.7-7.6c3.3-0.2,6.4-1.9,8.3-4.5c1.9-2.6,3-5.9,2.2-9.1c4.2-0.6,8.1-3.4,9.9-7.3
				c0.7-1.4,1-3,0.8-4.6c-0.2-1.6-1-3.6-2.4-4.3c2.4-0.9,3.6-3.9,2.7-6.2c-0.2-0.5-0.5-1-0.9-1.4c-0.9,1.1-2.2,1.9-3.6,2
				c-0.1,1.9-1.1,3.8-2.7,4.9c-1.6,1.1-3.4,1.3-5.2,0.7C53,15.7,52,16.7,50.8,17c-1.2,0.3-2.2,0.3-3.1-0.5c0.6,1.4,0.4,3.2-0.6,4.4
				c-0.9,1.2-2.1,1.8-3.7,1.6c2.8,1.3,4.7,4.2,4.9,7.3s-1.3,6.2-3.9,7.9c-2.6,1.7-5.8,2.4-8.6,1c0.1,2-1.3,4.1-3.3,4.7
				c-2,0.6-4.1,0-5.2-1.7c0,2.7-1.1,5.5-2.9,7.5c-1.5,1.7-3.7,2.9-5.9,2.7c-2.2-0.2-4.3-2.3-4-4.5c-1.2,1.3-2.5,2.9-3.8,4.7
				c0.3,1.6,1,3.1,2.1,4.3c-1.2,1.1-1.6,4.9-0.6,6.1c1,1.2,2.8,1.7,4.4,1.5s3.1-0.8,4.5-1.6c3.9-2,7.8-4.6,9.3-8.7
				C33.6,53.8,36.8,53.5,39.5,52z"/>
			<path class="st4" d="M63.1,14.7c1.8-0.8,2.8-2.7,2.8-4.5c0-1.9-1.3-3.5-2.9-4.1c-0.8-0.3-1.7-0.5-2.6-0.3
				c-0.8,0.1-1.6,0.5-2.3,1.1c-1.3,1.1-2.2,2.9-2.1,4.6L56,13l-1-1.3c-1.5-2-4.4-3-6.9-2.4c-1.2,0.3-2.4,1-3.2,1.9
				c-0.8,0.9-1.4,2.2-1.5,3.4l-0.1,0.8l-0.7-0.4c-2.1-1.3-4.6-2-7-1.9c-2.5,0-4.9,0.9-6.8,2.5c-1.9,1.5-3.3,3.7-3.6,6.1
				c-0.3,2.4,0.7,4.8,2.2,6.8l0.8,1L27,29.3c-2.9-0.5-6.1,1.1-7.6,3.6c-0.8,1.3-1.1,2.8-1,4.3c0.1,1.5,0.8,2.9,1.8,4l0.8,0.9
				l-1.2-0.1c-3.3-0.2-6.6,1.8-8,4.8c-0.7,1.5-0.9,3.2-0.7,4.8c0.2,1.6,0.8,3.2,1.9,4.5l0.2,0.3l-0.3,0.2c-0.6,0.5-0.9,1.5-1,2.3
				c-0.2,0.9-0.2,1.8,0,2.7c0.2,0.8,1,1.4,1.8,1.8c0.8,0.4,1.8,0.5,2.7,0.5c-0.9,0.1-1.9,0.1-2.8-0.3c-0.4-0.2-0.9-0.4-1.3-0.7
				c-0.4-0.3-0.7-0.7-0.9-1.2c-0.3-0.9-0.3-1.9-0.2-2.9c0.2-1,0.3-1.9,1.1-2.8l0,0.5c-1.2-1.3-2.1-3-2.4-4.8c-0.3-1.8,0-3.7,0.8-5.4
				c1.6-3.3,5.2-5.5,8.9-5.3l-0.4,0.8c-1.1-1.3-1.8-2.9-2-4.6c-0.2-1.7,0.2-3.4,1.1-4.9c1.7-2.9,5.2-4.6,8.6-4.1l-0.5,0.8
				c-1.6-2.1-2.7-4.7-2.4-7.5c0.3-2.7,1.9-5.1,4-6.8c2.1-1.7,4.7-2.7,7.4-2.7c2.7-0.1,5.3,0.7,7.6,2.1l-0.8,0.4
				c0.1-1.5,0.7-2.9,1.7-4c1-1.1,2.3-1.9,3.7-2.2c2.9-0.7,6.1,0.4,7.9,2.7l-0.9,0.3c-0.1-2.1,0.9-4.1,2.5-5.4
				c0.8-0.7,1.8-1.2,2.8-1.2c1-0.1,2.1,0.1,3,0.6c0.9,0.4,1.7,1.1,2.3,2c0.6,0.8,0.8,1.9,0.8,2.9C66.2,12.2,64.9,14,63.1,14.7z"/>
			<path class="st2" d="M16.7,64c1.5-0.2,2.8-0.8,4.1-1.5c1.3-0.7,2.6-1.5,3.8-2.3c1.2-0.9,2.4-1.8,3.3-2.9c1-1.1,1.7-2.3,2.2-3.7
				l0.1-0.2l0.3,0c3.1,0,6.2-0.3,8.9-1.7c1.3-0.7,2.4-1.8,3.2-3c0.8-1.3,1.2-2.7,1.2-4.2l0-0.5l0.5,0c3.1-0.2,6.1-1.8,8-4.2
				c1.9-2.5,2.9-5.7,2.2-8.8l-0.1-0.5l0.5-0.1c3.6-0.4,7-2.6,9-5.7c1-1.6,1.7-3.3,1.7-5.2c0-0.9-0.2-1.8-0.6-2.7
				c-0.3-0.9-0.9-1.7-1.7-2.1c0.9,0.4,1.5,1.2,1.9,2.1c0.4,0.9,0.6,1.8,0.7,2.8c0.1,1.9-0.5,3.8-1.5,5.5c-2,3.3-5.5,5.7-9.3,6.3
				l0.4-0.5c0.4,1.7,0.3,3.4-0.1,5c-0.4,1.6-1.2,3.2-2.2,4.5c-2,2.7-5.3,4.5-8.7,4.7l0.5-0.5c0.1,1.7-0.5,3.3-1.4,4.7
				c-0.9,1.4-2.1,2.5-3.6,3.3c-1.4,0.8-3,1.2-4.6,1.5c-1.6,0.2-3.2,0.3-4.7,0.2l0.3-0.2c-0.6,1.4-1.4,2.7-2.5,3.8
				c-1,1.1-2.2,2-3.5,2.8c-1.3,0.8-2.6,1.5-3.9,2.2C19.6,63.3,18.1,63.9,16.7,64z"/>
		</g>
	</g>
	<g class="st1">
		<path class="st2" d="M151.6,27.2c-3.8,5.7-6.3,12.4-7,19.2c-2.5,0.6-5.1,0-7.4-1.3c-2.2-1.2-4-2.9-5.7-4.8
			c5.2-4.1,9.2-9.6,11.5-15.7C145.9,25.4,148.9,26.4,151.6,27.2z"/>
		<path class="st3" d="M146.6,24.5c-3.4,6.6-7.6,12.8-12.6,18.4c1.7,1.8,4,2.9,6.4,3.3c2.5-7.2,5.6-14.3,9.1-21.1
			C148.8,24.9,147.4,24.7,146.6,24.5z"/>
		<path class="st4" d="M148,23.6c-3.3,7.3-7.6,14.2-12.7,20.4c0.9,1,2.1,1.6,3.5,1.7c2.7-7.7,6.4-15,10.5-22
			C148.9,23.6,148.4,23.6,148,23.6z"/>
		<g>
			<path class="st5" d="M144.2,17.3c0.8-2.2,3.1-3.8,5.4-3.6c2.3,0.2,4.4,2.1,4.8,4.4c1.6,0.4,3.3,1.5,4.2,2.9
				c0.9,1.4,1.1,3.2,0.7,4.8c1.2-0.4,2.8-0.1,3.7,0.8c0.9,0.9,1.1,2.4,0.6,3.6c-0.5,1.2-1.8,2-3.1,2c-1.3,0-2.5-0.8-3.5-1.6
				c-0.7,1.6-2.5,2.4-4.2,2.5c-1.7,0.1-3.5-0.7-4.8-1.8c-1.3-1.2-2.3-2.7-3-4.3c-1.9,0.4-3.8-0.3-5.4-1.3c-0.7-0.4-1.3-1-1.6-1.7
				c-0.3-0.7-0.1-1.7,0.5-2.1c-0.7-0.4-1.3-1.2-1.9-1.8c-0.5-0.5-1-1.2-1-2c-0.1-1.2,0.8-2.3,1.8-2.8c1.1-0.5,2.3-0.4,3.4,0
				C142,15.9,143.3,16.7,144.2,17.3z"/>
			<path class="st6" d="M136.4,16.2c-0.5,0.5-0.9,1.3-0.8,2c0.1,0.8,0.5,1.5,1,2c0.5,0.5,1.2,1.4,1.9,1.8c-0.6,0.5-0.8,1.4-0.5,2.1
				c0.3,0.7,0.9,1.3,1.6,1.7c1.6,1,3.6,1.6,5.4,1.3c0.7,1.6,1.7,3.1,3,4.3c1.3,1.2,3,1.9,4.8,1.8c1.7-0.1,3.5-0.9,4.2-2.5
				c1.1,0.8,2.2,1.5,3.5,1.6c1.3,0,2.5-0.8,3.1-2c0-0.1,0-0.1,0.1-0.2c0-0.2,0.1-0.4,0.1-0.7c-1.2-0.2-2.4-0.3-3.6-0.5
				c-1.3-0.2-2.7-0.3-3.9-0.9c-1.8-0.8-3.3-2.3-4-4.2c-3.1,1.4-7-0.2-8.6-3.2c-0.9,0.4-2,0.1-2.6-0.6c-0.6-0.7-0.6-1.9-0.1-2.7
				C140,16.4,138,15.9,136.4,16.2z"/>
			<path class="st4" d="M138.4,22c-0.6-0.3-1-0.8-1.5-1.3c-0.5-0.5-1-0.9-1.3-1.5c-0.3-0.6-0.4-1.4-0.1-2.1c0.2-0.7,0.7-1.2,1.3-1.6
				c1.2-0.8,2.8-0.8,4.1-0.3c1.3,0.4,2.5,1.1,3.6,1.8l-0.6,0.2c0.8-2.4,3.3-4.1,5.9-3.9c2.6,0.2,4.8,2.2,5.3,4.8l-0.4-0.4
				c1.8,0.4,3.4,1.5,4.4,3.1c1,1.6,1.2,3.5,0.7,5.3l-0.5-0.5c1.4-0.4,3-0.1,4,0.9c1,1.1,1.2,2.7,0.6,4c-0.6,1.3-2,2.1-3.3,2
				c-1.4-0.1-2.5-0.9-3.5-1.7c1.1,0.7,2.2,1.4,3.5,1.4c1.2,0,2.4-0.8,2.9-1.9c0.5-1.1,0.2-2.5-0.7-3.3c-0.8-0.8-2.2-1-3.2-0.6
				l-0.8,0.3l0.2-0.8c0.4-1.5,0.1-3.2-0.7-4.6c-0.8-1.3-2.3-2.3-3.8-2.6l-0.3-0.1l-0.1-0.3c-0.4-2.1-2.3-3.8-4.4-4
				c-2.1-0.2-4.3,1.2-5,3.2l-0.2,0.5l-0.4-0.3c-1.1-0.7-2.2-1.4-3.4-1.9c-1.2-0.4-2.5-0.5-3.6,0.1c-0.5,0.3-0.9,0.8-1.2,1.3
				c-0.2,0.6-0.2,1.2,0,1.8c0.2,0.6,0.7,1,1.1,1.5C137.5,21.1,137.9,21.7,138.4,22z"/>
			<path class="st2" d="M156.9,30.7c-0.4,1.3-1.6,2.2-2.9,2.6c-1.3,0.4-2.8,0.3-4.1-0.2c-1.3-0.5-2.4-1.4-3.3-2.4
				c-0.9-1-1.6-2.2-2.1-3.4l0.5,0.3c-1.9,0.3-3.7-0.3-5.2-1.2c-0.7-0.5-1.6-1-1.9-1.9c-0.4-0.8-0.2-2,0.6-2.5
				c-0.7,0.6-0.6,1.6-0.2,2.3c0.4,0.7,1.1,1.1,1.9,1.5c1.5,0.7,3.2,1.2,4.8,0.8l0.4-0.1l0.2,0.3c0.5,1.2,1.2,2.2,2,3.2
				c0.8,0.9,1.8,1.7,2.9,2.2c1.1,0.5,2.4,0.7,3.6,0.4C155.1,32.5,156.3,31.9,156.9,30.7z"/>
		</g>
	</g>
</g>
<g>
	<ellipse class="st15" cx="87.2" cy="91.7" rx="65.6" ry="65"/>
	<radialGradient id="SVGID_1_" cx="89.6281" cy="64.4421" r="80.2525" gradientUnits="userSpaceOnUse">
		<stop  offset="0" style="stop-color:#2FE6A9"/>
		<stop  offset="0.2376" style="stop-color:#2DE2A9"/>
		<stop  offset="0.4594" style="stop-color:#28D7A8"/>
		<stop  offset="0.6748" style="stop-color:#1EC4A8"/>
		<stop  offset="0.8851" style="stop-color:#11AAA7"/>
		<stop  offset="1" style="stop-color:#0898A6"/>
	</radialGradient>
	<path class="st16" d="M61.4,148.7c1.1-2.1,2.8-4,4-6c4.2,0,8.8,0.1,13.1,0.1c2.2-0.8,4.8-1.1,7-1.9c2.3,2.4,4.5,5.1,6.8,7.5
		c-0.6,1.7-0.9,3.8-1.4,5.5c2.2-0.2,5-0.6,7.2-0.8c1.4-3,2.2-6,2.9-9.2c-0.9-1.3-1.8-2.6-2.7-3.9c0.6-1.7,2.1-3.7,1.4-5.3
		c-1.6-3.4-3.2-7.3-5.7-10.1c1.5-2.9,3.4-5.8,4.9-8.7c-0.7-2-0.7-3.7-1.4-5.7c6.4-4.2,13.6-7.5,20.6-10.7c1.9,4.5,4.1,9.3,5.6,14
		c1.5-0.5,2.9-0.7,4.4-1.2c0.9-2.9,2.2-5.6,3.1-8.6c4.8-4.2,10.2-7.6,15.7-10.7c0.8,0.5,2.2,1.3,3.1,1.8c0.4-1.8,1.3-4.1,0.5-5.8
		c-1-2.2-2.9-3.7-4.7-5.2c-2.5,0-5.4,0.4-7.8-0.3c-4.7-1.3-8.9-3.5-13.1-5.9c1.2-2.2,2.3-4.8,2.9-7.3c-0.5-0.6-0.9-1.5-1.5-2.1
		c-4.6,1.1-9.4,1.1-14,0.4c-1.7-4.8-3.8-9.5-6.4-13.8c0.7-1.2,1.5-2.5,2.3-3.7c-1.5-2-2.9-4.2-4.4-6.1c1.9-2.7,4.1-5.5,6-8.2
		c-2.9-0.2-5.4-0.6-8.2-1.5c-0.5-1.2-0.5-2.5-0.6-3.8c-5.9-1.8-11.7-1.8-17.8-1.1c0.9,2.4,2.4,5.4,3.3,7.8
		c-0.9,4.2-1.9,8.3-2.7,12.5c-1.8,0.2-3.5,0.9-5.3,1.1c-0.7,2.5-1.2,4.8-1.8,7.2c-3.5-0.6-6.7-0.9-10.2-1.4c0,0.7,0,1.5,0,2.2
		c0.2,3.8-0.2,7.9-0.6,11.7c-3.4,2.4-6.9,4.8-10.3,7.2c0,1,0,2.4,0,3.5c2.4,0.2,5.3,0.9,7.6,1.1c1.2,5.1,2.2,10.3,2.4,15.5
		c-4.5,3.9-9.1,8.4-13.5,12.3c-0.5,4.3-1.6,8.4-2.9,12.5c-1.8,0.7-3.6,1.5-5.5,1.4c-0.4,2.9-0.8,5.7-1.2,8.5c-0.9-0.3-1.9-0.3-2.7,0
		C45,140.3,53.4,145.7,61.4,148.7z"/>
	<path class="st17" d="M89.4,41.2C79.2,41.3,68.8,45,61.8,52.5c-2.2,2.3-4.1,5.3-3.8,8.4c0.4,4.1,4.5,6.9,8.4,8.3
		c9.2,3.4,19.7,2.9,28.8-0.7c7.1-2.8,14.3-7.4,19.4-13.2c6.6-7.6-4.5-10.5-10.3-12.1C99.4,41.8,94.4,41.1,89.4,41.2z"/>
	<path class="st18" d="M36.5,99.1c11,19.9,33.7,32.6,56.4,31.5c22.7-1.1,44.1-16,53.1-36.8c-13.2,14.1-32.8,22.3-52.1,20.9
		c-19.3-1.4-37.7-11.9-48.8-27.7C42.5,90.7,39.2,95.4,36.5,99.1z"/>
	<path class="st18" d="M26.6,96c2.3,12.1,7.3,24.1,16.2,33.6c8.8,9.5,21.8,16.4,35.7,17.3c10.9,0.7,21.7-2.3,31.6-6.4
		c9.7-4,19.1-9.3,25.6-16.9c7.4-8.6,10.5-19.7,10-30.5c-0.5-10.8-4.4-21.3-9.9-31c1.5,6.9,2.2,12.9,1.3,19.8
		c-0.9,7-4.1,13.9-10,18.6c-6.5,5.2-15.9,7.2-24.6,6.3c-8.8-0.9-17-4.3-24.2-8.8c-12.4-7.7-22.3-18.6-28-31
		c-7.3-0.1-14.5,3.6-18.8,8.8S25.4,89.7,26.6,96z"/>
	<path class="st19" d="M51.1,102.8c1.1-0.9,2.1-1.8,3.2-2.7c-1.8-0.2-3.6-0.5-5.3-0.9c0.2,0.7,0.4,1.5,0.4,2.2
		C49.8,101.8,50.6,102.4,51.1,102.8z"/>
	<path class="st19" d="M48.2,99.1c0.2-0.1,0.4-0.2,0.6-0.4c0.1,0.2,0.1,0.3,0.2,0.5c1.8,0.3,3.5,0.6,5.3,0.9
		c1.3-1.1,2.5-2.2,3.8-3.2c-0.3-4.5-0.8-9-1.7-13.4c-3.3,0.2-6.2,0.6-9.3,1.3c-0.2,3.2-0.9,6.5-1.6,9.6c-1.5-6.6-2.9-13.2-4.4-19.8
		c-3.3-1.6-6.2-3.2-9.5-4.8c-1.3,0.2-2.6,0.5-3.9,0.7c4.6-2.6,9.8-5.2,14.8-6.8c1,0.4,2.1,1.2,2.9,1.9c0.6,2,1.2,4.4,1.7,6.4
		c1.5,0.7,3.4,0.9,5,1.3c2.3-2.1,5.2-4.1,7.7-5.9c0.4-2.3,0.9-4.7,1.3-7c-1.4-0.8-2.6-1.5-4-2.2c-0.4-1.1-0.5-2-0.9-3.1
		c-2-0.2-3.7-0.3-5.6,0.1c4-1.8,8.7-3.8,12.7-5.6c0.3,0.6,0.5,0.9,0.8,1.5c2.6-0.2,5.3,0,7.9-0.2c1.4-1.3,2.8-2.8,3.8-4.5
		c1-0.3,2.2-0.7,3.2-1c1.1-2.4,2.2-4.8,2.8-7.3c-1.7-3.9-3.5-7.7-5.7-11.4c-10.6,1.2-20.7,5.4-29.2,11.8c-5.6,0.4-11,1.7-16.4,3.5
		c-1.8,4.3-2.9,8.9-3.6,13.5c-4.2,1-8.1,2.6-11.9,4.6c0.5,4.6,1.6,9.3,3.4,13.6c-1.3,0.3-2.4,0.7-3.7,1.2c0.2,1.3,0.6,2.9,1,4.6
		C23.8,90.5,35.4,96.4,48.2,99.1z"/>
	<path class="st20" d="M22.9,107.9c0,0.1,0,0.1,0.1,0.2c-0.2,1-0.6,3.1-0.6,3.1s3.6,11.5,6.6,16.7c2.9,0.8,6,1.5,8.9,2
		c0.6-2.1,1.2-4.2,1.6-6.3C33.4,119.1,27.8,113.8,22.9,107.9z"/>
	<path class="st21" d="M140.7,64c-3.8-2.2-8-4-12.4-4.6C131.9,51,134.1,42,135,33c0.9,0.2,1.7,0.5,2.3,0.8c0.4,3.9,1.2,7.9,2.6,11.6
		c2,1.5,3.7,2.9,5.7,4.4c1,3.1,1.9,6.3,2.9,9.4c2.5,8,5,15.8,5.6,24.2c-0.9-0.1-1.9,0-2.8-0.1c-1.2-2.4-2.7-4.8-4.6-6.6
		c-2.3,0.5-4.6,1-6.9,1.4c-2.5-0.8-5-2.1-7.2-3.5c0.6-1.6,1-3.1,1.6-4.7C136.5,68,138.6,66.1,140.7,64z M44.7,118.4
		c0.7-2.5,1.3-5.3,1.3-7.9c-1.2-1-2.2-2.1-3.2-3.3c0.3-0.7,0.6-1.4,0.9-2.1c-0.4-0.8-0.5-1.5-0.9-2.3c1.6-1.5,3.4-2.7,5.4-3.8
		c-12.7-2.7-24.4-8.6-32.4-19.9c1.7,6.5,4.5,14.4,4.5,14.4s1.1,9.6,2.7,14.3c4.9,5.9,10.5,11.2,16.6,15.7c0.2-1.2,0.4-2.4,0.5-3.6
		C41.6,119.7,43.3,119.1,44.7,118.4z M152.1,110.8c0.6-2.6,1.1-5.1,1.4-7c-1.6-2.1-4.1-3.3-6.7-3.7c-4,2.1-10.9,7.7-10.9,7.7
		s-3.3,7.4-4.8,11.1c-2.5,0.9-5.2,1-7.8,0.6c-0.4-3.4-3.1-9.7-3.1-9.7s-2.6-2.2-4.3-2.9c-3.3,1.3-6.2,3.3-9,5.5
		c0.7,3.3,1.5,6.7,2.5,10c-1.4-0.4-2.8-0.8-4.2-1.1c-1,2.6-1.6,5.2-1.9,8c2.8,2.5,5.7,5.7,8,8.6c-1.4-0.8-2.9-1.1-4.3-1.8
		c-0.4,1.2-0.8,2.4-1.2,3.6c0.1,0.2,0.3,0.5,0.5,0.7c5.4-0.9,10.7-2.3,15.9-4.3C135.2,131.6,145.3,122.3,152.1,110.8z"/>
	<path class="st20" d="M122.1,136.3c-5.2,2-10.5,3.4-15.9,4.3c1.3,2.1,2.8,4.1,4.4,5.9c-1-0.3-2-0.5-3-0.3c-0.7,2.1-1.3,4.2-1.7,6.3
		c0.5,1.5,1.1,2.7,1.6,4.2c7-1.4,13.8-4,19.9-7.8c3.1,0.6,6.1,0.7,9.2,0.4c1.2-2.8,2.2-5.7,2.8-8.7c3.2-1.6,8.6-6.3,8.6-6.3
		l1.6-12.5c0,0,1.3-5.5,2.5-10.9C145.3,122.3,135.2,131.6,122.1,136.3z"/>
	<path class="st22" d="M80,148.2c-3.8-0.6-11.1-0.5-11.1-0.5s-1.6,1.3-3.3,2.7c6.4,4.8,16,6.8,22.6,1.9c-1.6-1.9-3.1-3.6-4.9-5.3
		C82.1,147.1,81.1,147.6,80,148.2z"/>
	<path class="st20" d="M65.7,150.4c-1.1,1-2.2,2-2.9,2.8c3.5,4.9,7.7,9.3,12.3,13c3.2-2.5,8.7-8.9,8.7-8.9s3.7-2.6,5.2-4.1
		c-0.3-0.3-0.5-0.6-0.7-0.9C81.7,157.2,72.1,155.2,65.7,150.4z"/>
	<path class="st19" d="M128.3,59.6c-0.3,0.8-0.7,1.6-1.1,2.5c0.1,0,0.2,0,0.3,0C127.7,61.2,128,60.5,128.3,59.6z"/>
	<path class="st19" d="M128.3,59.5C128.3,59.5,128.3,59.5,128.3,59.5C131.9,51,134.1,42,135,33c-4.3-1.1-10.2-1.5-10.2-1.5
		s-14-4.6-21.3-4.9c1.5,1,4.3,3,4.3,3l7.3,2.8c0,0,1.7,2.3,2.6,3.4c-2.2,2.3-3.9,4.9-5.3,7.7c1.2,2.2,2.4,4.5,3.9,6.5
		c-0.9,0.9-1.6,2-2.2,3.1c1.2,2.5,2.6,5.2,3.9,7.8c3,0.8,6.2,1.2,9.2,1.1c0.4-0.8,0.7-1.6,1.1-2.5C128.3,59.6,128.3,59.5,128.3,59.5
		z"/>
	<path class="st23" d="M116.3,50.1c-1.5-2-2.7-4.3-3.9-6.5c0.1-0.2,0.2-0.4,0.3-0.7c-1.4,0.6-2.9,1.2-4.4,1.8c0,0.1-0.1,0.1-0.1,0.2
		c0.6,2.7,1.7,5.3,3.2,7.6c1.7-0.6,3.3-1.3,4.6-2.2C116.2,50.3,116.2,50.2,116.3,50.1z"/>
	<path class="st23" d="M118,61c-1.2,1.6-2.4,3.2-3.8,4.5c3.9,1.3,7.8,2,11.9,1.8c0.9-1.7,1.2-3.4,1.2-5.2
		C124.2,62.2,120.9,61.8,118,61z"/>
	<path class="st23" d="M52.1,73.1c-1.5-0.4-3.4-0.6-4.8-1.2c0,0.1,0,0.1,0,0.2c0.2,0.9,0.6,2.4,0.6,2.4s3.2,2.2,5.1,2.9
		c0.5-0.3,1-0.7,1.5-1c-0.8-1.1-1.5-2.4-2.1-3.6C52.3,72.9,52.2,73,52.1,73.1z"/>
	<path class="st24" d="M60.2,57.6c-0.3-0.2-0.6-0.4-0.9-0.5c0.2-1,0.3-2.1,0.2-3.1c1-0.3,1.8-0.7,2.7-1.1c0.3,0.4,0.4,0.9,0.7,1.3
		c3.7,1,7.2,1.7,11,2c-0.9-1.9-1.7-3.7-2.3-5.6c-2.5,0.2-5-0.1-7.5,0.1c-0.3-0.6-0.5-0.9-0.8-1.5c-4,1.8-8.7,3.8-12.7,5.6
		c1.9-0.4,3.6-0.3,5.6-0.1c0.4,1,0.5,1.9,0.9,3C58.3,58,59.4,58.2,60.2,57.6z"/>
	<path class="st23" d="M57.1,57.9c0,0,0,0.1,0,0.1c0.9,0.5,1.7,1,2.6,1.4c1.2,0.2,2.5,0.3,3.7,0.4c-1-0.8-2.1-1.5-3.2-2.2
		C59.4,58.2,58.3,58,57.1,57.9z"/>
	<path class="st23" d="M76.5,49.9c1.9-0.7,3.8-1.4,5.8-1.9c-1.2-0.8-2.3-1.7-3.3-2.7c-1,0.3-2.1,0.6-3.1,1c-0.9,1.7-2.3,3.2-3.8,4.5
		c-0.1,0-0.2,0-0.4,0c0.6,1.9,1.4,3.7,2.3,5.6c0,0,0,0,0,0C75.2,54.3,76,52.2,76.5,49.9z"/>
	<path class="st23" d="M132.3,104.4c0,0-2.3,6.6-3.9,9.8c-1.8,0.9-3.8,1.6-5.9,2.1c0.3,1.2,0.6,2.3,0.7,3.2c2.6,0.4,5.3,0.3,7.8-0.6
		c1.6-3.7,4.8-11.1,4.8-11.1s0.1-0.1,0.4-0.3c-1.1-1.2-2.1-2.5-3.2-3.8C132.6,104.1,132.3,104.4,132.3,104.4z"/>
	<path class="st23" d="M45.4,94.4c0.7-3.1,1.3-6.4,1.6-9.6c0.5-0.1,1-0.2,1.5-0.3c0.2-1.9,0.1-3.7,0-5.6c-2.4-1.2-4.8-2.3-7.2-3.4
		C42.7,81.8,43.9,88.1,45.4,94.4z"/>
	<path class="st24" d="M140.7,64c-3.8-2.2-8-4-12.4-4.6c-0.1,0.5-0.3,0.9-0.4,1.4c3.7,1.4,6.9,3.4,10,5.9
		C138.8,65.8,139.8,64.9,140.7,64z"/>
	<path class="st24" d="M151.2,83.3c-1.2-2.4-2.7-4.8-4.6-6.6c-2.3,0.5-4.6,1-6.9,1.4c-0.7,1.5-1.6,2.9-2.8,4.1
		c0.8-0.1,6.6-0.8,9.6-1.6c2.3,2.9,4.1,5.9,5.9,9.1c0.6-1.9,1.1-5.1,1.2-6.4C153,83.3,152,83.3,151.2,83.3z"/>
	<path class="st24" d="M34.8,71.4c2.5-1.5,5-2.9,7.7-4.3c1.3,0.2,2.5,0.6,3.7,1.2c-0.3-1-0.5-2-0.8-2.9c-0.8-0.7-1.9-1.5-2.9-1.9
		c-5,1.7-10.2,4.2-14.8,6.8c1.3-0.2,2.6-0.5,3.9-0.7C32.6,70.3,33.7,70.8,34.8,71.4z"/>
	<path class="st24" d="M83.2,142.6c-1.5,0.8-2.8,1.6-4.2,2.3c-3.8-0.6-11.3-0.4-11.3-0.4l-3.6,3.1c0,0-1.2,3.6-1.5,5.5
		c0.1,0,0.2,0,0.3,0.1c0,0,0,0,0,0c1.8-2.1,6.1-5.6,6.1-5.6s7.3-0.1,11.1,0.5c1.1-0.6,2.1-1.1,3.4-1.2c2,2,3.7,3.9,5.5,6.1
		c0.3-1.1,0.7-2.2,1-3.4C88.1,147,85.8,144.6,83.2,142.6z"/>
	<path class="st23" d="M106.5,121.6c1,0.3,1.9,0.5,2.9,0.8c-1-3.3-1.8-6.7-2.5-10c0.1-0.1,0.2-0.2,0.3-0.3c-1.1-0.3-2.2-0.8-3.2-1.4
		c-0.2,0.4-0.3,0.8-0.5,1.2c0.4,2,1.2,4.1,1.6,6.2c-0.9-0.2-1.7-0.2-2.6-0.1C103.9,119,105.3,120.1,106.5,121.6z"/>
	<path class="st24" d="M107,136.2c1.5,0.6,2.9,1,4.3,1.8c-2.3-2.9-5.2-6-8-8.6c-1.3-0.3-2.6-0.6-3.9-1.1c0,0.3,0,0.6-0.1,0.9
		c1.6,1.3,2.9,3,3.8,4.8c-0.7,2-0.8,4-1,6c1,0.9,1.9,2.1,2.5,3.4c-1,2.4-1.9,4.9-2.9,7.3c0.3,1.5,0.6,3.2,0.9,4.7
		c1.5,0.7,3.1,1.1,4.8,1.3c-0.5-1.5-1-2.7-1.6-4.2c0.5-2.1,1.1-4.3,1.7-6.3c1.1-0.1,2,0.1,3,0.3c-1.8-2-3.5-4.3-4.9-6.6
		C106.2,138.6,106.6,137.4,107,136.2z"/>
	<path class="st25" d="M82.3,48c-1.2-0.8-2.3-1.7-3.3-2.7c0,0,0.1,0,0.1,0c1.1-2.4,2.2-4.8,2.8-7.3c-1.7-3.8-3.4-7.4-5.5-11
		c3.1,3.7,6.2,7.8,8.8,11.9C84.4,41.9,83.6,45,82.3,48C82.3,48,82.3,48,82.3,48z"/>
	<path class="st25" d="M117.7,35.9c-0.9-1.1-2.6-3.4-2.6-3.4l-7.3-2.8c0,0-2.2-1.5-3.7-2.6c-0.5,0.2-1.3,0.4-1.8,0.6
		c0.8,1.8,1.4,3.5,2.1,5.3c3.1,1.2,6.2,2.2,9.3,3.5c-1.6,2.9-3.5,5.6-5.3,8.4c1.5-0.6,3-1.2,4.4-1.8
		C114.1,40.3,115.7,37.9,117.7,35.9z"/>
	<path class="st25" d="M117.9,61c-1.2-2.5-2.6-5.2-3.9-7.8c0.6-1,1.2-2,2-2.9c-1.4,0.9-3,1.6-4.6,2.2c0.1,0.2,0.2,0.3,0.3,0.5
		c-0.7,0.7-1.2,1.4-1.7,2.3c1.5,3.2,2.7,6.5,3.4,10c0.2,0.1,0.5,0.2,0.7,0.2C115.6,64.1,116.8,62.6,117.9,61C118,61,118,61,117.9,61
		z"/>
	<path class="st25" d="M64.1,60.2c-0.2-0.1-0.4-0.3-0.6-0.4c-1.2-0.1-2.5-0.2-3.7-0.4c0.5,0.3,0.9,0.5,1.4,0.8
		c-0.4,2.3-0.9,4.7-1.3,7c-2.4,1.8-5.1,3.6-7.4,5.6c0.6,1.2,1.3,2.5,2.1,3.6c3.3-2.2,6.4-4.5,9.5-7.1C64.3,66.2,64.2,63.3,64.1,60.2
		z"/>
	<path class="st25" d="M146,95.2c-4.2,1.8-10.6,6.7-12.8,8.5c1.1,1.3,2.1,2.6,3.2,3.8c1.5-1.2,7.1-5.6,10.5-7.4
		c2.5,0.4,5,1.6,6.6,3.6c0.1-0.3,0.3-0.6,0.4-0.8C152,99.6,149.3,96.9,146,95.2z"/>
	<path class="st25" d="M139.8,78.1c-2.5-0.8-5-2.1-7.2-3.5c0.6-1.6,1-3.1,1.6-4.7c0.2-0.1,0.4-0.3,0.5-0.4c-1.9,0.7-3.8,1.2-5.7,1.6
		c-0.1,2-0.8,3.8-1.7,5.6c2.9,2.4,9.6,5.7,9.6,5.7s0,0,0.1,0C138.2,81,139.1,79.6,139.8,78.1C139.8,78.1,139.8,78.1,139.8,78.1z"/>
	<path class="st25" d="M103.3,129.3c0.4-2.8,0.9-5.4,1.9-8c0.4,0.1,0.8,0.2,1.3,0.3c-1.2-1.6-2.6-2.6-4-3.5c-0.1,0-0.2,0-0.3,0.1
		c-1.6,3.1-2.5,6.6-2.8,10.1C100.7,128.8,102,129.1,103.3,129.3C103.3,129.4,103.3,129.3,103.3,129.3z"/>
	<path class="st25" d="M116.3,103.1c-4,1.2-7.5,2.9-11,4.9c-0.4,1-0.8,1.9-1.2,2.8c1,0.5,2.1,1.1,3.2,1.4c2.7-2.1,5.5-4,8.6-5.2
		c1.6,0.6,4.3,2.9,4.3,2.9s0.3,0.6,0.6,1.5C119.9,108.3,118.6,105.3,116.3,103.1z"/>
	<path class="st25" d="M61.9,86.8c-1.8-0.8-3.7-1.7-5.4-2.7c0.9,4.1,1.3,8.3,1.6,12.5c1.6,0.8,3,1.7,4.3,2.6
		C62.2,95,62,91,61.9,86.8z"/>
	<path class="st23" d="M58,96.6c0,0.1,0,0.2,0,0.3c-2.3,1.9-4.7,4-7,5.9c-0.1,0-0.1-0.1-0.2-0.1c0.8,0.8,1.7,1.5,2.5,2.4
		c3.4-1.2,6.4-3.1,9-5.5c0-0.1,0-0.2,0-0.3C61,98.3,59.6,97.3,58,96.6z"/>
	<path class="st24" d="M50.4,102.3c-0.4-0.3-0.8-0.6-1.1-0.9c0.1-0.9-0.2-1.9-0.5-2.7c-2.1,1.1-4.2,2.5-6,4.2
		c0.4,0.8,0.5,1.5,0.9,2.3c-0.3,0.7-0.6,1.4-0.9,2.1c1,1.1,2,2.3,3.2,3.3c-0.1,2.6-0.7,5.4-1.3,7.9c-1.4,0.7-3.1,1.3-4.7,1.7
		c-0.3,3.3-1.2,6.6-2.2,9.8c-2.9-0.5-6-1.2-8.9-2l6,4.2c1.8-0.1,3.5,0.2,5.3,0c1.1-2.9,1.9-5.8,2.1-8.9c1.8-0.4,3.5-0.9,5.3-1.3
		c0.6-4.1,1.2-8.2,1.8-12.3c-1.4-0.9-3-1.7-4.5-2.6C46.6,105.2,48.4,103.6,50.4,102.3z"/>
	<path class="st26" d="M49.6,38.9c-1.2,5-4.7,9.3-8.8,12.3c-3.4-2.3-6.5-5-9.3-8.1C36.9,41,43.8,39.2,49.6,38.9z"/>
	<path class="st26" d="M29.7,62.4c-0.5-2.2-1.4-4.3-3.1-5.9c-3.3,0.7-6.5,1.9-9.6,3.4C20.7,61.7,25.7,62.9,29.7,62.4z"/>
	<path class="st26" d="M20.6,80.1c-1.7-1.2-3.2-2.7-4.4-4.4c1.1-0.4,1.8-0.9,2.9-1.3C19.8,76.4,20,78.2,20.6,80.1z"/>
	<path class="st26" d="M123.8,33.5c3.2,0,6.3,0.4,9.4,1.1c-1.3,4.4-4.7,8.6-8.9,10.4C123.4,41.2,123.3,37.2,123.8,33.5z"/>
	<path class="st26" d="M80,37.1c-0.3,1.7-0.8,3.2-1.6,4.7c-5.5,1.5-11.3,1.6-16.9,0.3c-1.6-0.4-3.3-0.9-4.7-1.9
		c-1.4-1-2.4-2.7-2.4-4.4c5.6-3.9,12.1-6.5,18.9-7.5C75.5,31,78.3,34.1,80,37.1z"/>
	<path class="st26" d="M49.4,57.6c0,4.2,1.8,8.3,4.9,11.2c1.6-1.7,3.6-3.3,5-5.1c-0.2-0.7-0.4-2.1-0.6-2.8c-1.1-0.7-2.6-1.6-3.7-2.3
		c-0.2-0.8-0.3-1.8-0.5-2.6C53.1,56,50.5,56.9,49.4,57.6z"/>
	<path class="st26" d="M47.5,92.2c-0.1-1.9,0.2-3.9,0.8-5.7c2-0.4,3.8-0.8,5.9-0.9c-0.1,1.2,1.1,2.1,0.7,3.3c-0.3,0.7-1,1-1.6,1.3
		C51.6,90.8,49.2,91.7,47.5,92.2z"/>
	<path class="st27" d="M17.2,80.6c1.3,4.6,3.1,9,5.2,13.3c2.7,5.2,1.5,11.6,2.9,17.3c1.2,4.6,2.9,9.4,5.7,13.3c1.8,0.7,3.3,2.3,5,3
		c0.4-2.7,1.1-5.4,1.5-8.1c1.9-0.8,3.4-1.9,5.3-2.7c0.6-1.7,0.8-3.5,0.5-5.3c-0.2-1.3-1.8-2.9-2.5-4c-1-1.6-0.2-4.1,0.2-6
		c0.3-1.7,2.2-2.5,3.3-3.8c0.1-1.8-0.6-3.8-1.6-5.3C32.8,93.2,24,87,17.2,80.6z"/>
	<path class="st27" d="M107.6,124.5c-0.5,1.8-0.8,3.6-0.7,5.5c1.9,2.1,4,4.3,6,6.4c0.1,1.9,0.1,3.5-0.3,5.4
		c-1.6-0.4-3.1-1.3-4.2-2.6c-0.6,0.2-0.8,0.7-0.7,1.3c0.1,0.6,0.5,1.2,0.9,1.7c1,1.3,2.2,2.5,3.4,3.6c-1,1.1-2.1,1.9-3.6,2.3
		c-0.6,2.2-0.3,4.7,0.7,6.8c6.2-2.3,12.6-5.3,18.6-8c2.7,0.4,5.3,0.6,8,0.4c1.4-2.5,2.3-5.6,2.7-8.4c2.6-1.2,4.7-2.9,6.9-4.7
		c2.6-9.2,4.9-19.1,5.9-28.5c-1.2-1.1-2.7-2.2-4.2-2.6c-3.4,1.5-6.3,3.2-9,5.7c-2.9,2.6-3,8.1-4.2,11.8c-3.5,1.5-7,2.3-10.7,2.9
		c-1.4-3.8-3.1-7.5-5.1-11.1c-0.8-1.4-2.6-1.9-4.2-1.6c-1.6,0.4-2.9,1.4-4.2,2.4c1.2,4,2.4,8.1,3.7,12.1
		C111.3,124.9,109.4,124.8,107.6,124.5z"/>
	<path class="st27" d="M134.7,39c-2,6.1-4.3,12.1-6.9,18c5.7,0.2,11.7,2.8,15.6,7c-2,2.9-4.1,5.2-6.7,7.5c-0.1,0.9-0.1,1.1-0.2,2.1
		c1,0.5,2,1.3,2.9,1.8c2.3-0.5,4.5-1.1,6.7-1.6c2.1,1.5,3.9,3.1,5.4,5.1c-2.3-8.8-4.5-17.9-6.8-26.7c-1.7,0.8-3.7,1.4-5.4,2.2
		c0-2.6-0.3-5.1-0.3-7.7C139.1,43.5,135.8,41.9,134.7,39z"/>
	<path class="st27" d="M65.6,154.1c1.3-1.7,2.8-3.3,4.4-4.6c3.4,0.2,6.7,0.4,10.1,0.3c0.9,0,1.8-0.8,2.7-1c1.6,1.3,3,2.8,4.4,4.3
		c-1.9,1.2-3.9,2.6-5.5,4.2c-2.4,2.5-5,4.8-7.2,7.5C72.1,161,68.8,157.1,65.6,154.1z"/>
	<path class="st17" d="M94.2,79.7c-0.9,0.6-1.9,1.2-2.6,2c-0.7,0.9-1.1,2-0.9,3.1c0.3,1.2,1.4,2.1,2.7,2.5c1.2,0.3,2.5,0.2,3.8,0.2
		c2.7-0.2,5.4-0.4,8-1.1c2.1-0.6,4.1-1.5,5.6-2.9c3.1-3,3.6-9.6-1.7-10.3C104.1,72.4,98.1,77.3,94.2,79.7z"/>
	<g>
		<path class="st4" d="M153.5,83.4L153.5,83.4C153.5,83.4,153.5,83.4,153.5,83.4z"/>
		<path class="st4" d="M154.2,83.5l0-0.1c-0.3-5.8-1.6-11.5-3.1-17.1c-0.8-2.8-1.6-5.6-2.4-8.3c-0.8-2.8-1.7-5.5-2.5-8.3l-0.1-0.2
			l-0.1-0.1l-5.6-4.3c-1.3-3.6-2.1-7.5-2.5-11.3l0-0.3l-0.3-0.1c-1-0.5-2.1-0.8-3.1-1c-1.1-0.3-2.1-0.4-3.2-0.6
			c-2.1-0.3-4.2-0.5-6.3-0.7c-3.5-1.1-6.9-2.1-10.5-3c-1.8-0.4-3.6-0.9-5.4-1.2c-1.8-0.3-3.6-0.6-5.5-0.7l-1.7,1.6
			c-8.1-1.8-16.5-2.1-24.7-0.8l-0.2-0.3l-0.2-0.4l-0.2-0.3l-0.4,0c-10.6,1.2-20.8,5.4-29.4,11.8c-5.6,0.5-11.1,1.7-16.4,3.5
			l-0.2,0.1L30,41.5c-1.8,4.3-2.9,8.7-3.6,13.2c-4.1,1-8,2.6-11.7,4.6l-0.3,0.2l0,0.4C15,64.4,16,68.8,17.7,73
			c-1.1,0.3-2.1,0.6-3.2,1.1l-0.4,0.2l0.1,0.4l1,4.9c0.4,1.6,0.9,3.2,1.3,4.8c0.9,3.2,2,6.3,3.1,9.4c0.3,2.4,0.6,4.9,1.1,7.3
			c0.4,2.4,1,4.8,1.8,7.1l-0.5,3l0,0.1l0,0.1c1,2.9,2,5.7,3.1,8.5c0.6,1.4,1.1,2.8,1.7,4.2c0.6,1.3,1.2,2.5,1.9,3.8l0.1,0.3
			c0,0,0,0,0,0L29,128l0,0l6,4l0,0h0l0.9,0l-0.9,0l-5.4-3.9c0,0,0,0,0.1,0c0.1-0.1,0-0.1,0-0.1c0,0-0.1-0.1-0.1-0.1l0,0l0,0l0,0
			l-0.1,0l-0.1,0l-0.2-0.1c-0.7-1.3-1.3-2.7-1.9-4c-0.6-1.4-1.1-2.8-1.6-4.2c-1-2.8-1.9-5.6-2.8-8.4l0.6-3l0-0.1l0-0.1
			c-0.7-2.3-1.2-4.7-1.6-7.1c-0.4-2.4-0.8-4.8-1.1-7.3l0-0.1l0-0.1c-1.1-3.1-2.1-6.2-3.1-9.4c-0.5-1.6-0.9-3.2-1.3-4.7l-0.9-4.4
			c1.1-0.4,2.1-0.8,3.2-1l0.6-0.2l-0.2-0.6c-1.7-4.1-2.8-8.6-3.3-13c3.6-1.9,7.4-3.5,11.4-4.4l0.4-0.1l0.1-0.4
			c0.7-4.5,1.8-8.9,3.5-13.1c5.2-1.7,10.6-2.9,16-3.4l0.2,0l0.1-0.1c8.3-6.2,18.3-10.4,28.6-11.6l0.1,0.1l0,0l0,0l0,0l0,0l0.3-0.2
			c0,0,0,0,0,0l0,0l0.6-0.4L76,27.3l0.5,0.6l0.2,0.2l0.3,0c8.5-1.3,17.2-1,25.6,1l1,0.3l-0.4-1L103,28l1.2-0.4l0.8-0.3
			c1.2,0.1,2.5,0.3,3.7,0.6c1.8,0.3,3.5,0.7,5.3,1.2c3.5,0.9,7,1.9,10.5,3l0.1,0l0.1,0c2.1,0.1,4.2,0.4,6.3,0.7
			c1,0.2,2.1,0.4,3.1,0.6c0.9,0.2,1.8,0.5,2.7,0.8c0.5,3.8,1.2,7.7,2.6,11.4l0.1,0.1l0.1,0.1l5.6,4.3c0.8,2.7,1.6,5.4,2.5,8.1
			c0.9,2.8,1.8,5.5,2.7,8.3c1.7,5.5,3.1,11,3.6,16.8l-0.3,0l-0.1,0l0,0l0,0l0,0c0,0,0.1-0.1-0.1,0.1c0,0.1,0,0.1,0,0.1l0,0l0,0l0,0
			l0,0c0,0,0,0,0,0h0l0,0h0c0,0,0,0,0,0l0,0l0.1,0l0.1,0c-0.2,1.9-0.5,3.8-0.9,5.7c0.5-1.9,0.9-3.8,1.1-5.7l0.2,0L154.2,83.5z"/>
	</g>
	<path class="st28" d="M154.2,102.8l-0.1-0.1l-1.6-2.4c0.2-1.8,0.3-3.7,0.4-5.5c0.1-1.9,0-3.8-0.1-5.6c0,1.9,0,3.8-0.1,5.6
		c-0.1,1.9-0.4,3.7-0.7,5.6l0,0.1l0.1,0.1l1.4,2.3l-0.3,0.7l-0.1,0.2l0.1,0.2l-1,4.3c-0.3,1.5-0.7,3-1,4.5l-2,8.9l0,0l0,0l-1.6,12.3
		c-1.3,1.1-2.6,2.2-4,3.2c-1.4,1.1-2.9,2.1-4.4,2.9l-0.2,0.1l-0.1,0.2c-0.6,2.8-1.6,5.6-2.7,8.3c-2.9,0.2-5.9,0.1-8.8-0.4l-0.2,0
		l-0.2,0.1c-6,3.7-12.6,6.3-19.5,7.7l0,0c-1.5-0.2-3-0.5-4.4-1.1l0-0.2l-0.1-0.6l-0.6,0.1c-2.9,0.7-5.8,1.2-8.7,1.5
		c-1.5,0.1-2.9,0.2-4.4,0.3c-1.5,0.1-2.9,0-4.4,0l-0.2,0l-0.2,0.1l-1,0.7l-0.1,0l0,0c-1.4,1.6-2.7,3.1-4.2,4.6
		c-1.3,1.4-2.7,2.8-4.1,4c-4.5-3.6-8.5-7.9-11.9-12.6l-0.1-0.1l0.1-0.7l0.1-0.5l-0.4-0.2c-2.6-1-5.1-2.2-7.6-3.6
		c-2.4-1.4-4.9-2.8-7.1-4.4c-4.6-3.2-8.8-7-12.4-11.4c3.4,4.5,7.5,8.5,11.9,12c2.3,1.7,4.6,3.4,7.1,4.7c2.4,1.3,4.8,2.5,7.3,3.5
		l-0.2,0.8l0.4,0.6l0.1,0c3.5,4.8,7.6,9.2,12.3,12.9l0.3,0.3l0.3-0.3c1.7-1.4,3.1-2.9,4.6-4.4c1.4-1.5,2.8-3,4.2-4.6l0.8-0.6
		c1.4,0,2.9,0.1,4.3,0c1.5,0,3-0.1,4.5-0.3c2.8-0.3,5.6-0.7,8.3-1.4c0,0,3.3,1.4,4.9,1.6l0.5,0.1c7-1.4,13.8-4,19.9-7.7
		c3,0.6,6.1,0.6,9.2,0.4l0.3,0l0.1-0.3c1.2-2.8,2.1-5.6,2.8-8.5c1.6-0.9,2.9-1.9,4.3-2.9c1.4-1.1,2.8-2.2,4.2-3.4l0.2-0.1l0-0.2
		l1.6-12.5l2.1-8.9c0.4-1.5,0.6-3,0.9-4.5l0.8-4.5l0-0.2l-0.1-0.1l0.3-0.6L154.2,102.8z"/>
	<g>
		<path class="st29" d="M12.2,46.5c-1.9-1.6-2.6-4.7-1.5-6.9c1.1-2.3,3.9-3.7,6.4-3.1c1-1.5,2.8-2.7,4.6-3.1
			c1.8-0.3,3.7,0.2,5.2,1.3c0-1.4,1-2.9,2.3-3.4c1.3-0.5,2.9-0.2,3.9,0.8c1,1,1.3,2.6,0.8,3.9c-0.5,1.3-1.8,2.2-3,3
			c1.3,1.4,1.5,3.5,0.9,5.3c-0.6,1.8-2.1,3.2-3.8,4.1c-1.7,0.9-3.6,1.2-5.5,1.3c-0.4,2-1.8,3.7-3.4,5c-0.7,0.5-1.5,0.9-2.3,1
			c-0.9,0-1.8-0.5-2-1.4c-0.7,0.5-1.8,0.9-2.5,1.2c-0.8,0.3-1.6,0.5-2.4,0.2c-1.2-0.4-2-1.7-2.1-3c0-1.3,0.6-2.5,1.4-3.5
			C9.8,48.3,11.1,47.3,12.2,46.5z"/>
		<path class="st29" d="M122.5,17.4c-1.3,2.2-0.9,5.3,1,7c1.3,1.1,3,1.6,4.7,1.7c1.7,0.1,3.9-0.1,5.5-0.4c1,1.9,3.2,3,5.3,2.6
			s3.8-2.1,4.2-4.1c0.3-2.1-0.8-4.3-2.6-5.3c-0.8-0.5-1.6-0.7-2.5-0.3c0.1-1.4-0.3-2.8-1.2-3.9c-0.8-1.1-2.2-1.8-3.6-1.8
			c-1.4,0-2.8,0.9-3.3,2.1C127.7,14.1,123.9,15.2,122.5,17.4z"/>
		<path class="st29" d="M8.2,114.3c0.3,1.1,0.8,2.1,1.8,2.6c1.1,0.7,2.6,0.7,3.8,0.3c1.7-0.5,3.1-1.6,4.2-2.9
			c2.9,0.1,5.9-0.7,7.9-2.7c2.1-2,3.3-5.3,1.8-7.7c3.4-0.3,6.4-3.2,7.2-6.5c0.8-0.2,1.3-1.1,1-1.9c-0.3-0.8-1.4-0.9-2.1-0.5
			c-0.3-1.3-1.6-2-2.8-2.3c-1.9-0.5-4-0.3-5.8,0.6c-1.8,0.9-3.3,2.4-4.1,4.3c-0.6-0.9-1.6-1.4-2.7-1.5c-1.1-0.1-1.8-0.1-2.6,0.7
			c-2.9-1-6.5,0.4-7.9,3.2c-1.4,2.8-0.4,6.5,2.2,8.3C8.9,109.8,7.8,112.6,8.2,114.3z"/>
		<path class="st29" d="M79.4,83.6c0.5,0.9,1.6,1.4,2.6,1.4c1,0.1,2.1-0.2,3-0.5c2.7-0.9,5.4-2,6.9-4.5c2,0.4,4,0.5,5.9-0.1
			c1.9-0.6,3.5-2.3,3.8-4.3c2.1,0.2,4.3-0.5,5.8-1.9c1.5-1.4,2.5-3.5,2.4-5.5c2.8,0.1,5.5-1.3,7.1-3.6c0.6-0.8,1-1.8,1-2.8
			c0-1-0.2-2.4-1.1-3c1.6-0.3,2.7-2.1,2.4-3.7c-0.3-1.6-2-2.8-3.6-2.6c-1.6,0.2-3.1,1.8-3.3,3.4c-0.8-1.6-2.7-2.6-4.5-2.4
			c-1.8,0.2-3.2,1.4-3.7,3.1c-1.7-1.5-3.9-2.3-6.2-2.1c-2.2,0.2-4.4,1.4-5.6,3.3c-1.2,1.9-0.9,4.1,0.1,6.1c-2-0.7-4.4,0-5.7,1.7
			c-1.3,1.6-1.4,3.8-0.3,5.6c-2.2-0.5-4.6,0.5-5.9,2.3c-1.3,1.8-1.3,4.4-0.1,6.3C79.6,80.4,78.9,82.7,79.4,83.6z"/>
		<path class="st29" d="M13.8,152.3c0.8,1.1,2.4,2.1,3.8,2.2c-1.3,1.8-1.2,4.4-0.1,6.3c1.1,1.9,3.3,3.1,5.5,3.3
			c2.2,0.2,4.8-0.4,6.5-1.7c0.3,1,1.1,1.8,2.1,2.2c1,0.4,2.4,0,3.3-0.6c2.2,0.7,4.6,0.4,6.5-0.8c1.9-1.2,3.4-3.1,3.9-5.4
			c1.1,0,2.2-0.5,2.9-1.3c0.7-0.8,1.1-2.3,0.9-3.3c2.3,0.8,4.9,0.4,6.9-1c1.9-1.4,3.1-3.8,3-6.2c2.6,0.2,5.3-1.3,6.4-3.6
			c1.2-2.3,1.3-5.1-0.4-7.1c1.5-0.2,2.9-1.1,3.8-2.4c0.9-1.3,1.2-2.9,0.9-4.4c-0.2-1-0.7-2-1.6-2.5c-0.8-0.5-1.8-0.6-2.7-0.4
			c-2.1,0.4-3.9,2.2-4.1,4.4c-1.5-0.7-3.3-0.8-4.8-0.1c-1.5,0.7-2.8,2.1-3.2,3.7c0-0.8-0.7-1.6-1.6-1.7s-1.7,0.2-2.3,0.7
			c-0.6,0.6-0.9,1.5-1.2,2.3c-0.6-2.4-2.8-4.2-5.3-4.3c-2.4-0.1-4.6,1.7-5.3,4c-1.7-1.8-4.4-2.7-6.8-2.3c-2.5,0.4-4.7,1.8-5.9,4
			c-1.7-0.6-3.7-0.6-5.1,0.6c-1.9-1.7-4.7-2.1-7-1.1c-2.3,1-3.8,3.5-3.8,6c0.1,2.5,1.8,4.9,4.1,5.8
			C12.9,148.8,12.9,151.1,13.8,152.3z"/>
		<path class="st29" d="M140.2,63.8c-0.8,1-1.4,2.1-1.4,3.4c-0.1,1.2,0.8,2.3,1.8,2.9c-1.9,0.3-3.6,1.4-4.7,3c-1,1.6-1,3.7-0.5,5.5
			c-2.2,0-4.3,0.9-5.9,2.3c-1.6,1.4-2.4,3.7-2.7,5.9c-1.1-0.1-2.2,0.8-2.5,1.9c-0.2,1.1,0.3,2.3,1.3,2.9c0.9,0.7,2.1,1.2,3.2,0.9
			c2.3,1.5,5.2,1.9,7.9,1.2c2.6-0.7,5-2.5,6.2-4.9c2.4,1.2,5.5,0.6,7.2-1.5c2.4,0.7,5,0.5,7.3-0.5c2.3-1,4.2-2.8,5.4-5
			c1.3-2.5,1.8-6.3-0.2-8.3c2.8-1,4.9-3.8,5-6.8c0.1-3-1.7-6.4-4.5-7.5c1.8-2.6,2-6.3,0.4-9.1c-0.6-1.1-1.5-2.1-2.7-2.6
			c-1.2-0.5-2.3-0.5-3.3,0.4c-2-1.2-4.7-1.3-6.7-0.1s-3.2,3.4-3.3,5.7c-1.8,0.1-3.5,1.2-4.4,2.7c-0.9,1.5-1,3.5-0.3,5.2
			C141.9,62.2,141,62.9,140.2,63.8z"/>
		<path class="st29" d="M158.7,99.9c-0.8,0.9-1.5,2-1.6,3.2c-0.2,1.2,0.3,2.5,1.3,3.2c0.9,0.6,2,0.7,3.1,0.6
			c0.9-0.1,1.9-0.3,2.7-0.8c0.8-0.5,1.8-1.4,1.9-2.3c2.9,0.3,5.8-0.8,7.8-3c0.5-0.6,1-1.3,1.1-2.1c0.1-0.8-0.3-1.8-1.1-2.1
			c0.6-0.6,0.9-1.6,0.7-2.4s-0.5-2-1.3-2.4c1.1-1.1,1.2-2.9,0.5-4.2c-0.7-1.3-2.3-2.1-3.8-2.1c-1.5,0-3,0.7-4.1,1.8
			c-1.3,1.3-2,3-2,4.8c0,1.8,0.7,3.6,1.9,4.9C163.4,97,160.4,98.1,158.7,99.9z"/>
		<path class="st30" d="M173.8,96.6c0.6-0.6,0.9-1.6,0.7-2.4s-0.5-2-1.3-2.4c1.1-1.1,1.2-2.9,0.5-4.2c-0.3-0.6-0.8-1-1.3-1.4
			c0.7,1.5,0.5,3.4-0.5,4.7c-1,1.4-2.8,2.1-4.5,1.9c1,0.4,1.6,0.9,2.4,1.6c0.8,0.7,1.4,1.6,1.5,2.7c0,1-0.7,2.1-1.7,2.3
			c-1.3,1.4-3.8,1.7-5.2,0.5c-0.3,1.5-1.7,2.7-3.1,3.3c-1.3,0.6-2.9,0.6-4.2-0.1c0,0,0,0,0,0c-0.2,1.2,0.3,2.5,1.3,3.2
			c0.9,0.6,2,0.7,3.1,0.6c0.9-0.1,1.9-0.3,2.7-0.8s1.8-1.4,1.9-2.3c2.9,0.3,5.8-0.8,7.8-3c0.5-0.6,1-1.3,1.1-2.1
			C175,97.9,174.6,96.9,173.8,96.6z"/>
		<path class="st30" d="M59.1,145.9c2.2,0.2,4.4-0.9,5.7-2.6c-0.1,0.1-0.2,0.2-0.4,0.3c-1.5,0.9-3.5,1.4-5.1,0.7
			c1.3-0.4,2.4-1.4,3-2.6c0.6-1.2,0.6-2.6,0.1-3.8c-0.5,1.7-2,3-3.8,3.2c-1.7,0.3-3.3-0.3-4.3-1.8c-0.1,1.9-1.6,3.7-3.5,4.1
			c-1.7,0.3-3.5-0.4-4.4-1.7c0.1,0.5,0.1,1-0.1,1.4c-0.3,0.7-1,1.1-1.7,1.4c-1.2,0.5-2.7,0.4-3.9-0.1c-0.7-0.3-1.4-0.5-2-0.9
			c0.3,1,0.3,2.1,0,3.2c-0.4,1.6-1.5,3.1-2.9,4c-0.5,0.3-1,0.5-1.5,0.5c-0.5,0-1.1,0.4-1.3,0c0.3,1.1-0.4,2.5-1.5,2.9
			c-1.1,0.4-2.2-0.3-2.7-1.3c0.3,2.1-1.1,4.3-3.1,4.9c-2,0.6-4.4-0.4-5.4-2.3c-0.6-1.2-0.6-2.7-0.3-4c0.3-1.3,1.2-2.8,1.8-4
			c-0.7,0.1-1.4-0.4-1.7-1.1c-0.2-0.7-0.1-1.5,0.2-2.1c0-0.1,0.1-0.2,0.2-0.2c-1.4,1.1-3.5,1.5-5.2,0.8c-2.3-0.9-3.7-3.6-3.1-6
			c-1.1,0.8-2.1,1.8-3.1,2.8c0,0.1,0,0.2,0,0.3c0.1,2.5,1.8,4.9,4.1,5.8c-0.3,1.4-0.3,3.7,0.5,4.8c0.8,1.1,2.4,2.1,3.8,2.2
			c-1.3,1.8-1.2,4.4-0.1,6.3c1.1,1.9,3.3,3.1,5.5,3.3c2.2,0.2,4.8-0.4,6.5-1.7c0.3,1,1.1,1.8,2.1,2.2c1,0.4,2.4,0,3.3-0.6
			c2.2,0.7,4.6,0.4,6.5-0.8c1.9-1.2,3.4-3.1,3.9-5.4c1.1,0,2.2-0.5,2.9-1.3c0.7-0.8,1.1-2.3,0.9-3.3c2.3,0.8,4.9,0.4,6.9-1
			C58,150.7,59.2,148.3,59.1,145.9z"/>
		<path class="st30" d="M97.9,80c1.9-0.6,3.5-2.3,3.8-4.3c2.1,0.2,4.3-0.5,5.8-1.9s2.5-3.5,2.4-5.5c2.8,0.1,5.5-1.3,7.1-3.6
			c0.6-0.8,1-1.8,1-2.8c0-1-0.2-2.4-1.1-3c1.6-0.3,2.7-2.1,2.4-3.7c-0.1-0.4-0.2-0.7-0.4-1c-0.7,0.6-1.6,1-2.5,0.9
			c-0.3,1.2-1.1,2.3-2.3,2.8c-1.1,0.5-2.3,0.4-3.4-0.1c-0.4,0.7-1.1,1.2-1.8,1.2c-0.8,0.1-1.4-0.1-1.9-0.7c0.2,1-0.1,2.1-0.8,2.8
			c-0.7,0.7-1.6,0.9-2.5,0.6c1.6,1.2,2.5,3.2,2.3,5.2c-0.2,2-1.5,3.8-3.3,4.6c-1.8,0.8-4,0.9-5.6-0.3c-0.2,1.3-1.3,2.4-2.6,2.6
			c-1.3,0.2-2.6-0.4-3.1-1.7c-0.3,1.7-1.3,3.4-2.7,4.5c-1.1,0.9-2.7,1.4-4,1.1c-1.4-0.4-2.5-1.9-2.1-3.3c-0.9,0.7-1.9,1.6-2.9,2.6
			c0,1,0.3,2.1,0.9,2.9c-0.9,0.6-1.6,2.9-1,3.8c0.5,0.9,1.6,1.4,2.6,1.4c1,0.1,2.1-0.2,3-0.5c2.7-0.9,5.4-2,6.9-4.5
			C93.9,80.4,96,80.6,97.9,80z"/>
		<path class="st30" d="M135.7,16.8c-0.1,0.5-0.1,1-0.1,1.5C136,17.9,136.1,17.3,135.7,16.8z"/>
		<path class="st30" d="M136.9,80.9c0,0.1,0,0.2,0,0.3C136.9,81.1,136.9,81,136.9,80.9z"/>
		<path class="st30" d="M123.5,24.4c1.3,1.1,3,1.6,4.7,1.7c1.7,0.1,3.9-0.1,5.5-0.4c1,1.9,3.2,3,5.3,2.6c2.1-0.3,3.8-2.1,4.2-4.1
			c0.2-1.2-0.1-2.3-0.7-3.3c-0.8-0.3-1.7-0.4-2.6-0.1c0.2,1-0.9,2-2,1.8c-1-0.2-1.8-1.2-2-2.2c-0.1-0.6-0.2-1.3-0.2-1.9
			c0,0.1-0.1,0.1-0.1,0.2c-0.5,0.4-1.2,0.4-1.8,0.1s-0.9-0.5-1.2-1c-0.8,1-1.6,2-2.7,2.7c-1,0.7-2.3,1.1-3.6,0.9
			c-1.2-0.3-2.3-1.3-2.4-2.6c-0.6,0.1-1.3,0.3-2,0.6C121.5,21,122.1,23.1,123.5,24.4z"/>
		<path class="st30" d="M162.9,81.9c1.3-2.5,1.8-6.3-0.2-8.3c2.8-1,4.9-3.8,5-6.8c0.1-3-1.7-6.4-4.5-7.5c1.8-2.6,2-6.3,0.4-9.1
			c0,0,0,0,0-0.1c-1.3-0.5-2.6-0.9-3.9-1.1c1,1.3,1.4,2.9,1.2,4.5c-0.2,1.6-1,3.1-2.2,4.1c-0.8,0.6-1.8,1.1-2.7,0.7
			c0.7,0.9,0.9,1.8,1.1,3c0.2,1.2-0.1,2.4-0.9,3.3s-2.1,1.2-3.2,0.7c2.7,0.9,4.5,4,4.5,6.8c0,1.3-0.5,2.7-1.5,3.5
			c-1.1,0.8-2.8,0.7-3.5-0.4c0.1,1-1.1,2.1-2.2,2.1c-1,0-1.9-1.1-1.8-2.1c0.1,1.5-1.2,2.8-2.4,3.6c-1.3,0.8-2.9,0.9-4.2,0.1
			c-1.2-0.7-2-2-2.1-3.4c-0.1,0.5-0.6,1-1,1.3c-0.4,0.4-1,0.5-1.5,0.3c0.9,0.8,1.6,2,1.9,3.2c0.4,1.2-0.1,2.8-1.3,3.1
			c1.2,0.8,1.3,2.7,0.6,4c-0.7,1.3-2.1,2-3.6,2.2c-0.8,0.1-1.6,0-2.2-0.5c-0.6-0.4-1-1.3-0.7-2c-0.3,0.7-1.2,1.4-1.8,1.9
			c-0.6,0.5-1.4,0.9-2.2,0.7c-0.8-0.2-1.4-1-1.3-1.7c-0.9,0.8-1.5,1.8-1.8,2.8c0.2,0.3,0.5,0.6,0.8,0.8c0.9,0.7,2.1,1.2,3.2,0.9
			c2.3,1.5,5.2,1.9,7.9,1.2c2.6-0.7,5-2.5,6.2-4.9c2.4,1.2,5.5,0.6,7.2-1.5c2.4,0.7,5,0.5,7.3-0.5C159.8,85.9,161.7,84.1,162.9,81.9
			z"/>
		<path class="st30" d="M7.9,54c0.3,0.8,1,1.4,1.7,1.6c0.8,0.2,1.7,0.1,2.4-0.2c0.8-0.3,1.9-0.7,2.5-1.2c0.2,0.8,1.1,1.4,2,1.4
			c0.9,0,1.7-0.4,2.3-1c1.7-1.3,3.1-3,3.4-5c1.9-0.1,3.8-0.5,5.5-1.3c1.7-0.9,3.2-2.3,3.8-4.1c0.6-1.8,0.5-3.9-0.9-5.3
			c1.2-0.8,2.4-1.7,3-3c0.5-1.3,0.2-2.9-0.8-3.9c0,0-0.1-0.1-0.1-0.1c-0.2-0.1-0.4-0.3-0.6-0.4c-0.6,1.2-1.3,2.3-1.9,3.5
			c-0.7,1.3-1.4,2.6-2.4,3.6c-1.5,1.5-3.7,2.4-5.8,2.4c0.2,3.7-3,7-6.7,7.4c0,1-0.7,2-1.7,2.4c-1,0.3-2.2-0.1-2.7-1
			C9.5,50.4,8.2,52.3,7.9,54z"/>
		<path class="st29" d="M137.6,135.2c-1.9-1.6-2.6-4.7-1.5-6.9c1.1-2.3,3.9-3.7,6.4-3.1c1-1.5,2.8-2.7,4.6-3.1
			c1.8-0.3,3.7,0.2,5.2,1.3c0-1.4,1-2.9,2.3-3.4c1.3-0.5,2.9-0.2,3.9,0.8c1,1,1.3,2.6,0.8,3.9c-0.5,1.3-1.8,2.2-3,3
			c1.3,1.4,1.5,3.5,0.9,5.3c-0.6,1.8-2.1,3.2-3.8,4.1c-1.7,0.9-3.6,1.2-5.5,1.3c-0.4,2-1.8,3.7-3.4,5c-0.7,0.5-1.5,0.9-2.3,1
			c-0.9,0-1.8-0.5-2-1.4c-0.7,0.5-1.8,0.9-2.5,1.2c-0.8,0.3-1.6,0.5-2.4,0.2c-1.2-0.4-2-1.7-2.1-3c0-1.3,0.6-2.5,1.4-3.5
			C135.3,136.9,136.6,135.9,137.6,135.2z"/>
		<path class="st30" d="M133.4,142.7c0.3,0.8,1,1.4,1.7,1.6c0.8,0.2,1.7,0.1,2.4-0.2s1.9-0.7,2.5-1.2c0.2,0.8,1.1,1.4,2,1.4
			c0.9,0,1.7-0.4,2.3-1c1.7-1.3,3.1-3,3.4-5c1.9-0.1,3.8-0.5,5.5-1.3c1.7-0.9,3.2-2.3,3.8-4.1c0.6-1.8,0.5-3.9-0.9-5.3
			c1.2-0.8,2.4-1.7,3-3c0.5-1.3,0.2-2.9-0.8-3.9c0,0-0.1-0.1-0.1-0.1c-0.2-0.1-0.4-0.3-0.6-0.4c-0.6,1.2-1.3,2.3-1.9,3.5
			c-0.7,1.3-1.4,2.6-2.4,3.6c-1.5,1.5-3.7,2.4-5.8,2.4c0.2,3.7-3,7-6.7,7.4c0,1-0.7,2-1.7,2.4c-1,0.3-2.2-0.1-2.7-1
			C134.9,139.1,133.7,140.9,133.4,142.7z"/>
		<path class="st30" d="M25.2,98.9c-2,0.9-4.2,1.1-6.2,0.3c0.4,0.1,0.4,0.8,0,1c-0.4,0.2-0.9-0.1-1.2-0.3c-0.4-0.3-0.6-0.5-1-0.5
			c-0.2,1.4-0.5,2.8-1.3,3.9c-0.8,1.1-2.2,1.9-3.6,1.7c-1.4-0.2-2.5-1.7-2.2-3c-0.8,0.9-1.5,2-2.2,3.1c0.4,1.3,1.3,2.5,2.4,3.3
			c-1.1,1.5-2.2,4.3-1.7,6c0.3,1.1,0.8,2.1,1.8,2.6c1.1,0.7,2.6,0.7,3.8,0.3c1.7-0.5,3.1-1.6,4.2-2.9c2.9,0.1,5.9-0.7,7.9-2.7
			c2.1-2,3.3-5.3,1.8-7.7c3.4-0.3,6.4-3.2,7.2-6.5c0.8-0.2,1.3-1.1,1-1.9c-0.3-0.8-1.5-0.9-2.1-0.5c-0.2-1-1.1-1.7-2.1-2.1
			c-0.8,0.3-1.5,0.8-2.3,1.2C28.8,96.3,27.2,98,25.2,98.9z"/>
	</g>
</g>
</svg>
