<?xml version="1.0" encoding="utf-8"?>
<!-- Generator: Adobe Illustrator 22.1.0, SVG Export Plug-In . SVG Version: 6.00 Build 0)  -->
<svg version="1.1" xmlns="http://www.w3.org/2000/svg" xmlns:xlink="http://www.w3.org/1999/xlink" x="0px" y="0px"
	 viewBox="0 0 1366 768" style="enable-background:new 0 0 1366 768;" xml:space="preserve">
<style type="text/css">
	.st0{fill:#E1E2FF;}
	.st1{fill:#8D84FB;}
	.st2{fill:#EFEDF8;}
	.st3{fill:#796FE5;}
	.st4{fill:url(#SVGID_1_);}
	.st5{opacity:0.2;fill:url(#SVGID_2_);}
	.st6{opacity:0.5;clip-path:url(#SVGID_4_);}
	.st7{opacity:0.5;fill:none;stroke:#FEFEFE;stroke-width:0.6868;stroke-linecap:round;stroke-linejoin:round;stroke-miterlimit:10;}
	.st8{fill:url(#SVGID_5_);}
	.st9{opacity:0.5;clip-path:url(#SVGID_7_);}
	.st10{opacity:0.2;fill:url(#SVGID_8_);}
	.st11{fill:url(#SVGID_9_);}
	
		.st12{opacity:0.25;fill:none;stroke:#FEFEFE;stroke-width:0.6868;stroke-linecap:round;stroke-linejoin:round;stroke-miterlimit:10;}
	.st13{opacity:0.2;fill:url(#SVGID_10_);}
	.st14{fill:#1D125C;}
	.st15{fill:url(#SVGID_11_);}
	.st16{opacity:0.2;fill:url(#SVGID_12_);}
	.st17{opacity:0.5;clip-path:url(#SVGID_14_);}
	.st18{opacity:0.5;fill:none;stroke:#FEFEFE;stroke-width:0.765;stroke-linecap:round;stroke-linejoin:round;stroke-miterlimit:10;}
	.st19{fill:url(#SVGID_15_);}
	.st20{opacity:0.5;clip-path:url(#SVGID_17_);}
	.st21{opacity:0.2;fill:url(#SVGID_18_);}
	.st22{fill:#FBBFCE;}
	.st23{fill:#F44A3B;}
	.st24{fill:url(#SVGID_19_);}
	.st25{fill:#F46856;}
	.st26{fill:#993DF2;}
	.st27{fill:url(#SVGID_20_);}
	.st28{fill:url(#SVGID_21_);}
	.st29{fill:url(#SVGID_22_);}
	.st30{fill:url(#SVGID_23_);}
	.st31{fill:url(#SVGID_24_);}
	.st32{fill:url(#SVGID_25_);}
	.st33{fill:#F44C3D;}
	.st34{fill:url(#SVGID_26_);}
	.st35{fill:url(#SVGID_27_);}
	.st36{fill:#F2F4FB;}
	.st37{fill:url(#SVGID_28_);}
	.st38{opacity:0.75;}
	.st39{fill:#FFFFFF;}
</style>
<g id="Layer_1">
</g>
<g id="Layer_2">
	<g>
		<path class="st0" d="M617.1,633.4l-509.4,0c-31.1-40.8-33.2-103.7-19.4-153.1c7.1-25.4,20.3-49.1,24.8-75.1
			c6.3-36.3-4.8-73.7,0-110.2c7.9-59,60.7-107.5,119.7-114.8c59-7.2,119.9,24.6,151.6,75c13.3,21.2,24.3,47.4,47.9,55.8
			c29.7,10.5,59.9-13.5,91-18.4c28.5-4.4,57.9,8.1,78.4,28.3s33.1,47.3,40.9,75C664.1,471.9,660.5,567.5,617.1,633.4z"/>
		<g>
			<g>
				<path class="st1" d="M174,515.6h331.3c6,0,11.5,3,14.8,8l53.7,82.5c1.9,2.9,2.9,6.2,2.9,9.6l0,0c0,9.8-7.9,17.7-17.7,17.7H120.4
					c-9.8,0-17.7-7.9-17.7-17.7l0,0c0-3.4,1-6.8,2.9-9.6l53.7-82.5C162.5,518.6,168.1,515.6,174,515.6z"/>
				<path class="st2" d="M162,591.1l33.5-59.9c2.6-4.6,7.4-7.5,12.7-7.5h284.4c5.2,0,10,2.8,12.6,7.3l34.7,60c2.3,4-0.6,9-5.2,9
					H414.8h-59.5h-18.9H279H167.2C162.7,600,159.8,595.1,162,591.1z"/>
				<path class="st3" d="M148.7,561.5c-1.3,5,1.7,9.1,6.8,9.3c5.1,0.2,10.3-3.7,11.6-8.7c1.3-5-1.7-9.1-6.8-9.3
					C155.2,552.7,150,556.6,148.7,561.5z"/>
			</g>
			<path class="st3" d="M102.7,615.8c0,9.8,7.9,17.7,17.7,17.7H559c4.9,0,9.3-2,12.5-5.2c3.2-3.2,5.2-7.6,5.2-12.5
				c0-1.8-0.3-3.6-0.8-5.2H103.5C103,612.2,102.7,614,102.7,615.8z"/>
		</g>
		<g>
			<g>
				<g>
					
						<linearGradient id="SVGID_1_" gradientUnits="userSpaceOnUse" x1="500.0915" y1="516.3489" x2="593.9957" y2="516.3489" gradientTransform="matrix(-1 0 0 1 779.1302 0)">
						<stop  offset="1.081080e-02" style="stop-color:#3B2DD1"/>
						<stop  offset="0.9946" style="stop-color:#5460DB"/>
					</linearGradient>
					<path class="st4" d="M279,600c0,0,6-129.7-93.4-167.3c0,0-8.7,100.3,54.5,167.3H279z"/>
					
						<linearGradient id="SVGID_2_" gradientUnits="userSpaceOnUse" x1="522.8259" y1="516.3528" x2="593.9911" y2="516.3528" gradientTransform="matrix(-1 0 0 1 779.1302 0)">
						<stop  offset="1.081080e-02" style="stop-color:#3B2DD1"/>
						<stop  offset="0.9946" style="stop-color:#5460DB"/>
					</linearGradient>
					<path class="st5" d="M240.1,600h16.2c-53.1-56.2-55.5-135.9-54.9-160.1c-5-2.7-10.2-5.1-15.9-7.2
						C185.6,432.7,176.8,533.1,240.1,600z"/>
					<g>
						<defs>
							<path id="SVGID_3_" d="M279,600c0,0,6-129.7-93.4-167.3c0,0-8.7,100.3,54.5,167.3H279z"/>
						</defs>
						<clipPath id="SVGID_4_">
							<use xlink:href="#SVGID_3_"  style="overflow:visible;"/>
						</clipPath>
						<g class="st6">
							<path class="st7" d="M185.5,432.7c0,0,51.5,64.9,72,167.3"/>
							<path class="st7" d="M213.9,478c0,0-14.8-4.6-27.4-5.9"/>
							<path class="st7" d="M226.2,503.1c0,0,3.5-30.9,2-43.8"/>
							<path class="st7" d="M235.6,525.3c0,0-18.4-2.6-39.2-3.1"/>
							<path class="st7" d="M244.6,550.6c0,0,14.5-31.7,10.9-55"/>
							<path class="st7" d="M252.1,576c0,0-14.3-5.5-37.8-11.4"/>
							<path class="st7" d="M255.3,589.3c0,0,17.1-25.1,18.5-41.9"/>
						</g>
					</g>
				</g>
				<g>
					
						<linearGradient id="SVGID_5_" gradientUnits="userSpaceOnUse" x1="533.3755" y1="547.4572" x2="652.2516" y2="547.4572" gradientTransform="matrix(-1 0 0 1 779.1302 0)">
						<stop  offset="1.081080e-02" style="stop-color:#3B2DD1"/>
						<stop  offset="0.9946" style="stop-color:#5460DB"/>
					</linearGradient>
					<path class="st8" d="M245.8,600c0,0,0-108.1-118.9-105c0,0,18,70.5,78.2,105H245.8z"/>
					<g>
						<defs>
							<path id="SVGID_6_" d="M245.8,600c0,0,0-108.1-118.9-105c0,0,18,70.5,78.2,105H245.8z"/>
						</defs>
						<clipPath id="SVGID_7_">
							<use xlink:href="#SVGID_6_"  style="overflow:visible;"/>
						</clipPath>
						<g class="st9">
							<path class="st7" d="M126.9,495c0,0,75.6,34.5,99.3,105"/>
							<path class="st7" d="M164.4,518.5c0,0-13.5-1.3-28.5,1"/>
							<path class="st7" d="M184,535.4c0,0-1.1-24.7-8.6-34.2"/>
							<path class="st7" d="M201.7,555.1c0,0-25.8-2.5-43.7,2.2"/>
							<path class="st7" d="M213.2,572c0,0,5.1-27.4-2.1-50.6"/>
							<path class="st7" d="M222.3,589.8c0,0-16.2-4.8-37.2-3.7"/>
						</g>
					</g>
					
						<linearGradient id="SVGID_8_" gradientUnits="userSpaceOnUse" x1="557.5624" y1="547.4595" x2="652.2465" y2="547.4595" gradientTransform="matrix(-1 0 0 1 779.1302 0)">
						<stop  offset="1.081080e-02" style="stop-color:#3B2DD1"/>
						<stop  offset="0.9946" style="stop-color:#5460DB"/>
					</linearGradient>
					<path class="st10" d="M126.9,495c0,0,18,70.5,78.2,105h16.5c-57.8-33.1-76.7-99.5-78.1-104.7C138.2,495,132.7,494.8,126.9,495z
						"/>
				</g>
				<g>
					
						<linearGradient id="SVGID_9_" gradientUnits="userSpaceOnUse" x1="498.4195" y1="587.4969" x2="508.1971" y2="474.2815" gradientTransform="matrix(-1 0 0 1 779.1302 0)">
						<stop  offset="1.081080e-02" style="stop-color:#3B2DD1"/>
						<stop  offset="0.9946" style="stop-color:#5460DB"/>
					</linearGradient>
					<path class="st11" d="M241.8,585.9c-0.1,5.4,2.3,10.8,6.3,14.1h54.6c6-5.3,9.9-13.1,12.1-20.9c2.7-9.5,1.7-20-2.9-28.7
						c-2.4-4.5-5.7-8.6-7-13.5c-1.2-4.4-0.7-8.7,0.4-13.1c0.7-2.7,1.6-5.4,2.5-8.1c2.5-7.3,5.2-14.6,3.5-21.8
						c-2-8.4-9.3-14.3-13.7-21.8c-5.4-9.2-6-20.3-6.6-30.9c-0.6-10.6-1.6-21.8-7.5-30.7c-5.9-8.9-18.3-14.3-27.5-9
						c-7.2,4.2-9.9,13.5-9.2,21.8c0.7,8.3,4.2,16.1,6.7,24c2.6,7.9,4.2,16.7,1.3,24.5c-2.5,6.6-8,11.8-10.1,18.5
						c-2.4,7.9,0.2,16.3,3.5,23.9c0.2,0.5,0.4,1,0.6,1.4c1.2,2.7,2.5,5.4,3.6,8.1c1.8,4.4,3.2,9,3.5,13.7c0.4,8.5-3.1,16.6-6.6,24.3
						C245.7,569.4,242,577.4,241.8,585.9z"/>
					<path class="st12" d="M279.7,602c-8.3-3.9-11.9-14.1-11.2-23.1c0.7-9.1,4.8-17.5,8.3-25.9c3.5-8.4,6.5-17.6,4.8-26.5
						c-1.3-6.8-5.2-12.9-6.2-19.8c-1.4-10,3.8-20.2,2-30.1c-1.6-8.7-8.4-15.8-10-24.6c-1.4-7.5,1.3-15.1,2.7-22.6
						c1.4-7.5,1.2-16.3-4.4-21.5"/>
					
						<linearGradient id="SVGID_10_" gradientUnits="userSpaceOnUse" x1="513.4451" y1="599.6608" x2="530.6347" y2="400.6222" gradientTransform="matrix(-1 0 0 1 779.1302 0)">
						<stop  offset="1.081080e-02" style="stop-color:#3B2DD1"/>
						<stop  offset="0.9946" style="stop-color:#5460DB"/>
					</linearGradient>
					<path class="st13" d="M241.8,585.9c-0.1,5.4,2.3,10.8,6.3,14.1H262c-4-3.3-6.5-8.8-6.3-14.1c0.2-8.5,4-16.4,7.5-24.1
						c3.5-7.7,7-15.8,6.6-24.3c-0.2-4.8-1.7-9.3-3.5-13.7c-1.1-2.7-2.4-5.4-3.6-8.1c-0.2-0.5-0.4-1-0.6-1.4
						c-3.3-7.5-5.9-16-3.5-23.9c2.1-6.7,7.6-11.9,10.1-18.5c2.9-7.8,1.3-16.6-1.3-24.5c-2.6-7.9-6-15.7-6.7-24
						c-0.7-8.3,2.1-17.6,9.2-21.8c0.5-0.3,1-0.5,1.5-0.8c-5.1-1.9-10.6-2-15.3,0.8c-7.2,4.2-9.9,13.5-9.2,21.8
						c0.7,8.3,4.2,16.1,6.7,24c2.6,7.9,4.2,16.7,1.3,24.5c-2.5,6.6-8,11.8-10.1,18.5c-2.4,7.9,0.2,16.3,3.5,23.9
						c0.2,0.5,0.4,1,0.6,1.4c1.2,2.7,2.5,5.4,3.6,8.1c1.8,4.4,3.2,9,3.5,13.7c0.4,8.5-3.1,16.6-6.6,24.3
						C245.7,569.4,242,577.4,241.8,585.9z"/>
				</g>
				<g>
					<g>
						<path class="st14" d="M241.1,600c0,0-27.4-83.7-84.7-99.1c0,0,54,20.2,78.2,99.1H241.1z"/>
						<path class="st14" d="M169.1,505.6c0,0-32.3-19.8-67.5,6.6C101.6,512.2,143.8,524.2,169.1,505.6z"/>
						<path class="st14" d="M195.1,527.1c0,0-26.2-18.7-8.5-60.7C186.6,466.5,207.8,491.5,195.1,527.1z"/>
					</g>
					<g>
						<path class="st14" d="M241.1,600c0,0-18.7-57-57.7-67.5c0,0,36.8,13.7,53.3,67.5H241.1z"/>
						<path class="st14" d="M188.7,533.7c0,0-24.6-7.8-43.6,15.4C145.1,549.2,175,550.2,188.7,533.7z"/>
						<path class="st14" d="M213.7,555c0,0-12.5-18,8.5-40.9C222.2,514.1,230,535,213.7,555z"/>
					</g>
				</g>
			</g>
			<g>
				<g>
					
						<linearGradient id="SVGID_11_" gradientUnits="userSpaceOnUse" x1="253.5409" y1="515.2028" x2="381.7728" y2="515.2028" gradientTransform="matrix(-1 0 0 1 779.1302 0)">
						<stop  offset="1.081080e-02" style="stop-color:#3B2DD1"/>
						<stop  offset="0.9946" style="stop-color:#5460DB"/>
					</linearGradient>
					<path class="st15" d="M397.4,600h50.8c22.2-20,38.1-43.8,49.4-67c7.4-15.2,12.9-30.3,16.9-44c0.2-0.8,0.5-1.6,0.7-2.3
						c0.4-1.4,0.8-2.8,1.1-4.1c0.5-1.8,1-3.7,1.4-5.4c0.3-1.3,0.6-2.5,0.9-3.8c0.2-0.8,0.4-1.5,0.5-2.3c0.2-0.7,0.3-1.4,0.5-2.1
						c0.4-1.7,0.7-3.4,1.1-5c0.2-1.1,0.4-2.2,0.6-3.2c0.1-0.7,0.3-1.4,0.4-2.1c0-0.2,0.1-0.3,0.1-0.5c3.1-16.9,3.7-27.7,3.7-27.7
						c-0.7,0.2-1.4,0.3-2.1,0.5c-0.9,0.2-1.9,0.5-2.8,0.7c-0.8,0.2-1.6,0.4-2.4,0.6c-0.8,0.2-1.6,0.4-2.3,0.7
						c-3.1,0.9-6.1,1.9-9.1,3c-45.3,17-72.2,53.4-88,87.7C402.3,560,398,593.9,397.4,600z"/>
					
						<linearGradient id="SVGID_12_" gradientUnits="userSpaceOnUse" x1="253.5564" y1="515.2104" x2="351.6216" y2="515.2104" gradientTransform="matrix(-1 0 0 1 779.1302 0)">
						<stop  offset="1.081080e-02" style="stop-color:#3B2DD1"/>
						<stop  offset="0.9946" style="stop-color:#5460DB"/>
					</linearGradient>
					<path class="st16" d="M427.5,600h20.7c22.2-20,38.1-43.8,49.4-67c7.4-15.2,12.9-30.3,16.9-44c0.2-0.8,0.5-1.6,0.7-2.3
						c0.4-1.4,0.8-2.8,1.1-4.1c0.5-1.8,1-3.7,1.4-5.4c0.3-1.3,0.6-2.5,0.9-3.8c0.2-0.8,0.4-1.5,0.5-2.3c0.2-0.7,0.3-1.4,0.5-2.1
						c0.4-1.7,0.7-3.4,1.1-5c0.2-1.1,0.4-2.2,0.6-3.2c0.1-0.7,0.3-1.4,0.4-2.1c0-0.2,0.1-0.3,0.1-0.5c3.1-16.9,3.7-27.7,3.7-27.7
						c-0.7,0.2-1.4,0.3-2.1,0.5c-0.9,0.2-1.9,0.5-2.8,0.7c-0.8,0.2-1.6,0.4-2.4,0.6c-0.8,0.2-1.6,0.4-2.3,0.7
						c-3.1,0.9-6.1,1.9-9.1,3c-1.7,15.3-7.2,50.4-24.1,87.7C471,550.1,453.4,577.6,427.5,600z"/>
					<g>
						<defs>
							<path id="SVGID_13_" d="M396.3,600c0,0,13.9-143.1,129.3-169.6c0,0-4.2,103.4-77.4,169.6H396.3z"/>
						</defs>
						<clipPath id="SVGID_14_">
							<use xlink:href="#SVGID_13_"  style="overflow:visible;"/>
						</clipPath>
						<g class="st17">
							<path class="st18" d="M525.6,430.4c0,0-66.6,63.8-104.7,173.7"/>
							<path class="st18" d="M487.5,476.1c0,0,17.1-2.8,31.1-2.4"/>
							<path class="st18" d="M470.1,502c0,0,0.8-34.6,4.4-48.7"/>
							<path class="st18" d="M456.4,525.1c0,0,20.7-0.1,43.8,2.5"/>
							<path class="st18" d="M442.6,551.6c0,0-11.2-37.2-3.7-62.3"/>
							<path class="st18" d="M430.6,578.5c0,0,16.6-3.9,43.5-6.8"/>
							<path class="st18" d="M425,592.8c0,0-15.1-30.3-14.1-49"/>
						</g>
					</g>
				</g>
				<g>
					
						<linearGradient id="SVGID_15_" gradientUnits="userSpaceOnUse" x1="1064.696" y1="541.244" x2="1197.1149" y2="541.244" gradientTransform="matrix(1 0 0 1 -609.9401 0)">
						<stop  offset="1.081080e-02" style="stop-color:#3B2DD1"/>
						<stop  offset="0.9946" style="stop-color:#5460DB"/>
					</linearGradient>
					<path class="st19" d="M454.8,599.8c0,0,0-120.4,132.4-116.9c0,0-20.1,78.5-87.1,116.9H454.8z"/>
					<g>
						<defs>
							<path id="SVGID_16_" d="M454.8,599.8c0,0,0-120.4,132.4-116.9c0,0-20.1,78.5-87.1,116.9H454.8z"/>
						</defs>
						<clipPath id="SVGID_17_">
							<use xlink:href="#SVGID_16_"  style="overflow:visible;"/>
						</clipPath>
						<g class="st20">
							<path class="st18" d="M587.2,482.8c0,0-84.3,38.4-110.6,116.9"/>
							<path class="st18" d="M545.4,509c0,0,15.1-1.5,31.7,1.1"/>
							<path class="st18" d="M523.6,527.8c0,0,1.2-27.5,9.6-38.1"/>
							<path class="st18" d="M503.9,549.7c0,0,28.8-2.7,48.7,2.4"/>
							<path class="st18" d="M491,568.6c0,0-5.7-30.5,2.4-56.4"/>
							<path class="st18" d="M480.9,588.4c0,0,18.1-5.3,41.4-4.1"/>
						</g>
					</g>
					
						<linearGradient id="SVGID_18_" gradientUnits="userSpaceOnUse" x1="1091.6383" y1="541.2466" x2="1197.109" y2="541.2466" gradientTransform="matrix(1 0 0 1 -609.9401 0)">
						<stop  offset="1.081080e-02" style="stop-color:#3B2DD1"/>
						<stop  offset="0.9946" style="stop-color:#5460DB"/>
					</linearGradient>
					<path class="st21" d="M587.2,482.8c0,0-20.1,78.5-87.1,116.9h-18.3c64.4-36.9,85.5-110.8,87.1-116.6
						C574.6,482.8,580.7,482.6,587.2,482.8z"/>
				</g>
				<g>
					<g>
						<path class="st14" d="M448.1,599.8c0,0,38-115.9,117.3-137.3c0,0-74.8,27.9-108.3,137.3H448.1z"/>
						<path class="st14" d="M547.8,469c0,0,44.7-27.5,93.6,9.2C641.4,478.2,583,494.8,547.8,469z"/>
						<path class="st14" d="M511.8,498.9c0,0,36.2-25.9,11.8-84C523.6,414.8,494.3,449.5,511.8,498.9z"/>
					</g>
					<g>
						<path class="st14" d="M446.8,599.8c0,0,23.3-71.3,72.2-84.4c0,0-46,17.2-66.6,84.4H446.8z"/>
						<path class="st14" d="M512.3,516.9c0,0,30.7-9.8,54.5,19.3C566.8,536.2,529.5,537.5,512.3,516.9z"/>
						<path class="st14" d="M481.1,543.5c0,0,15.6-22.5-10.6-51.1C470.5,492.4,460.7,518.6,481.1,543.5z"/>
					</g>
				</g>
			</g>
		</g>
		<g>
			<path class="st14" d="M253.3,600h64.8c16.8-15.7,32.3-32.4,32.3-32.4c13.7,17.1,18.5,23.9,24.8,32.4h63.1
				c-8.2-27.6-19-63.4-24.8-82.4c-0.3-1-0.6-2-0.9-2.9c-1.9-6.3-3.1-10.1-3.1-10.1c-14.5,5-28.5,8.2-41.6,10.1
				c-27.4,4-50.7,2.4-66.2,0c-13.1-2-20.7-4.5-20.7-4.5c-0.2,1.3-0.4,2.8-0.7,4.5c-0.8,4-2,8.9-3.5,14.3
				C271,550.1,260.6,579.5,253.3,600z"/>
			<g>
				<path class="st22" d="M338.4,356.3L338.4,356.3c9.3,0,16.9-7.6,16.9-16.9V282h-33.8v57.4C321.5,348.8,329,356.3,338.4,356.3z"/>
				<g>
					<path class="st22" d="M354.2,311.8L354.2,311.8c17.3-1.3,30.3-16.4,29-33.7l-3.6-47.9l-62.6,4.7l3.6,47.9
						C321.8,300.1,336.9,313.1,354.2,311.8z"/>
					<circle class="st22" cx="380.5" cy="261.4" r="8.3"/>
				</g>
				<path class="st14" d="M294.3,235.7c-1.3-16.8,11.4-31.5,28.2-32.8l86.4-6.5c4.1,16.6-7.6,32.1-23.9,33.3l-60.8,4.6l4.1,54.7
					c6.3,2.3,15.6,7.3,21.1,17.9c0,0,5.8-22.3,33.2-20.3c0,0,4.5,7.1,5.8,16.8c2,15.5-15.3,26.2-28.2,17.3c-0.2-0.1-0.3-0.2-0.5-0.3
					c0,0-35.6,5.8-38-24l-0.2,0l-0.7-9c-14.5-7-24.2-21.1-25.4-37.2l-1-12.8c0-0.3,0-0.6,0-0.9l0,0L294.3,235.7z"/>
			</g>
			<g>
				<g>
					<path class="st23" d="M499.3,358.6L499.3,358.6c3.6-1.1,5.6-4.8,4.5-8.4l-21-69.5c-1.1-3.6-4.8-5.6-8.4-4.5l0,0
						c-3.6,1.1-5.6,4.8-4.5,8.4l21,69.5C491.9,357.7,495.7,359.7,499.3,358.6z"/>
					
						<linearGradient id="SVGID_19_" gradientUnits="userSpaceOnUse" x1="199.1293" y1="245.4707" x2="331.9236" y2="245.4707" gradientTransform="matrix(-1 0 0 1 779.1302 0)">
						<stop  offset="0" style="stop-color:#662D91"/>
						<stop  offset="1" style="stop-color:#F43E3B"/>
					</linearGradient>
					<path class="st24" d="M467,295.3c17.1-5.7,68-19.5,113,0.9l-19.9-101.4c0,0-16.1,40-104.3,59.2c-4.2,0.9-7.4,4.3-8.1,8.5
						c-1.2,7.3-1.1,19,8,29.7C458.5,295.4,463,296.6,467,295.3z"/>
					<path class="st25" d="M557.8,249.2c5.9,26.8,18.2,47.5,28.9,49.8c1.3,0.3,2.5,0.3,3.8,0.1c11.4-2.5,15.2-28.9,8.6-59
						c-6.6-30.1-21.2-52.4-32.6-49.9c-2.2,0.5-4.1,1.8-5.7,3.9C553.9,202.9,552.4,224.9,557.8,249.2z"/>
					<path class="st26" d="M555.4,235.5c0.5,4.4,1.3,9,2.3,13.6c1.7,7.8,4,15.2,6.6,21.6c6.3,15.7,14.7,26.5,22.3,28.2
						c5.7-7.4,7.7-24.2,5-43.8l0,0c0-0.2,0-0.3-0.1-0.4c-0.5-3.5-1.1-7.2-2-10.8c-0.9-4-1.9-7.8-3-11.5c0-0.1-0.1-0.2-0.1-0.3
						c-6.5-20.9-16.7-36.1-25.7-38C555.2,201.2,553.2,216.9,555.4,235.5z"/>
					
						<linearGradient id="SVGID_20_" gradientUnits="userSpaceOnUse" x1="281.7536" y1="271.0983" x2="333.6884" y2="271.0983" gradientTransform="matrix(-1 0 0 1 779.1302 0)">
						<stop  offset="1.081080e-02" style="stop-color:#3B2DD1"/>
						<stop  offset="0.9946" style="stop-color:#5460DB"/>
					</linearGradient>
					<path class="st27" d="M485.9,249.7c1,8,3.7,21.6,11,34.6c1.3,2.3,0.1,5.2-2.5,5.8c-6.1,1.4-16.4,3.8-24.5,6.5
						c-6,2-12.7,0.3-16.9-4.4c-5.4-6.1-10.3-16.5-5.7-32.6c1.1-3.8,4.2-6.7,8-7.7c5.9-1.5,15.2-4,23.1-6.8
						C481.7,243.9,485.4,246.1,485.9,249.7z"/>
					<g>
						
							<linearGradient id="SVGID_21_" gradientUnits="userSpaceOnUse" x1="183.6297" y1="251.4641" x2="223.7019" y2="251.4641" gradientTransform="matrix(-1 0 0 1 779.1302 0)">
							<stop  offset="1.081080e-02" style="stop-color:#3B2DD1"/>
							<stop  offset="0.9946" style="stop-color:#5460DB"/>
						</linearGradient>
						<path class="st28" d="M555.4,235.5c0.5,4.4,1.3,9,2.3,13.6c1.7,7.8,4,15.2,6.6,21.6c4.2-4.9,20.1-12.4,27.2-15.6l0,0
							c0.3-0.1,0.6-0.3,0.9-0.4c0,0,0.1,0,0.1,0c1.7-0.8,2.8-2.4,2.9-4.3c0.3-6.7-2.6-12.7-4.6-16c-0.9-1.4-2.3-2.3-3.9-2.3
							c-0.2,0-0.3,0-0.5,0c-0.1,0-0.2,0-0.4,0C570.1,234.1,556.1,235.5,555.4,235.5z"/>
						<path class="st14" d="M584.4,244.6c1.4,6.3,5.2,10.9,8.5,10.1c3.3-0.7,4.9-6.5,3.5-12.8c-1.4-6.3-5.2-10.9-8.5-10.1
							C584.5,232.6,582.9,238.3,584.4,244.6z"/>
					</g>
					<g>
						
							<linearGradient id="SVGID_22_" gradientUnits="userSpaceOnUse" x1="111.4518" y1="288.8499" x2="148.9067" y2="288.8499" gradientTransform="matrix(-0.9836 0.1801 0.1801 0.9836 715.4996 -110.6214)">
							<stop  offset="1.081080e-02" style="stop-color:#3B2DD1"/>
							<stop  offset="0.9946" style="stop-color:#5460DB"/>
						</linearGradient>
						<polygon class="st29" points="623.2,211.7 645.8,179.2 657.5,191.3 626.8,215.8 						"/>
						
							<linearGradient id="SVGID_23_" gradientUnits="userSpaceOnUse" x1="95.9167" y1="232.3803" x2="148.9334" y2="225.2899" gradientTransform="matrix(-1 0 0 1 779.1302 0)">
							<stop  offset="1.081080e-02" style="stop-color:#3B2DD1"/>
							<stop  offset="0.9946" style="stop-color:#5460DB"/>
						</linearGradient>
						<polygon class="st30" points="629.5,230.3 680.7,218.1 683,234 630.8,239.3 						"/>
						
							<linearGradient id="SVGID_24_" gradientUnits="userSpaceOnUse" x1="146.4235" y1="132.3452" x2="188.1445" y2="126.7655" gradientTransform="matrix(-0.963 -0.2693 -0.2693 0.963 847.054 186.2236)">
							<stop  offset="1.081080e-02" style="stop-color:#3B2DD1"/>
							<stop  offset="0.9946" style="stop-color:#5460DB"/>
						</linearGradient>
						<polygon class="st31" points="633.9,253.4 672.9,268.4 666.8,279.6 630.3,260.9 						"/>
					</g>
				</g>
				<g>
					<path class="st22" d="M488.1,363.8c-1.8-5.2-3.9-10.2-6.3-15.1c-4.8-1.1-8-4.1-10.4-8.4c-2.3-4.3-3.4-9.2-4.4-14
						c-0.5-2.5-1.1-4.9-1.6-7.4c-0.7-3.3-1.4-6.8-0.4-10.1c0.5-1.5,1.4-2.9,2.9-3.3c1.6-0.4,3.2,0.7,4.3,1.9c4.4,5,3.5,13.1,8,18
						c2.5,2.7,6.2,3.8,9.8,4.5c3.6,0.6,7.3,0.8,10.7,2.1c0,0,0.1,0,0.1,0c4.6,1.7,7.5,6.1,7.6,11c0,7.3-1,13.1-4.5,18.9
						c-0.8,1.4-2.5,2.2-4.1,2.1c-2.6-0.1-5.5,0.6-8.2,0C490.2,363.8,488.5,365.1,488.1,363.8z"/>
					<path class="st22" d="M509.2,308.4c-3-2.2-7.5-2.4-11-2.6c-5.3-0.3-10.7,0.8-15.4,3.3c-4.1,2.2-7.8,5.9-8,10.5
						c-0.1,1.8,0.4,3.6,0.9,5.3c0.4,1.2,0.7,2.4,1.1,3.7c0.6,2.2,1.3,4.4,2.4,6.4c2.2,3.7,6.2,6.1,10.3,7.1
						c4.2,0.9,8.6,0.4,12.7-0.8c3.4-1,6.7-2.6,8.9-5.4c4.5-5.5,3.1-13.7,1.7-20c-0.4-1.8-0.9-3.7-1.9-5.3
						C510.7,309.7,510,309,509.2,308.4z"/>
				</g>
				
					<linearGradient id="SVGID_25_" gradientUnits="userSpaceOnUse" x1="338.1812" y1="383.6154" x2="502.5348" y2="486.8874" gradientTransform="matrix(-1 0 0 1 779.1302 0)">
					<stop  offset="0" style="stop-color:#29ABE2"/>
					<stop  offset="1" style="stop-color:#FF00FF"/>
				</linearGradient>
				<path class="st32" d="M321.5,339.4h33.8c0,0,14.8,8.6,30.4,36.3c20.3,9.8,48.4,22.2,72.2,29c12.8,3.7,25.9-5.4,26.7-18.8
					c0.4-5.8,0.5-12.6,0-20.5c-0.4-8.4,8.2-14.7,16-11.3c0.1,0.1,0.3,0.1,0.4,0.2c3.4,1.6,5.7,4.8,6.4,8.4c0.8,4.6,2,12.3,2.5,21.8
					c1.8,32.4-24.3,59.6-56.7,59.3c-12.9-0.1-27.6-1-43.3-3.6c0.8,3.3,1.6,6.7,2.3,10.2c3.6,17.1,6.4,36.7,8,59.1
					c0,0-40.3,64.1-148.6,16.9C271.5,526.6,283.3,380.3,321.5,339.4z"/>
				<path class="st33" d="M350,425c0,0,22.6,20.9,62.2,25.5c-0.8-3.8-1.6-7.4-2.4-10.9v0C409.7,439.6,371.6,432.8,350,425z"/>
			</g>
		</g>
		<g>
			<g>
				
					<linearGradient id="SVGID_26_" gradientUnits="userSpaceOnUse" x1="568.6823" y1="379.8617" x2="611.9229" y2="379.8617" gradientTransform="matrix(-1 0 0 1 779.1302 0)">
					<stop  offset="1.081080e-02" style="stop-color:#3B2DD1"/>
					<stop  offset="0.9946" style="stop-color:#5460DB"/>
				</linearGradient>
				<circle class="st34" cx="188.8" cy="379.9" r="21.6"/>
				<g>
					<path class="st0" d="M190.3,392.7h-2.9v-2.2c-2.5-0.5-3.8-2.5-3.8-5.4c0-2.6,1-4.3,3.9-6.6c2.4-1.9,3-3,3-4.5
						c0-1.3-0.6-1.9-1.8-1.9c-1.1,0-1.8,0.6-1.8,2v0.9h-3.3v-0.6c0-2.8,1.3-4.8,3.8-5.3v-2h2.9v2c2.5,0.5,3.7,2.5,3.7,5.2
						c0,2.4-1,4.2-3.9,6.5c-2.4,1.9-3,3-3,4.6c0,1.4,0.7,2,1.8,2s1.8-0.6,1.8-2v-1.7h3.3v1.5c0,2.8-1.3,4.8-3.8,5.3V392.7z"/>
				</g>
			</g>
			<g>
				
					<linearGradient id="SVGID_27_" gradientUnits="userSpaceOnUse" x1="575.0801" y1="315.1469" x2="616.0544" y2="315.1469" gradientTransform="matrix(-1 0 0 1 779.1302 0)">
					<stop  offset="1.081080e-02" style="stop-color:#3B2DD1"/>
					<stop  offset="0.9946" style="stop-color:#5460DB"/>
				</linearGradient>
				<circle class="st35" cx="183.6" cy="315.1" r="20.5"/>
				<polygon class="st36" points="189.3,326.8 189.3,303.5 171.6,315 				"/>
			</g>
			<g>
				
					<linearGradient id="SVGID_28_" gradientUnits="userSpaceOnUse" x1="497.0209" y1="339.4127" x2="554.5157" y2="339.4127" gradientTransform="matrix(-1 0 0 1 779.1302 0)">
					<stop  offset="1.081080e-02" style="stop-color:#3B2DD1"/>
					<stop  offset="0.9946" style="stop-color:#5460DB"/>
				</linearGradient>
				<circle class="st37" cx="253.4" cy="339.4" r="28.7"/>
				<path class="st36" d="M245,323.8c2.6,0,5.5,1.1,8.4,4.5c2.9-3.4,5.8-4.5,8.4-4.5c5.3,0,9.3,4.8,9,10.1
					c-0.8,13.6-17.4,21.1-17.4,21.1s-16.6-7.5-17.4-21.1C235.6,328.6,239.6,323.8,245,323.8z"/>
			</g>
		</g>
	</g>
</g>
<g id="Layer_3">
	<g class="st38">
		<rect class="st39" width="1366" height="768"/>
	</g>
</g>
</svg>
