<?xml version="1.0" encoding="utf-8"?>
<!-- Generator: Adobe Illustrator 22.1.0, SVG Export Plug-In . SVG Version: 6.00 Build 0)  -->
<svg version="1.1" xmlns="http://www.w3.org/2000/svg" xmlns:xlink="http://www.w3.org/1999/xlink" x="0px" y="0px"
	 viewBox="0 0 1920 1080" style="enable-background:new 0 0 1920 1080;" xml:space="preserve">
<style type="text/css">
	.st0{fill:#CCCCCC;}
	.st1{fill:#E6E6E6;}
	.st2{fill:#494949;}
	.st3{fill:#F5E8D0;}
	.st4{fill:#8E8E8E;}
	.st5{fill:#FFFFFF;}
	.st6{fill:#F5D69A;}
	.st7{fill:#A56941;}
	.st8{fill:#965028;}
	.st9{fill:#DCBE82;}
	.st10{fill:#578DA0;}
	.st11{fill:#ACD6F2;}
	.st12{fill:#5EAACF;}
	.st13{fill:#6BA795;}
	.st14{fill:#7B7031;}
	.st15{opacity:0.2;}
	.st16{fill:#F2F2F2;}
	.st17{fill:#518394;}
	.st18{fill:#E2E2E2;}
	.st19{fill:#A5A5A5;}
	.st20{fill:#B3B3B3;}
	.st21{fill:#808080;}
	.st22{opacity:0.1;}
	.st23{fill:#E8D4AA;}
	.st24{fill:#306E89;}
	.st25{fill:#666666;}
	.st26{fill:#F58C7E;}
	.st27{fill:#C6C7C7;}
	.st28{fill:#96BEE5;}
	.st29{fill:#CDCECE;}
	.st30{fill:#575757;}
	.st31{fill:#D6D6D6;}
	.st32{fill:#F0F0F0;}
	.st33{fill:#BDBDBD;}
	.st34{fill:#A2A3A4;}
	.st35{fill:#8A8A8A;}
	.st36{fill:#333333;}
	.st37{fill:#4D4D4D;}
	.st38{fill:#999999;}
	.st39{fill:#DFE0E1;}
	.st40{fill:#CDCECF;}
	.st41{fill:#B3B5B6;}
</style>
<g id="Background">
	<rect class="st0" width="1920" height="1080"/>
</g>
<g id="Floor">
	<g>
		<rect y="919.3" class="st1" width="1920" height="159.1"/>
		<rect y="902.4" class="st1" width="1920" height="17"/>
	</g>
	<g>
		<g id="XMLID_10_">
			<g>
				<path class="st2" d="M823.7,776.1c0,3.9,0,8.1,0,12.4c-2,0-3.1,0-3.1,0v-12.4C820.6,776.1,821.7,776.1,823.7,776.1z"/>
				<path class="st3" d="M1219.4,747.7c-6.9,0-16.3,0-27.6,0c-8,0-16.9,0-26.6,0c-8.6,0-17.8,0-27.6,0c-2.6,0-5.4,0-8.1,0
					c-0.1-10.2-0.1-19.8-0.2-28.6c60.2,0,103.6,0,103.6,0v28.6C1233,747.7,1228.1,747.7,1219.4,747.7z"/>
				<path class="st2" d="M1191.8,788.6c0-4.4,0-8.5,0-12.4c0-12.1,0-21.8,0-28v-0.5c11.3,0,20.7,0,27.6,0c0,38,0,222.6,0,222.6
					c0,7.6-6.2,13.7-13.8,13.7c-7.6,0-13.8-6.1-13.8-13.7C1191.8,970.3,1191.8,855.8,1191.8,788.6z"/>
				<path class="st2" d="M1165.3,776.1c10.3,0,19.3,0,26.6,0c0,3.9,0,8.1,0,12.4c-7.3,0-16.3,0-26.6,0c-8.4,0-17.6,0-27.6,0
					c-2.6,0-5.2,0-7.9,0c0-4.2-0.1-8.3-0.1-12.4c2.7,0,5.4,0,8,0C1147.6,776.1,1156.9,776.1,1165.3,776.1z"/>
				<path class="st4" d="M1165.3,788.6c0,64.5,0,178.9,0,178.9c0,7.4-6.2,13.3-13.8,13.3c-7.6,0-13.8-5.9-13.8-13.3
					c0,0,0-53,0-107.8c0-24.9,0-50.3,0-71.1C1147.6,788.6,1156.9,788.6,1165.3,788.6z"/>
				<path class="st4" d="M1165.3,749.8c0,4.9,0,14.2,0,26.4c-8.4,0-17.6,0-27.6,0c0-12.2,0-22.2,0-28.5c9.7,0,19,0,27.6,0V749.8z"/>
				<path class="st5" d="M1115.6,776.1v12.4c-56.1,0-126.9,0-185.2,0v-12.4C988.6,776.1,1059.5,776.1,1115.6,776.1z"/>
				<path class="st2" d="M915.1,788.6h-0.8c-45.2,0-80.3,0-90.6,0c0-4.4,0-8.5,0-12.4c10.3,0,45.4,0,90.6,0h0.7
					C915.1,780.2,915.1,784.4,915.1,788.6z"/>
				<path class="st3" d="M806.3,747.7c-2.4,0-4.6,0-6.8,0c-7.1,0-15.2,0-23.7,0V719c9.5,0,18.3,0,26,0c35.3,0,103.3,0,182.8,0
					c0.2,8.8,0.4,18.5,0.5,28.6h-1.4c-52.3,0-99.7,0-135.9,0C831.7,747.7,817.6,747.7,806.3,747.7z"/>
				<path class="st2" d="M823.7,788.6c0,66.7,0,184.5,0,184.5c0,7.6-6.2,13.8-13.8,13.8c-7.7,0-13.8-6.2-13.8-13.8
					c0,0,0-115.4,0-184.5v-12.4c0-11.9,0-21.8,0-28.5c7.5,0,16.8,0,27.6,0v0.2c0,5.3,0,15.3,0,28.3c-2,0-3.1,0-3.1,0v12.4
					C820.6,788.6,821.7,788.6,823.7,788.6z"/>
				<path class="st2" d="M796.1,776.1v12.4c0,0-31.5,0-50.4,0c0-4.4,0-8.5,0-12.4C764.5,776.1,796.1,776.1,796.1,776.1z"/>
				<path class="st6" d="M745.7,747.7c-10.3,0-20.1,0-27.6,0c-8.8,0-14.6,0-14.6,0V719c0,0,41.2,0,72.3,0v28.6
					C766.3,747.7,755.7,747.7,745.7,747.7z"/>
				<path class="st4" d="M745.7,788.6c0,67.1,0,182.5,0,182.5c0,7.6-6.2,13.7-13.8,13.7c-7.7,0-13.8-6.1-13.8-13.7
					c0,0,0-176.1,0-223.4c7.5,0,17.3,0,27.6,0c0,5.9,0,15.9,0,28.5C745.7,780,745.7,784.2,745.7,788.6z"/>
			</g>
		</g>
	</g>
</g>
<g id="Layer_16">
	<g>
		<rect x="942.5" y="940" class="st7" width="162" height="12.2"/>
		<polygon class="st7" points="976.9,846.1 932,1018.9 943.7,1018.9 1002.5,846.1 		"/>
		<polygon class="st7" points="1045.1,846.1 1103.9,1018.9 1115.6,1018.9 1070.7,846.1 		"/>
		<polygon class="st8" points="976.9,846.1 967.8,881.1 990.6,881.1 1002.5,846.1 		"/>
		<polygon class="st9" points="939.4,990.3 932,1018.9 943.7,1018.9 953.5,990.3 		"/>
		<polygon class="st9" points="1094.1,990.3 1103.9,1018.9 1115.6,1018.9 1108.2,990.3 		"/>
		<polygon class="st8" points="1045.1,846.1 1057,881.1 1079.8,881.1 1070.7,846.1 		"/>
		<path class="st5" d="M1130.4,797.4c2.9,25.1-17.8,47-44.5,47H960.1c-12.7,0-24.8-5.1-33.3-14.1c-8.5-9-12.5-20.9-11.1-32.9
			l19.1-163.6c2.5-21.5,21.7-37.7,44.5-37.7h87.6c22.8,0,42,16.2,44.5,37.7L1130.4,797.4z"/>
		<rect x="956.7" y="844.4" class="st7" width="132.6" height="24.6"/>
		<rect x="956.7" y="844.4" class="st8" width="132.6" height="5.5"/>
	</g>
	<path class="st5" d="M1089.3,601.8"/>
	<path class="st1" d="M1130.4,797.4c2.9,25.1-17.8,47-44.5,47H960.1c-12.7,0-24.8-5.1-33.3-14.1c-8.5-9,203.8,45.6,184.5-196.5
		L1130.4,797.4z"/>
</g>
<g id="Chair_1_">
</g>
<g id="Window">
	<g>
		<rect x="1435.1" y="152.8" class="st10" width="385.5" height="397.8"/>
		<rect x="1454.9" y="173.2" class="st11" width="346" height="357.1"/>
		<g>
			<g>
				<polygon class="st12" points="1702,531.3 1669.6,531.3 1678.9,313.4 1692.8,312.9 				"/>
				<path class="st12" d="M1565.8,336v194.8h92.5V336H1565.8z M1585.1,442.6h-10.3v-10.3h10.3V442.6z M1587.4,363.2h-10.3V353h10.3
					V363.2z M1603.9,506.6h-10.3v-10.3h10.3V506.6z M1615.2,409h-10.3v-10.3h10.3V409z M1636.2,459.3H1626v-10.3h10.3V459.3z
					 M1646,374.5h-10.3v-10.3h10.3V374.5z"/>
				<rect x="1677.4" y="307.2" class="st12" width="21.1" height="7.2"/>
				<path class="st12" d="M1775.8,425.4l-34.4-58.6l-30.8,58.6h-9.1V445h11.3v85.3h62.7V445h6.2v-19.5H1775.8z M1764.2,524.1h-42.7
					v-3.6h42.7V524.1z M1764.2,501.5h-42.7v-3.6h42.7V501.5z M1764.2,478.9h-42.7v-3.6h42.7V478.9z M1764.2,456.3h-42.7v-3.6h42.7
					V456.3z"/>
				<rect x="1559.7" y="326.8" class="st12" width="104.8" height="14.4"/>
			</g>
			<g>
				<path class="st13" d="M1557.3,460.6c0.9-2,1.3-4.3,1.3-6.6c0-9.1-7-16.5-15.9-17.1c1.6-2.3,2.5-5,2.5-8
					c0-7.5-5.9-13.7-13.3-14.1c-2.7-2.6-6.3-4.2-10.3-4.2c-2.1,0-4.2,0.5-6,1.3c-1.9-10.7-11.3-18.8-22.5-18.8
					c-9.5,0-17.7,5.8-21.1,14.2c-5.4,4.4-8.9,11.2-8.9,18.7c0,0.6,0,1.2,0.1,1.8c-6,5-9.8,12.6-9.8,21.1c0,5.3,1.5,10.3,4.1,14.5
					c-1,2.6-1.6,5.4-1.6,8.4c0,12.8,10.4,23.1,23.1,23.1c0.6,0,1.3,0,1.9-0.1c4.2,5.7,10.9,9.3,18.4,9.3c7.1,0,13.4-3.2,17.6-8.3
					c0.5,0.1,1.1,0.1,1.6,0.1c7,0,12.9-4.5,15.1-10.8c2.5,1.3,5.3,2.1,8.3,2.1c9.8,0,17.7-7.9,17.7-17.7
					C1559.7,466.2,1558.8,463.2,1557.3,460.6z M1527.6,443.7c-0.1-0.4-0.2-0.8-0.3-1.2c0,0,0.1-0.1,0.1-0.1c0.3,0.1,0.7,0.2,1,0.3
					C1528.2,443,1527.9,443.4,1527.6,443.7z M1525.9,461.4c0,0.1,0,0.1,0.1,0.2c-0.6,1.1-1,2.3-1.3,3.6c-0.2-0.1-0.4-0.2-0.6-0.2
					C1524.8,463.9,1525.4,462.7,1525.9,461.4z"/>
				<polygon class="st14" points="1499,530.3 1508.8,530.3 1508.8,484.4 1535.2,462.1 1531.2,457.4 1508.8,476.3 1508.8,460.4 
					1499,460.4 1499,494.2 1485.5,476.7 1480.6,480.5 1499,504.3 				"/>
			</g>
		</g>
		<g class="st15">
			<polygon class="st16" points="1454.9,332.7 1454.9,496.9 1800.9,277.1 1800.9,173.2 1701.9,173.2 			"/>
			<polygon class="st16" points="1800.9,414.8 1800.9,338.9 1533.3,530.3 1628.3,530.3 			"/>
		</g>
		<path class="st17" d="M1838.1,560.1c0,1.7-1.4,3.1-3.1,3.1h-414.2c-1.7,0-3.1-1.4-3.1-3.1v-5.1c0-1.7,1.4-3.1,3.1-3.1H1835
			c1.7,0,3.1,1.4,3.1,3.1V560.1z"/>
		<rect x="1421.8" y="145.8" class="st0" width="412.2" height="15.4"/>
		<g>
			<g>
				<polygon class="st18" points="1807.2,157.3 1722.9,157.3 1534,157.3 1449.7,157.3 1444.3,167.9 1539.4,167.9 1717.5,167.9 
					1812.6,167.9 				"/>
				<polygon class="st19" points="1807.2,169.5 1722.9,169.5 1534,169.5 1449.7,169.5 1444.3,167.9 1539.4,167.9 1717.5,167.9 
					1812.6,167.9 				"/>
			</g>
			<g>
				<polygon class="st18" points="1807.2,169.5 1722.9,169.5 1534,169.5 1449.7,169.5 1444.3,180.1 1539.4,180.1 1717.5,180.1 
					1812.6,180.1 				"/>
				<polygon class="st19" points="1807.2,181.6 1722.9,181.6 1534,181.6 1449.7,181.6 1444.3,180.1 1539.4,180.1 1717.5,180.1 
					1812.6,180.1 				"/>
			</g>
			<g>
				<polygon class="st18" points="1807.2,181.6 1722.9,181.6 1534,181.6 1449.7,181.6 1444.3,192.3 1539.4,192.3 1717.5,192.3 
					1812.6,192.3 				"/>
				<polygon class="st19" points="1807.2,193.8 1722.9,193.8 1534,193.8 1449.7,193.8 1444.3,192.3 1539.4,192.3 1717.5,192.3 
					1812.6,192.3 				"/>
			</g>
			<g>
				<polygon class="st18" points="1807.2,193.8 1722.9,193.8 1534,193.8 1449.7,193.8 1444.3,204.5 1539.4,204.5 1717.5,204.5 
					1812.6,204.5 				"/>
				<polygon class="st19" points="1807.2,206 1722.9,206 1534,206 1449.7,206 1444.3,204.5 1539.4,204.5 1717.5,204.5 1812.6,204.5 
									"/>
			</g>
			<g>
				<polygon class="st18" points="1807.2,206 1722.9,206 1534,206 1449.7,206 1444.3,216.6 1539.4,216.6 1717.5,216.6 1812.6,216.6 
									"/>
				<polygon class="st19" points="1807.2,218.1 1722.9,218.1 1534,218.1 1449.7,218.1 1444.3,216.6 1539.4,216.6 1717.5,216.6 
					1812.6,216.6 				"/>
			</g>
			<g>
				<polygon class="st18" points="1807.2,218.1 1722.9,218.1 1534,218.1 1449.7,218.1 1444.3,228.8 1539.4,228.8 1717.5,228.8 
					1812.6,228.8 				"/>
				<polygon class="st19" points="1807.2,230.3 1722.9,230.3 1534,230.3 1449.7,230.3 1444.3,228.8 1539.4,228.8 1717.5,228.8 
					1812.6,228.8 				"/>
			</g>
			<g>
				<polygon class="st18" points="1806.1,230.3 1721.7,230.3 1532.9,230.3 1448.5,230.3 1443.1,241 1538.3,241 1716.3,241 
					1811.5,241 				"/>
				<polygon class="st19" points="1806.1,242.5 1721.7,242.5 1532.9,242.5 1448.5,242.5 1443.1,241 1538.3,241 1716.3,241 
					1811.5,241 				"/>
			</g>
			<g>
				<polygon class="st18" points="1806.1,242.5 1721.7,242.5 1532.9,242.5 1448.5,242.5 1443.1,253.1 1538.3,253.1 1716.3,253.1 
					1811.5,253.1 				"/>
				<polygon class="st19" points="1806.1,254.6 1721.7,254.6 1532.9,254.6 1448.5,254.6 1443.1,253.1 1538.3,253.1 1716.3,253.1 
					1811.5,253.1 				"/>
			</g>
			<g>
				<polygon class="st18" points="1806.1,254.6 1721.7,254.6 1532.9,254.6 1448.5,254.6 1443.1,265.3 1538.3,265.3 1716.3,265.3 
					1811.5,265.3 				"/>
				<polygon class="st19" points="1806.1,266.8 1721.7,266.8 1532.9,266.8 1448.5,266.8 1443.1,265.3 1538.3,265.3 1716.3,265.3 
					1811.5,265.3 				"/>
			</g>
			<g>
				<polygon class="st18" points="1806.1,266.8 1721.7,266.8 1532.9,266.8 1448.5,266.8 1443.1,277.5 1538.3,277.5 1716.3,277.5 
					1811.5,277.5 				"/>
				<polygon class="st19" points="1806.1,279 1721.7,279 1532.9,279 1448.5,279 1443.1,277.5 1538.3,277.5 1716.3,277.5 
					1811.5,277.5 				"/>
			</g>
			<g>
				<rect x="1747.6" y="156.4" class="st20" width="4.7" height="139.5"/>
			</g>
			<g>
				<rect x="1490.6" y="156.4" class="st20" width="4.7" height="139.5"/>
			</g>
			<path class="st21" d="M1474.5,444.9V158.1h-6.2V445c-3,1.3-5.1,4.4-5.1,8v24.5c0,4.8,3.7,8.6,8.3,8.6c4.6,0,8.3-3.9,8.3-8.6V453
				C1479.8,449.3,1477.6,446.2,1474.5,444.9z"/>
		</g>
		<polygon class="st22" points="1839.3,601.1 1420.8,563.2 1839.3,563.2 		"/>
	</g>
</g>
<g id="Folder">
</g>
<g id="Tools">
</g>
<g id="Monitor">
</g>
<g id="Table">
</g>
<g id="Lamp">
	<g>
		<rect x="401" y="1.8" class="st21" width="7.6" height="292.9"/>
		<path class="st23" d="M427.1,311.2c0,13-10.5,23.5-23.5,23.5c-13,0-23.5-10.5-23.5-23.5c0-13,10.5-23.5,23.5-23.5
			C416.5,287.7,427.1,298.2,427.1,311.2z"/>
		<path class="st24" d="M476.1,296.1c0,0.6-1.3,1.2-2.9,1.2H337.7c-1.6,0-2.9-0.5-2.9-1.2v-11.7c0-0.6,1.3-1.2,2.9-1.2h135.5
			c1.6,0,2.9,0.5,2.9,1.2V296.1z"/>
	</g>
	<g>
		<rect x="1524.8" y="1.8" class="st21" width="7.6" height="292.9"/>
		<path class="st23" d="M1550.9,311.2c0,13-10.5,23.5-23.5,23.5c-13,0-23.5-10.5-23.5-23.5c0-13,10.5-23.5,23.5-23.5
			C1540.3,287.7,1550.9,298.2,1550.9,311.2z"/>
		<path class="st24" d="M1599.8,296.1c0,0.6-1.3,1.2-2.9,1.2h-135.5c-1.6,0-2.9-0.5-2.9-1.2v-11.7c0-0.6,1.3-1.2,2.9-1.2H1597
			c1.6,0,2.9,0.5,2.9,1.2V296.1z"/>
	</g>
</g>
<g id="Mini_Table">
</g>
<g id="Printer">
</g>
<g id="Clock">
	<g>
		<rect x="547.6" y="95.2" class="st20" width="107.8" height="107.8"/>
		<rect x="557.2" y="104.8" class="st16" width="88.7" height="88.7"/>
		<g>
			<rect x="602.1" y="179.7" class="st20" width="1.6" height="11.5"/>
			<rect x="602.1" y="107.1" class="st20" width="1.6" height="11.5"/>
		</g>
		<g>
			<rect x="559.5" y="148.4" class="st20" width="11.5" height="1.6"/>
			<rect x="632.1" y="148.4" class="st20" width="11.5" height="1.6"/>
		</g>
		<polygon class="st25" points="601.3,118.4 601.3,148 575.2,148 575.2,150.9 601.3,150.9 604.3,150.9 604.3,148 604.3,118.4 		"/>
		<path class="st26" d="M606.1,149.6c0,1.7-1.4,3.1-3.1,3.1c-1.7,0-3.1-1.4-3.1-3.1c0-1.7,1.4-3.1,3.1-3.1
			C604.8,146.5,606.1,147.9,606.1,149.6z"/>
		
			<rect x="568" y="160.3" transform="matrix(0.8005 -0.5994 0.5994 0.8005 21.013 384.3629)" class="st26" width="39.7" height="0.7"/>
		<path class="st16" d="M604.8,149.6c0,0.9-0.8,1.7-1.7,1.7c-0.9,0-1.7-0.8-1.7-1.7c0-0.9,0.8-1.7,1.7-1.7
			C604,147.9,604.8,148.6,604.8,149.6z"/>
	</g>
</g>
<g id="AC">
	<g>
		<rect x="793.1" y="184.7" class="st20" width="325.1" height="15.6"/>
		<path class="st1" d="M1133.4,188.5c0,1.6-1.3,2.9-2.9,2.9H780.9c-1.6,0-2.9-1.3-2.9-2.9V98.9c0-1.6,1.3-2.9,2.9-2.9h349.7
			c1.6,0,2.9,1.3,2.9,2.9V188.5z"/>
		<path class="st20" d="M1130.5,96H780.9c-1.6,0-2.9,1.3-2.9,2.9V114c0-1.6,1.3-2.9,2.9-2.9h349.7c1.6,0,2.9,1.3,2.9,2.9V98.9
			C1133.4,97.3,1132.1,96,1130.5,96z"/>
		<g>
			<g>
				<rect x="796.1" y="114.8" class="st27" width="69.4" height="4.2"/>
				<rect x="796.1" y="123.2" class="st27" width="69.4" height="4.2"/>
				<rect x="873.9" y="114.8" class="st27" width="69.4" height="4.2"/>
				<rect x="873.9" y="123.2" class="st27" width="69.4" height="4.2"/>
			</g>
			<g>
				<rect x="968" y="114.8" class="st27" width="69.4" height="4.2"/>
				<rect x="968" y="123.2" class="st27" width="69.4" height="4.2"/>
				<rect x="1045.8" y="114.8" class="st27" width="69.4" height="4.2"/>
				<rect x="1045.8" y="123.2" class="st27" width="69.4" height="4.2"/>
			</g>
		</g>
		<path class="st28" d="M1128.8,183.9c0,2.1-1.7,3.8-3.8,3.8c-2.1,0-3.8-1.7-3.8-3.8c0-2.1,1.7-3.8,3.8-3.8
			C1127.1,180.1,1128.8,181.8,1128.8,183.9z"/>
		<path class="st29" d="M797,172.6v17.6h317.5v-17.6H797z M802.7,189.3l8.2-13.1h284.5l13.2,13.1H802.7z"/>
	</g>
</g>
<g id="File_Cabinet">
	<g>
		<g>
			<g>
				<path class="st30" d="M153.9,954.5c0,7.2-5.8,13-13,13c-7.2,0-13-5.8-13-13c0-7.2,5.8-13,13-13
					C148.1,941.5,153.9,947.3,153.9,954.5z"/>
				<path class="st30" d="M379.3,954.5c0,7.2-5.8,13-13,13c-7.2,0-13-5.8-13-13c0-7.2,5.8-13,13-13
					C373.4,941.5,379.3,947.3,379.3,954.5z"/>
			</g>
			<g>
				<path class="st31" d="M389.8,938.9c0,1.4-1.3,2.4-2.8,2.4H120.2c-1.6,0-2.8-1.1-2.8-2.4V669c0-1.3,1.3-2.4,2.8-2.4h266.8
					c1.6,0,2.8,1.1,2.8,2.4V938.9z"/>
				<g>
					<rect x="123" y="807.5" class="st32" width="261.1" height="58.9"/>
					<rect x="123" y="855.3" class="st33" width="261.1" height="2"/>
					<rect x="221.6" y="841.4" class="st33" width="63.9" height="14.2"/>
					<rect x="221.6" y="850.2" class="st34" width="63.9" height="5.4"/>
				</g>
				<g>
					<rect x="123" y="871.6" class="st32" width="261.1" height="58.9"/>
					<rect x="123" y="919.4" class="st33" width="261.1" height="2"/>
					<rect x="221.6" y="905.4" class="st33" width="63.9" height="14.2"/>
					<rect x="221.6" y="914.3" class="st34" width="63.9" height="5.4"/>
				</g>
				<g>
					<rect x="123" y="743.5" class="st32" width="261.1" height="58.9"/>
					<rect x="123" y="791.2" class="st33" width="261.1" height="2"/>
					<rect x="221.6" y="777.3" class="st33" width="63.9" height="14.2"/>
					<rect x="221.6" y="786.2" class="st34" width="63.9" height="5.4"/>
				</g>
				<g>
					<rect x="123" y="679.4" class="st32" width="261.1" height="58.9"/>
					<rect x="123" y="727.2" class="st33" width="261.1" height="2"/>
					<rect x="221.6" y="713.3" class="st33" width="63.9" height="14.2"/>
					<rect x="221.6" y="722.1" class="st34" width="63.9" height="5.4"/>
				</g>
				<rect x="111.7" y="931.5" class="st35" width="283.8" height="18.3"/>
			</g>
			<rect x="107.3" y="657.3" class="st35" width="289.8" height="15.3"/>
		</g>
		<path class="st22" d="M353.7,968.8c0,2.1-44.1,3.8-98.6,3.8c-54.4,0-98.6-1.7-98.6-3.8s44.1-3.8,98.6-3.8
			C309.6,964.9,353.7,966.6,353.7,968.8z"/>
	</g>
</g>
<g id="Printer_1_">
	<g>
		<rect x="207.7" y="569.5" class="st25" width="105.4" height="30.8"/>
		<rect x="214.1" y="564.8" class="st36" width="93" height="18.8"/>
		<g>
			<path class="st25" d="M339.6,654.2c0,2.4-2,4.4-4.4,4.4H186.4c-2.4,0-4.4-2-4.4-4.4v-67.7c0-2.4,2-4.4,4.4-4.4h148.8
				c2.4,0,4.4,2,4.4,4.4V654.2z"/>
			<path class="st37" d="M307.3,620.4h-93c-2.4,0-4.4,2-4.4,4.4v33.8h101.8v-33.8C311.7,622.3,309.7,620.4,307.3,620.4z"/>
			<path class="st25" d="M296.3,642.8h-70.9c-1.8,0-3.3,1.5-3.3,3.3v11.2h77.6v-11.2C299.6,644.3,298.1,642.8,296.3,642.8z"/>
			<rect x="224.3" y="639.8" class="st37" width="72.1" height="20.3"/>
			<rect x="224.3" y="639.8" class="st38" width="72.1" height="15.2"/>
			<rect x="238.2" y="583.6" class="st36" width="43.7" height="13.6"/>
			<rect x="243.6" y="585.3" class="st25" width="32.8" height="4.2"/>
			<rect x="190.5" y="585.3" class="st39" width="12.9" height="1.2"/>
		</g>
		<rect x="229" y="530.9" class="st40" width="64.9" height="51.3"/>
		<rect x="229" y="574.2" class="st41" width="64.9" height="7.9"/>
	</g>
</g>
</svg>
