<?xml version="1.0" encoding="utf-8"?>
<!-- Generator: Adobe Illustrator 22.1.0, SVG Export Plug-In . SVG Version: 6.00 Build 0)  -->
<svg version="1.1" xmlns="http://www.w3.org/2000/svg" xmlns:xlink="http://www.w3.org/1999/xlink" x="0px" y="0px"
	 viewBox="0 0 1920 1920" style="enable-background:new 0 0 1920 1920;" xml:space="preserve">
<style type="text/css">
	.st0{fill:#CCCCCC;}
	.st1{fill:#E6E6E6;}
	.st2{fill:#494949;}
	.st3{fill:#F5E8D0;}
	.st4{fill:#8E8E8E;}
	.st5{fill:#FFFFFF;}
	.st6{fill:#F5D69A;}
	.st7{fill:#A56941;}
	.st8{fill:#965028;}
	.st9{fill:#DCBE82;}
	.st10{fill:#578DA0;}
	.st11{fill:#ACD6F2;}
	.st12{fill:#5EAACF;}
	.st13{fill:#6BA795;}
	.st14{fill:#7B7031;}
	.st15{opacity:0.2;}
	.st16{fill:#F2F2F2;}
	.st17{fill:#518394;}
	.st18{fill:#E2E2E2;}
	.st19{fill:#A5A5A5;}
	.st20{fill:#B3B3B3;}
	.st21{fill:#808080;}
	.st22{opacity:0.1;}
	.st23{fill:#E8D4AA;}
	.st24{fill:#306E89;}
	.st25{fill:#666666;}
	.st26{fill:#F58C7E;}
	.st27{fill:#C6C7C7;}
	.st28{fill:#96BEE5;}
	.st29{fill:#CDCECE;}
	.st30{fill:#575757;}
	.st31{fill:#D6D6D6;}
	.st32{fill:#F0F0F0;}
	.st33{fill:#BDBDBD;}
	.st34{fill:#A2A3A4;}
	.st35{fill:#8A8A8A;}
	.st36{fill:#333333;}
	.st37{fill:#4D4D4D;}
	.st38{fill:#999999;}
	.st39{fill:#DFE0E1;}
	.st40{fill:#CDCECF;}
	.st41{fill:#B3B5B6;}
</style>
<g id="Background">
	<rect y="-1" class="st0" width="1920" height="1920"/>
</g>
<g id="Floor">
	<g>
		<rect y="1460.5" class="st1" width="1920" height="459.5"/>
		<rect y="1411.5" class="st1" width="1920" height="49"/>
	</g>
	<g>
		<g id="XMLID_10_">
			<g>
				<path class="st2" d="M811.3,1375.5c0,6.8,0,14.1,0,21.8c-2.5,0-3.8,0-3.8,0v-21.8C807.5,1375.5,808.8,1375.5,811.3,1375.5z"/>
				<path class="st3" d="M1305.1,1325.4c-8.6,0-20.3,0-34.4,0c-9.9,0-21,0-33.1,0c-10.7,0-22.2,0-34.4,0c-3.3,0-6.7,0-10.1,0
					c-0.1-17.9-0.2-34.8-0.3-50.3c75.1,0,129.3,0,129.3,0v50.3C1322,1325.4,1316,1325.4,1305.1,1325.4z"/>
				<path class="st2" d="M1270.7,1397.3c0-7.7,0-15,0-21.8c0-21.2,0-38.3,0-49.2v-0.8c14.1,0,25.8,0,34.4,0c0,66.7,0,391,0,391
					c0,13.3-7.7,24.1-17.2,24.1c-9.5,0-17.2-10.8-17.2-24.1C1270.7,1716.4,1270.7,1515.3,1270.7,1397.3z"/>
				<path class="st2" d="M1237.6,1375.5c12.8,0,24,0,33.1,0c0,6.8,0,14.1,0,21.8c-9.1,0-20.3,0-33.1,0c-10.4,0-22,0-34.4,0
					c-3.2,0-6.5,0-9.8,0c0-7.4-0.1-14.6-0.1-21.8c3.4,0,6.7,0,9.9,0C1215.5,1375.5,1227.1,1375.5,1237.6,1375.5z"/>
				<path class="st4" d="M1237.6,1397.3c0,113.3,0,314.3,0,314.3c0,13-7.7,23.4-17.2,23.4c-9.5,0-17.2-10.4-17.2-23.4
					c0,0,0-93.1,0-189.3c0-43.8,0-88.3,0-125C1215.5,1397.3,1227.1,1397.3,1237.6,1397.3z"/>
				<path class="st4" d="M1237.6,1329.2c0,8.7,0,25,0,46.3c-10.4,0-22,0-34.4,0c0-21.5,0-39,0-50c12.2,0,23.7,0,34.4,0V1329.2z"/>
				<path class="st5" d="M1175.6,1375.5v21.8c-70,0-158.4,0-231.1,0v-21.8C1017.1,1375.5,1105.5,1375.5,1175.6,1375.5z"/>
				<path class="st2" d="M925.4,1397.3h-1c-56.4,0-100.2,0-113.1,0c0-7.7,0-15,0-21.8c12.8,0,56.7,0,113.1,0h0.9
					C925.4,1382.7,925.4,1390,925.4,1397.3z"/>
				<path class="st3" d="M776.9,1325.4c-2,0-3.8,0-5.6,0c-5.9,0-12.5,0-19.6,0v-50.3c7.9,0,15.2,0,21.5,0c29.2,0,85.5,0,151.3,0
					c0.2,15.5,0.3,32.4,0.5,50.3h-1.1c-43.3,0-82.5,0-112.5,0C797.8,1325.4,786.2,1325.4,776.9,1325.4z"/>
				<path class="st2" d="M811.3,1397.3c0,117.2,0,324.1,0,324.1c0,13.3-7.7,24.2-17.2,24.2c-9.5,0-17.2-10.9-17.2-24.2
					c0,0,0-202.8,0-324.1v-21.8c0-20.9,0-38.2,0-50c9.3,0,21,0,34.4,0v0.4c0,9.3,0,26.8,0,49.7c-2.5,0-3.8,0-3.8,0v21.8
					C807.5,1397.3,808.8,1397.3,811.3,1397.3z"/>
				<path class="st2" d="M776.9,1375.5v21.8c0,0-39.3,0-62.9,0c0-7.7,0-15,0-21.8C737.5,1375.5,776.9,1375.5,776.9,1375.5z"/>
				<path class="st6" d="M714,1325.4c-12.8,0-25,0-34.4,0c-11,0-18.2,0-18.2,0v-50.3c0,0,51.4,0,90.2,0v50.3
					C739.7,1325.4,726.5,1325.4,714,1325.4z"/>
				<path class="st4" d="M714,1397.3c0,117.9,0,320.6,0,320.6c0,13.3-7.7,24.1-17.2,24.1c-9.5,0-17.2-10.8-17.2-24.1
					c0,0,0-309.3,0-392.5c9.4,0,21.6,0,34.4,0c0,10.4,0,27.9,0,50C714,1382.3,714,1389.6,714,1397.3z"/>
			</g>
		</g>
	</g>
</g>
<g id="Layer_16">
	<g>
		<rect x="909.9" y="1617.8" class="st7" width="254.7" height="20.1"/>
		<polygon class="st7" points="963.9,1462.8 893.3,1748.3 911.8,1748.3 1004.1,1462.8 		"/>
		<polygon class="st7" points="1071.1,1462.8 1163.5,1748.3 1181.9,1748.3 1111.4,1462.8 		"/>
		<polygon class="st8" points="963.9,1462.8 949.6,1520.6 985.4,1520.6 1004.1,1462.8 		"/>
		<polygon class="st9" points="905,1701 893.3,1748.3 911.8,1748.3 927.1,1701 		"/>
		<polygon class="st9" points="1148.2,1701 1163.5,1748.3 1181.9,1748.3 1170.2,1701 		"/>
		<polygon class="st8" points="1071.1,1462.8 1089.8,1520.6 1125.7,1520.6 1111.4,1462.8 		"/>
		<path class="st5" d="M1205.2,1382.4c4.6,41.4-28,77.6-69.9,77.6H937.6c-20,0-39-8.5-52.4-23.3c-13.3-14.8-19.7-34.6-17.5-54.3
			l30-270.2c3.9-35.4,34-62.3,69.9-62.3h137.8c35.9,0,66,26.8,69.9,62.3L1205.2,1382.4z"/>
		<rect x="932.2" y="1460" class="st7" width="208.5" height="40.7"/>
		<rect x="932.2" y="1460" class="st8" width="208.5" height="9"/>
	</g>
	<path class="st5" d="M1140.7,1059.4"/>
	<path class="st1" d="M1205.2,1382.4c4.6,41.4-28,77.6-69.9,77.6H937.6c-20,0-39-8.5-52.4-23.3c-13.3-14.8,320.4,75.2,290-324.5
		L1205.2,1382.4z"/>
</g>
<g id="Chair_1_">
</g>
<g id="Window">
	<g>
		<rect x="1392.1" y="523.6" class="st10" width="471.4" height="486.5"/>
		<rect x="1416.2" y="548.6" class="st11" width="423.1" height="436.6"/>
		<g>
			<g>
				<polygon class="st12" points="1718.4,986.5 1678.8,986.5 1690.1,720 1707.1,719.4 				"/>
				<path class="st12" d="M1551.9,747.7v238.2H1665V747.7H1551.9z M1575.4,878.1h-12.6v-12.6h12.6V878.1z M1578.3,781h-12.6v-12.6
					h12.6V781z M1598.4,956.3h-12.6v-12.6h12.6V956.3z M1612.2,836.9h-12.6v-12.6h12.6V836.9z M1638,898.5h-12.6v-12.6h12.6V898.5z
					 M1649.9,794.8h-12.6v-12.6h12.6V794.8z"/>
				<rect x="1688.3" y="712.5" class="st12" width="25.8" height="8.8"/>
				<path class="st12" d="M1808.6,857l-42.1-71.6l-37.6,71.6h-11.1v23.9h13.8v104.3h76.7V880.9h7.5V857H1808.6z M1794.5,977.7h-52.2
					v-4.4h52.2V977.7z M1794.5,950h-52.2v-4.4h52.2V950z M1794.5,922.4h-52.2V918h52.2V922.4z M1794.5,894.7h-52.2v-4.4h52.2V894.7z
					"/>
				<rect x="1544.3" y="736.3" class="st12" width="128.2" height="17.6"/>
			</g>
			<g>
				<path class="st13" d="M1541.5,900c1-2.5,1.6-5.2,1.6-8.1c0-11.1-8.6-20.1-19.4-21c1.9-2.8,3.1-6.2,3.1-9.8
					c0-9.2-7.2-16.7-16.3-17.2c-3.3-3.1-7.7-5.1-12.6-5.1c-2.6,0-5.1,0.6-7.4,1.6c-2.4-13-13.8-22.9-27.5-22.9
					c-11.7,0-21.7,7.1-25.9,17.3c-6.7,5.4-10.9,13.7-10.9,22.9c0,0.7,0,1.5,0.1,2.2c-7.4,6.2-12,15.4-12,25.8
					c0,6.5,1.9,12.6,5.1,17.7c-1.2,3.2-1.9,6.6-1.9,10.2c0,15.6,12.7,28.3,28.3,28.3c0.8,0,1.5,0,2.3-0.1
					c5.1,6.9,13.3,11.4,22.5,11.4c8.7,0,16.4-4,21.6-10.2c0.7,0.1,1.3,0.1,2,0.1c8.6,0,15.8-5.5,18.4-13.2c3,1.6,6.5,2.5,10.2,2.5
					c12,0,21.7-9.7,21.7-21.7C1544.3,906.8,1543.3,903.2,1541.5,900z M1505.1,879.4c-0.1-0.5-0.2-1-0.4-1.5c0.1-0.1,0.1-0.1,0.2-0.2
					c0.4,0.1,0.8,0.2,1.3,0.3C1505.8,878.5,1505.4,878.9,1505.1,879.4z M1503.1,901.1c0,0.1,0.1,0.1,0.1,0.2
					c-0.7,1.4-1.2,2.9-1.6,4.4c-0.3-0.1-0.5-0.2-0.8-0.3C1501.7,904,1502.4,902.5,1503.1,901.1z"/>
				<polygon class="st14" points="1470.2,985.2 1482.1,985.2 1482.1,929.1 1514.4,901.9 1509.5,896.1 1482.1,919.3 1482.1,899.7 
					1470.2,899.7 1470.2,941.1 1453.7,919.8 1447.7,924.4 1470.2,953.4 				"/>
			</g>
		</g>
		<g class="st15">
			<polygon class="st16" points="1416.2,743.6 1416.2,944.3 1839.3,675.6 1839.3,548.6 1718.2,548.6 			"/>
			<polygon class="st16" points="1839.3,844 1839.3,751.2 1512.1,985.2 1628.3,985.2 			"/>
		</g>
		<path class="st17" d="M1884.8,1021.7c0,2.1-1.7,3.8-3.8,3.8h-506.5c-2.1,0-3.8-1.7-3.8-3.8v-6.3c0-2.1,1.7-3.8,3.8-3.8H1881
			c2.1,0,3.8,1.7,3.8,3.8V1021.7z"/>
		<rect x="1375.7" y="515.1" class="st0" width="504" height="18.9"/>
		<g>
			<g>
				<polygon class="st18" points="1847.1,529.1 1743.9,529.1 1513,529.1 1409.8,529.1 1403.3,542.1 1519.6,542.1 1737.3,542.1 
					1853.7,542.1 				"/>
				<polygon class="st19" points="1847.1,544 1743.9,544 1513,544 1409.8,544 1403.3,542.1 1519.6,542.1 1737.3,542.1 1853.7,542.1 
									"/>
			</g>
			<g>
				<polygon class="st18" points="1847.1,544 1743.9,544 1513,544 1409.8,544 1403.3,557 1519.6,557 1737.3,557 1853.7,557 				"/>
				<polygon class="st19" points="1847.1,558.9 1743.9,558.9 1513,558.9 1409.8,558.9 1403.3,557 1519.6,557 1737.3,557 1853.7,557 
									"/>
			</g>
			<g>
				<polygon class="st18" points="1847.1,558.9 1743.9,558.9 1513,558.9 1409.8,558.9 1403.3,571.9 1519.6,571.9 1737.3,571.9 
					1853.7,571.9 				"/>
				<polygon class="st19" points="1847.1,573.8 1743.9,573.8 1513,573.8 1409.8,573.8 1403.3,571.9 1519.6,571.9 1737.3,571.9 
					1853.7,571.9 				"/>
			</g>
			<g>
				<polygon class="st18" points="1847.1,573.8 1743.9,573.8 1513,573.8 1409.8,573.8 1403.3,586.8 1519.6,586.8 1737.3,586.8 
					1853.7,586.8 				"/>
				<polygon class="st19" points="1847.1,588.6 1743.9,588.6 1513,588.6 1409.8,588.6 1403.3,586.8 1519.6,586.8 1737.3,586.8 
					1853.7,586.8 				"/>
			</g>
			<g>
				<polygon class="st18" points="1847.1,588.6 1743.9,588.6 1513,588.6 1409.8,588.6 1403.3,601.7 1519.6,601.7 1737.3,601.7 
					1853.7,601.7 				"/>
				<polygon class="st19" points="1847.1,603.5 1743.9,603.5 1513,603.5 1409.8,603.5 1403.3,601.7 1519.6,601.7 1737.3,601.7 
					1853.7,601.7 				"/>
			</g>
			<g>
				<polygon class="st18" points="1847.1,603.5 1743.9,603.5 1513,603.5 1409.8,603.5 1403.3,616.6 1519.6,616.6 1737.3,616.6 
					1853.7,616.6 				"/>
				<polygon class="st19" points="1847.1,618.4 1743.9,618.4 1513,618.4 1409.8,618.4 1403.3,616.6 1519.6,616.6 1737.3,616.6 
					1853.7,616.6 				"/>
			</g>
			<g>
				<polygon class="st18" points="1845.7,618.4 1742.5,618.4 1511.6,618.4 1408.4,618.4 1401.8,631.4 1518.2,631.4 1735.9,631.4 
					1852.3,631.4 				"/>
				<polygon class="st19" points="1845.7,633.3 1742.5,633.3 1511.6,633.3 1408.4,633.3 1401.8,631.4 1518.2,631.4 1735.9,631.4 
					1852.3,631.4 				"/>
			</g>
			<g>
				<polygon class="st18" points="1845.7,633.3 1742.5,633.3 1511.6,633.3 1408.4,633.3 1401.8,646.3 1518.2,646.3 1735.9,646.3 
					1852.3,646.3 				"/>
				<polygon class="st19" points="1845.7,648.2 1742.5,648.2 1511.6,648.2 1408.4,648.2 1401.8,646.3 1518.2,646.3 1735.9,646.3 
					1852.3,646.3 				"/>
			</g>
			<g>
				<polygon class="st18" points="1845.7,648.2 1742.5,648.2 1511.6,648.2 1408.4,648.2 1401.8,661.2 1518.2,661.2 1735.9,661.2 
					1852.3,661.2 				"/>
				<polygon class="st19" points="1845.7,663 1742.5,663 1511.6,663 1408.4,663 1401.8,661.2 1518.2,661.2 1735.9,661.2 
					1852.3,661.2 				"/>
			</g>
			<g>
				<polygon class="st18" points="1845.7,663 1742.5,663 1511.6,663 1408.4,663 1401.8,676.1 1518.2,676.1 1735.9,676.1 
					1852.3,676.1 				"/>
				<polygon class="st19" points="1845.7,677.9 1742.5,677.9 1511.6,677.9 1408.4,677.9 1401.8,676.1 1518.2,676.1 1735.9,676.1 
					1852.3,676.1 				"/>
			</g>
			<g>
				<rect x="1774.1" y="528" class="st20" width="5.7" height="170.6"/>
			</g>
			<g>
				<rect x="1459.9" y="528" class="st20" width="5.7" height="170.6"/>
			</g>
			<path class="st21" d="M1440.2,880.8V530.2h-7.6v350.8c-3.6,1.6-6.2,5.4-6.2,9.7v29.9c0,5.8,4.5,10.6,10.1,10.6
				c5.6,0,10.1-4.7,10.1-10.6v-29.9C1446.6,886.2,1443.9,882.4,1440.2,880.8z"/>
		</g>
		<polygon class="st22" points="1886.3,1071.8 1374.5,1025.4 1886.3,1025.4 		"/>
	</g>
</g>
<g id="Folder">
</g>
<g id="Tools">
</g>
<g id="Monitor">
</g>
<g id="Table">
</g>
<g id="Lamp">
	<g>
		<rect x="221.4" y="0" class="st21" width="10.1" height="385.8"/>
		<path class="st23" d="M255.8,407.6c0,17.1-13.9,31-31,31c-17.1,0-31-13.9-31-31c0-17.1,13.9-31,31-31
			C241.9,376.6,255.8,390.4,255.8,407.6z"/>
		<path class="st24" d="M320.3,387.6c0,0.8-1.7,1.5-3.8,1.5H138c-2.1,0-3.8-0.7-3.8-1.5v-15.4c0-0.8,1.7-1.5,3.8-1.5h178.5
			c2.1,0,3.8,0.7,3.8,1.5V387.6z"/>
	</g>
	<g>
		<rect x="1701.5" y="0" class="st21" width="10.1" height="385.8"/>
		<path class="st23" d="M1735.9,407.6c0,17.1-13.9,31-31,31c-17.1,0-31-13.9-31-31c0-17.1,13.9-31,31-31
			C1722,376.6,1735.9,390.4,1735.9,407.6z"/>
		<path class="st24" d="M1800.4,387.6c0,0.8-1.7,1.5-3.8,1.5h-178.5c-2.1,0-3.8-0.7-3.8-1.5v-15.4c0-0.8,1.7-1.5,3.8-1.5h178.5
			c2.1,0,3.8,0.7,3.8,1.5V387.6z"/>
	</g>
</g>
<g id="Mini_Table">
</g>
<g id="Printer">
</g>
<g id="Clock">
	<g>
		<rect x="414.5" y="123.1" class="st20" width="142" height="142"/>
		<rect x="427.1" y="135.7" class="st16" width="116.8" height="116.8"/>
		<g>
			<rect x="486.3" y="234.4" class="st20" width="2" height="15.1"/>
			<rect x="486.3" y="138.7" class="st20" width="2" height="15.1"/>
		</g>
		<g>
			<rect x="430.1" y="193.1" class="st20" width="15.1" height="2"/>
			<rect x="525.8" y="193.1" class="st20" width="15.1" height="2"/>
		</g>
		<polygon class="st25" points="485.3,153.6 485.3,192.6 450.8,192.6 450.8,196.4 485.3,196.4 489.1,196.4 489.1,192.6 489.1,153.6 
					"/>
		<path class="st26" d="M491.6,194.6c0,2.2-1.8,4.1-4.1,4.1c-2.2,0-4.1-1.8-4.1-4.1c0-2.2,1.8-4.1,4.1-4.1
			C489.8,190.6,491.6,192.4,491.6,194.6z"/>
		
			<rect x="441.3" y="208.7" transform="matrix(0.8005 -0.5994 0.5994 0.8005 -32.1082 321.9293)" class="st26" width="52.3" height="0.9"/>
		<path class="st16" d="M489.8,194.6c0,1.2-1,2.3-2.3,2.3c-1.2,0-2.3-1-2.3-2.3c0-1.2,1-2.3,2.3-2.3
			C488.8,192.4,489.8,193.4,489.8,194.6z"/>
	</g>
</g>
<g id="AC">
	<g>
		<rect x="737.9" y="240.9" class="st20" width="428.2" height="20.6"/>
		<path class="st1" d="M1186.1,245.9c0,2.1-1.7,3.8-3.8,3.8H721.7c-2.1,0-3.8-1.7-3.8-3.8v-118c0-2.1,1.7-3.8,3.8-3.8h460.5
			c2.1,0,3.8,1.7,3.8,3.8V245.9z"/>
		<path class="st20" d="M1182.3,124.1H721.7c-2.1,0-3.8,1.7-3.8,3.8v19.8c0-2.1,1.7-3.8,3.8-3.8h460.5c2.1,0,3.8,1.7,3.8,3.8v-19.8
			C1186.1,125.8,1184.4,124.1,1182.3,124.1z"/>
		<g>
			<g>
				<rect x="741.8" y="148.9" class="st27" width="91.4" height="5.5"/>
				<rect x="741.8" y="159.9" class="st27" width="91.4" height="5.5"/>
				<rect x="844.3" y="148.9" class="st27" width="91.4" height="5.5"/>
				<rect x="844.3" y="159.9" class="st27" width="91.4" height="5.5"/>
			</g>
			<g>
				<rect x="968.2" y="148.9" class="st27" width="91.4" height="5.5"/>
				<rect x="968.2" y="159.9" class="st27" width="91.4" height="5.5"/>
				<rect x="1070.7" y="148.9" class="st27" width="91.4" height="5.5"/>
				<rect x="1070.7" y="159.9" class="st27" width="91.4" height="5.5"/>
			</g>
		</g>
		<path class="st28" d="M1180,239.8c0,2.7-2.2,5-5,5s-5-2.2-5-5c0-2.7,2.2-5,5-5S1180,237.1,1180,239.8z"/>
		<path class="st29" d="M742.9,224.9v23.1h418.1v-23.1H742.9z M750.5,246.9l10.9-17.2h374.7l17.4,17.2H750.5z"/>
	</g>
</g>
<g id="File_Cabinet">
	<g>
		<g>
			<g>
				<path class="st30" d="M106.8,1471.6c0,10.6-8.6,19.2-19.2,19.2c-10.6,0-19.2-8.6-19.2-19.2c0-10.6,8.6-19.2,19.2-19.2
					C98.1,1452.4,106.8,1461,106.8,1471.6z"/>
				<path class="st30" d="M440.1,1471.6c0,10.6-8.6,19.2-19.2,19.2c-10.6,0-19.2-8.6-19.2-19.2c0-10.6,8.6-19.2,19.2-19.2
					C431.5,1452.4,440.1,1461,440.1,1471.6z"/>
			</g>
			<g>
				<path class="st31" d="M455.7,1448.6c0,2-1.9,3.6-4.2,3.6H56.9c-2.3,0-4.2-1.6-4.2-3.6v-399.2c0-2,1.9-3.6,4.2-3.6h394.6
					c2.3,0,4.2,1.6,4.2,3.6V1448.6z"/>
				<g>
					<rect x="61.1" y="1254.2" class="st32" width="386.2" height="87.2"/>
					<rect x="61.1" y="1324.9" class="st33" width="386.2" height="2.9"/>
					<rect x="207" y="1304.4" class="st33" width="94.5" height="21.1"/>
					<rect x="207" y="1317.4" class="st34" width="94.5" height="8"/>
				</g>
				<g>
					<rect x="61.1" y="1349" class="st32" width="386.2" height="87.2"/>
					<rect x="61.1" y="1419.7" class="st33" width="386.2" height="2.9"/>
					<rect x="207" y="1399.1" class="st33" width="94.5" height="21.1"/>
					<rect x="207" y="1412.2" class="st34" width="94.5" height="8"/>
				</g>
				<g>
					<rect x="61.1" y="1159.5" class="st32" width="386.2" height="87.2"/>
					<rect x="61.1" y="1230.2" class="st33" width="386.2" height="2.9"/>
					<rect x="207" y="1209.6" class="st33" width="94.5" height="21.1"/>
					<rect x="207" y="1222.7" class="st34" width="94.5" height="8"/>
				</g>
				<g>
					<rect x="61.1" y="1064.7" class="st32" width="386.2" height="87.2"/>
					<rect x="61.1" y="1135.4" class="st33" width="386.2" height="2.9"/>
					<rect x="207" y="1114.9" class="st33" width="94.5" height="21.1"/>
					<rect x="207" y="1127.9" class="st34" width="94.5" height="8"/>
				</g>
				<rect x="44.3" y="1437.6" class="st35" width="419.8" height="27.1"/>
			</g>
			<rect x="37.9" y="1032.1" class="st35" width="428.6" height="22.6"/>
		</g>
		<path class="st22" d="M402.4,1492.8c0,3.1-65.3,5.7-145.8,5.7c-80.5,0-145.8-2.5-145.8-5.7s65.3-5.7,145.8-5.7
			C337.1,1487.1,402.4,1489.6,402.4,1492.8z"/>
	</g>
</g>
<g id="Printer_1_">
	<g>
		<rect x="186.4" y="902.2" class="st25" width="155.9" height="45.6"/>
		<rect x="195.9" y="895.3" class="st36" width="137.6" height="27.8"/>
		<g>
			<path class="st25" d="M381.4,1027.5c0,3.6-2.9,6.5-6.5,6.5H154.9c-3.6,0-6.5-2.9-6.5-6.5V927.4c0-3.6,2.9-6.5,6.5-6.5H375
				c3.6,0,6.5,2.9,6.5,6.5V1027.5z"/>
			<path class="st37" d="M333.7,977.5H196.1c-3.6,0-6.5,2.9-6.5,6.5v50.1h150.6v-50.1C340.2,980.3,337.3,977.5,333.7,977.5z"/>
			<path class="st25" d="M317.4,1010.6H212.4c-2.7,0-4.9,2.2-4.9,4.9v16.6h114.8v-16.6C322.3,1012.8,320.1,1010.6,317.4,1010.6z"/>
			<rect x="210.9" y="1006.1" class="st37" width="106.6" height="30"/>
			<rect x="210.9" y="1006.1" class="st38" width="106.6" height="22.5"/>
			<rect x="231.4" y="923.1" class="st36" width="64.6" height="20.1"/>
			<rect x="239.5" y="925.6" class="st25" width="48.5" height="6.2"/>
			<rect x="160.9" y="925.6" class="st39" width="19.1" height="1.8"/>
		</g>
		<rect x="217.9" y="845" class="st40" width="96" height="75.9"/>
		<rect x="217.9" y="909.2" class="st41" width="96" height="11.7"/>
	</g>
</g>
</svg>
