<?xml version="1.0" encoding="UTF-8"?>
<svg xmlns="http://www.w3.org/2000/svg" xmlns:xlink="http://www.w3.org/1999/xlink" width="267pt" height="90pt" viewBox="0 0 267 90" version="1.1">
<g id="surface1">
<path style=" stroke:none;fill-rule:nonzero;fill:rgb(100%,100%,100%);fill-opacity:1;" d="M 133.5 74.296875 C 132.71875 74.296875 131.351562 74.296875 129.6875 74.003906 C 118.703125 72.070312 115.890625 64.429688 101.152344 61.933594 C 89.8125 60.011719 72.925781 65.730469 64.992188 65.332031 C 50.527344 64.617188 54.261719 57.503906 36.257812 55.605469 C 11.453125 52.992188 4.085938 47.507812 -0.0976562 44.355469 L 0.0976562 90.058594 L 267.097656 90.058594 L 267.019531 42.984375 C 262.953125 46.207031 255.800781 51.210938 231.113281 54.1875 C 213.210938 56.34375 217.234375 63.398438 202.789062 64.335938 C 194.875 64.851562 177.753906 59.390625 166.492188 61.476562 C 151.855469 64.195312 149.78125 73.066406 138.464844 74.085938 C 137.253906 74.179688 133.5 74.296875 133.5 74.296875 Z M 133.5 74.296875 "/>
</g>
</svg>
